BasicallyAMono-Bold.ufo
<glyph name="exclam" format="2">
  <advance width="1020"/>
  <unicode hex="0021"/>
  <outline>
    <contour>
      <point x="401.16279" y="377.30233" type="line"/>
      <point x="618.83721" y="377.30233" type="line"/>
      <point x="618.83721" y="1170.0" type="line"/>
      <point x="401.16279" y="1170.0" type="line"/>
    </contour>
    <contour>
      <point x="673.25581" y="163.25581" type="curve" smooth="yes"/>
      <point x="673.25581" y="253.35915"/>
      <point x="600.10334" y="326.51163"/>
      <point x="510.0" y="326.51163" type="curve" smooth="yes"/>
      <point x="419.89666" y="326.51163"/>
      <point x="346.74419" y="253.35915"/>
      <point x="346.74419" y="163.25581" type="curve" smooth="yes"/>
      <point x="346.74419" y="73.15248"/>
      <point x="419.89666" y="0.0"/>
      <point x="510.0" y="0.0" type="curve" smooth="yes"/>
      <point x="600.10334" y="-0.0"/>
      <point x="673.25581" y="73.15248"/>
    </contour>
  </outline>
</glyph>
<glyph name="quotedbl" format="2">
  <advance width="1020"/>
  <unicode hex="0022"/>
  <outline>
    <contour>
      <point x="582.5581395348837" y="843.4883720930233" type="line"/>
      <point x="800.2325581395348" y="843.4883720930233" type="line"/>
      <point x="800.2325581395348" y="1278.8372093023256" type="line"/>
      <point x="582.5581395348837" y="1278.8372093023256" type="line"/>
    </contour>
    <contour>
      <point x="219.7674418604651" y="843.4883720930233" type="line"/>
      <point x="437.4418604651163" y="843.4883720930233" type="line"/>
      <point x="437.4418604651163" y="1278.8372093023256" type="line"/>
      <point x="219.7674418604651" y="1278.8372093023256" type="line"/>
    </contour>
  </outline>
</glyph>
<glyph name="numbersign" format="2">
  <advance width="980"/>
  <unicode hex="0023"/>
  <outline>
    <contour>
      <point x="100.57514953613281" y="-45" type="line"/>
      <point x="314.5056610107422" y="-45" type="line"/>
      <point x="375.73545837402344" y="270" type="line"/>
      <point x="481.80494689941406" y="270" type="line"/>
      <point x="420.5751495361328" y="-45" type="line"/>
      <point x="634.5056610107422" y="-45" type="line"/>
      <point x="695.7354583740234" y="270" type="line"/>
      <point x="885" y="270" type="line"/>
      <point x="885" y="480" type="line"/>
      <point x="736.5553207397461" y="480" type="line"/>
      <point x="777.3751907348633" y="690" type="line"/>
      <point x="965" y="690" type="line"/>
      <point x="965" y="900" type="line"/>
      <point x="818.1950531005859" y="900" type="line"/>
      <point x="879.4248504638672" y="1215" type="line"/>
      <point x="665.4943389892578" y="1215" type="line"/>
      <point x="604.2645416259766" y="900" type="line"/>
      <point x="498.19505310058594" y="900" type="line"/>
      <point x="559.4248504638672" y="1215" type="line"/>
      <point x="345.4943389892578" y="1215" type="line"/>
      <point x="284.26454162597656" y="900" type="line"/>
      <point x="95" y="900" type="line"/>
      <point x="95" y="690" type="line"/>
      <point x="243.4446792602539" y="690" type="line"/>
      <point x="202.62480926513672" y="480" type="line"/>
      <point x="15" y="480" type="line"/>
      <point x="15" y="270" type="line"/>
      <point x="161.80494689941406" y="270" type="line"/>
    </contour>
    <contour>
      <point x="416.5553207397461" y="480" type="line"/>
      <point x="457.3751907348633" y="690" type="line"/>
      <point x="563.4446792602539" y="690" type="line"/>
      <point x="522.6248092651367" y="480" type="line"/>
    </contour>
  </outline>
</glyph>
<glyph name="dollar" format="2">
  <advance width="1020"/>
  <unicode hex="0024"/>
  <outline>
    <contour>
      <point x="334.5" y="834.375" type="curve"/>
      <point x="334.5" y="881.2318990986408"/>
      <point x="370.41600472414086" y="922.1314963062292"/>
      <point x="423.5999984741211" y="943.7062835693359" type="curve"/>
      <point x="423.5999984741211" y="726.2753067016602" type="line"/>
      <point x="370.62865279303816" y="748.4479630180188"/>
      <point x="334.50000000000006" y="787.5770471886858"/>
    </contour>
    <contour>
      <point x="91.5" y="340.125" type="line"/>
      <point x="91.5" y="169.25695141352355"/>
      <point x="234.018304781254" y="26.412189346431006"/>
      <point x="423.5999984741211" y="-7.4091339111328125" type="curve"/>
      <point x="423.5999984741211" y="-108" type="line"/>
      <point x="596.4000015258789" y="-108" type="line"/>
      <point x="596.4000015258789" y="-7.4022674560546875" type="line"/>
      <point x="785.981695218746" y="26.412189346430946"/>
      <point x="928.5000000000001" y="169.25695141352344"/>
      <point x="928.5000000000001" y="340.12499999999994" type="curve"/>
      <point x="928.5" y="510.9876083812088"/>
      <point x="785.1697327333627" y="649.3124982371099"/>
      <point x="596.4000015258789" y="687.5517196655273" type="curve"/>
      <point x="596.4000015258789" y="943.7041091918945" type="line"/>
      <point x="649.5839952758591" y="922.1314963062291"/>
      <point x="685.5" y="881.2318990986407"/>
      <point x="685.5" y="834.375" type="curve"/>
      <point x="901.5" y="834.375" type="line"/>
      <point x="901.5" y="997.0208144103698"/>
      <point x="770.9628219739504" y="1133.2720502015763"/>
      <point x="596.4000015258789" y="1167.6307220458984" type="curve"/>
      <point x="596.4000015258789" y="1269" type="line"/>
      <point x="423.5999984741211" y="1269" type="line"/>
      <point x="423.5999984741211" y="1167.6355895996094" type="line"/>
      <point x="249.03717802604965" y="1133.2720502015763"/>
      <point x="118.50000000000006" y="997.0208144103698"/>
      <point x="118.50000000000009" y="834.375" type="curve"/>
      <point x="118.5" y="671.7437115246066"/>
      <point x="249.7494418167702" y="539.5552538451916"/>
      <point x="423.5999984741211" y="501.395263671875" type="curve"/>
      <point x="423.5999984741211" y="214.28858947753906" type="line"/>
      <point x="355.00184793667614" y="236.57299517737917"/>
      <point x="307.5" y="284.56785291946244"/>
      <point x="307.5" y="340.125" type="curve"/>
    </contour>
    <contour>
      <point x="712.5" y="340.1249999999999" type="curve"/>
      <point x="712.5" y="284.5678529194624"/>
      <point x="664.9981520633239" y="236.57299517737914"/>
      <point x="596.4000015258789" y="214.28795623779297" type="curve"/>
      <point x="596.4000015258789" y="464.7864532470703" type="line"/>
      <point x="664.6870206309676" y="441.2985531037018"/>
      <point x="712.4999999999999" y="395.62994023160127"/>
    </contour>
  </outline>
</glyph>
<glyph name="percent" format="2">
  <advance width="1020"/>
  <unicode hex="0025"/>
  <outline>
    <contour>
      <point x="591.0" y="919.5" type="curve" smooth="yes"/>
      <point x="591.0" y="1061.0662026300001"/>
      <point x="476.06620263" y="1176.0"/>
      <point x="334.5" y="1176.0" type="curve" smooth="yes"/>
      <point x="192.93379737" y="1176.0"/>
      <point x="78.0" y="1061.0662026300001"/>
      <point x="78.0" y="919.5" type="curve" smooth="yes"/>
      <point x="78.0" y="777.93379737"/>
      <point x="192.93379736999995" y="663.0"/>
      <point x="334.49999999999994" y="663.0" type="curve" smooth="yes"/>
      <point x="476.06620262999996" y="662.9999999999999"/>
      <point x="591.0" y="777.9337973699999"/>
    </contour>
    <contour>
      <point x="400.92" y="919.5" type="curve" smooth="yes"/>
      <point x="400.92" y="882.8418043715999"/>
      <point x="371.1581956284" y="853.0799999999999"/>
      <point x="334.5" y="853.0799999999999" type="curve" smooth="yes"/>
      <point x="297.8418043716" y="853.0799999999999"/>
      <point x="268.08" y="882.8418043715999"/>
      <point x="268.08" y="919.5" type="curve" smooth="yes"/>
      <point x="268.08" y="956.1581956283999"/>
      <point x="297.8418043716" y="985.9200000000001"/>
      <point x="334.5" y="985.9200000000001" type="curve" smooth="yes"/>
      <point x="371.1581956284" y="985.9200000000001"/>
      <point x="400.92" y="956.1581956283999"/>
    </contour>
    <contour>
      <point x="78.00000000000003" y="310.50000000001825" type="line"/>
      <point x="942.0" y="703.5967080159812" type="line"/>
      <point x="942.0" y="850.5000000000001" type="line"/>
      <point x="78.00000000000003" y="457.40329198403714" type="line"/>
    </contour>
    <contour>
      <point x="942.0" y="241.5" type="curve" smooth="yes"/>
      <point x="942.0" y="383.06620263"/>
      <point x="827.06620263" y="497.99999999999994"/>
      <point x="685.5" y="497.99999999999994" type="curve" smooth="yes"/>
      <point x="543.93379737" y="497.99999999999994"/>
      <point x="429.0" y="383.0662026300001"/>
      <point x="429.0" y="241.5" type="curve" smooth="yes"/>
      <point x="429.0" y="99.93379737"/>
      <point x="543.93379737" y="-15.000000000000018"/>
      <point x="685.5" y="-15.000000000000018" type="curve" smooth="yes"/>
      <point x="827.06620263" y="-15.00000000000007"/>
      <point x="942.0" y="99.93379736999991"/>
    </contour>
    <contour>
      <point x="751.92" y="241.5" type="curve" smooth="yes"/>
      <point x="751.92" y="204.84180437159998"/>
      <point x="722.1581956284001" y="175.07999999999998"/>
      <point x="685.5" y="175.07999999999998" type="curve" smooth="yes"/>
      <point x="648.8418043716" y="175.07999999999998"/>
      <point x="619.08" y="204.8418043716"/>
      <point x="619.08" y="241.5" type="curve" smooth="yes"/>
      <point x="619.08" y="278.1581956284"/>
      <point x="648.8418043716" y="307.92"/>
      <point x="685.5" y="307.92" type="curve" smooth="yes"/>
      <point x="722.1581956284001" y="307.92"/>
      <point x="751.92" y="278.1581956284"/>
    </contour>
  </outline>
</glyph>
<glyph name="ampersand" format="2">
  <advance width="1020"/>
  <unicode hex="0026"/>
  <outline>
    <contour>
      <point x="402.5764923095703" y="867.4217758178711" type="line"/>
      <point x="395.10333223849057" y="878.0945563103749"/>
      <point x="391.0947517999815" y="890.8081491940052"/>
      <point x="391.0947517999815" y="903.8372093023255" type="curve"/>
      <point x="391.0947517999815" y="938.8773954558139"/>
      <point x="419.5429377395164" y="967.3255813953486"/>
      <point x="454.58312389300477" y="967.3255813953486" type="curve" smooth="yes"/>
      <point x="489.6233100464931" y="967.3255813953486"/>
      <point x="518.071495986028" y="938.8773954558139"/>
      <point x="518.071495986028" y="903.8372093023255" type="curve"/>
      <point x="518.071495986028" y="883.4738102415262"/>
      <point x="508.30371036538884" y="864.346197649107"/>
      <point x="491.80777109947195" y="852.4066830423676" type="curve"/>
      <point x="439.5661926269531" y="814.5950088500977" type="line"/>
    </contour>
    <contour>
      <point x="339.63001029503647" y="473.554679008107" type="curve"/>
      <point x="388.07957458496094" y="508.6217498779297" type="line"/>
      <point x="577.8605270385742" y="237.5864715576172" type="line"/>
      <point x="537.204283115303" y="215.33079896675517"/>
      <point x="490.55774316362476" y="202.67441860465115"/>
      <point x="440.97847273021404" y="202.67441860465115" type="curve"/>
      <point x="350.87513690695823" y="202.67441860465115"/>
      <point x="277.72265877672567" y="269.7308568906977"/>
      <point x="277.72265877672567" y="352.3255813953488" type="curve"/>
      <point x="277.72265877672567" y="400.32502203866164"/>
      <point x="300.74672488251804" y="445.4115374350782"/>
    </contour>
    <contour>
      <point x="454.58312389300477" y="1184.9999999999998" type="curve" smooth="yes"/>
      <point x="299.40515664184204" y="1184.9999999999998"/>
      <point x="173.42033319533033" y="1059.0151765534883"/>
      <point x="173.42033319533033" y="903.8372093023255" type="curve"/>
      <point x="173.42033319533033" y="846.137085965478"/>
      <point x="191.172617994442" y="789.8340317665441"/>
      <point x="224.26804911500682" y="742.5688577794385" type="curve"/>
      <point x="263.2113723754883" y="686.9520263671875" type="line"/>
      <point x="212.00264739990234" y="649.8879089355469" type="line"/>
      <point x="116.56185697720116" y="580.8092916746846"/>
      <point x="60.04824017207454" y="470.14239024711674"/>
      <point x="60.04824017207454" y="352.32558139534893" type="curve"/>
      <point x="60.04824017207454" y="149.59307579302325"/>
      <point x="230.73735580928377" y="-15.000000000000007"/>
      <point x="440.978472730214" y="-15.000000000000007" type="curve"/>
      <point x="536.9911982903816" y="-15.000000000000007"/>
      <point x="626.7615890618058" y="11.939183101222874"/>
      <point x="703.1371688842773" y="58.672882080078125" type="curve"/>
      <point x="744.2203598022461" y="0" type="line"/>
      <point x="1009.9517593383789" y="0" type="line"/>
      <point x="861.5830459594727" y="211.8924789428711" type="line"/>
      <point x="913.8954533115201" y="291.2569005277682"/>
      <point x="944.3505657534698" y="386.28597463775577"/>
      <point x="944.3505657534698" y="488.37209302325584" type="curve"/>
      <point x="726.6761474609375" y="488.3720932006836" type="line"/>
      <point x="726.6761471488187" y="463.83458946601786"/>
      <point x="723.5760878173405" y="440.01543019336134"/>
      <point x="717.7465744018555" y="417.31224822998047" type="curve"/>
      <point x="564.4343948364258" y="636.2647323608398" type="line"/>
      <point x="619.4351348876953" y="676.0734481811523" type="line"/>
      <point x="692.4885782707057" y="728.9484434095007"/>
      <point x="735.7459145906791" y="813.6564420330712"/>
      <point x="735.7459145906791" y="903.8372093023255" type="curve"/>
      <point x="735.7459145906791" y="1059.0151765534883"/>
      <point x="609.7610911441675" y="1184.9999999999998"/>
    </contour>
  </outline>
</glyph>
<glyph name="quotesingle" format="2">
  <advance width="1020"/>
  <unicode hex="0027"/>
  <outline>
    <contour>
      <point x="401.16279069767444" y="843.4883720930233" type="line"/>
      <point x="618.8372093023256" y="843.4883720930233" type="line"/>
      <point x="618.8372093023256" y="1278.8372093023256" type="line"/>
      <point x="401.16279069767444" y="1278.8372093023256" type="line"/>
    </contour>
  </outline>
</glyph>
<glyph name="parenleft" format="2">
  <advance width="980"/>
  <unicode hex="0028"/>
  <outline>
    <contour>
      <point x="803.4893264770312" y="-255.0" type="line"/>
      <point x="442.9764185677295" y="246.9778774333164"/>
      <point x="442.97641856772975" y="923.0221225666846"/>
      <point x="803.4893233982957" y="1425.0000000000005" type="curve"/>
      <point x="552.8862304687304" y="1425.0" type="line"/>
      <point x="246.51067352296877" y="907.4653772011486"/>
      <point x="246.5107828776238" y="262.5338482644395"/>
      <point x="552.8865585326953" y="-255.0" type="curve"/>
    </contour>
  </outline>
</glyph>
<glyph name="parenright" format="2">
  <advance width="1020"/>
  <unicode hex="0029"/>
  <outline>
    <contour>
      <point x="185.62485586367697" y="-217.67441860465115" type="curve"/>
      <point x="453.18316147096255" y="-217.67441860465115" type="line"/>
      <point x="764.3744949742136" y="271.363349436475"/>
      <point x="764.3751454244541" y="898.6329635358446"/>
      <point x="453.18511282168475" y="1387.674418604651" type="curve"/>
      <point x="185.62485457554584" y="1387.6744186046515" type="line"/>
      <point x="563.3286895847509" y="919.2072925136805"/>
      <point x="563.3286895847513" y="250.79270748632055"/>
    </contour>
  </outline>
</glyph>
<glyph name="asterisk" format="2">
  <advance width="1020"/>
  <unicode hex="002A"/>
  <outline>
    <contour>
      <point x="90.34021759033203" y="382.2209014892578" type="line"/>
      <point x="199.17742919921875" y="193.7093276977539" type="line"/>
      <point x="401.1627883911133" y="310.3256301879883" type="line"/>
      <point x="401.1627883911133" y="77.093017578125" type="line"/>
      <point x="618.8372116088867" y="77.093017578125" type="line"/>
      <point x="618.8372116088867" y="310.3256301879883" type="line"/>
      <point x="820.8225708007812" y="193.7093276977539" type="line"/>
      <point x="929.659782409668" y="382.2209014892578" type="line"/>
      <point x="727.6744232177734" y="498.8372039794922" type="line"/>
      <point x="929.659782409668" y="615.4535064697266" type="line"/>
      <point x="820.8225708007812" y="803.965087890625" type="line"/>
      <point x="618.8372116088867" y="687.3487854003906" type="line"/>
      <point x="618.8372116088867" y="920.5813980102539" type="line"/>
      <point x="401.1627883911133" y="920.5813980102539" type="line"/>
      <point x="401.1627883911133" y="687.3487854003906" type="line"/>
      <point x="199.17742919921875" y="803.965087890625" type="line"/>
      <point x="90.34021759033203" y="615.4535064697266" type="line"/>
      <point x="292.32557678222656" y="498.8372039794922" type="line"/>
    </contour>
  </outline>
</glyph>
<glyph name="plus" format="2">
  <advance width="1020"/>
  <unicode hex="002B"/>
  <outline>
    <contour>
      <point x="91.5" y="387" type="line"/>
      <point x="402" y="387" type="line"/>
      <point x="402" y="76.5" type="line"/>
      <point x="618" y="76.5" type="line"/>
      <point x="618" y="387" type="line"/>
      <point x="928.5" y="387" type="line"/>
      <point x="928.5" y="603" type="line"/>
      <point x="618" y="603" type="line"/>
      <point x="618" y="913.5" type="line"/>
      <point x="402" y="913.5" type="line"/>
      <point x="402" y="603" type="line"/>
      <point x="91.5" y="603" type="line"/>
    </contour>
  </outline>
</glyph>
<glyph name="comma" format="2">
  <advance width="1020"/>
  <unicode hex="002C"/>
  <outline>
    <contour>
      <point x="519.4358520507812" y="-367.32557678222656" type="line"/>
      <point x="626.4299152251599" y="-182.0064130659485"/>
      <point x="632.4418612523698" y="-20.976802894593646"/>
      <point x="632.4418592898929" y="97.1686" type="curve"/>
      <point x="632.4418563842773" y="272.093017578125" type="line"/>
      <point x="387.55814361572266" y="272.093017578125" type="line"/>
      <point x="387.55814361572266" y="97.1686019897461" type="line"/>
      <point x="387.55814361572266" y="8.01388675049455"/>
      <point x="386.17517416483565" y="-108.37237816694744"/>
      <point x="307.36032" y="-244.88372" type="curve"/>
    </contour>
  </outline>
</glyph>
<glyph name="hyphen" format="2">
  <advance width="1020"/>
  <unicode hex="002D"/>
  <outline>
    <contour>
      <point x="88.25581395348837" y="390.0" type="line"/>
      <point x="931.7441860465117" y="390.0" type="line"/>
      <point x="931.7441860465117" y="607.6744186046511" type="line"/>
      <point x="88.25581395348837" y="607.6744186046511" type="line"/>
    </contour>
  </outline>
</glyph>
<glyph name="period" format="2">
  <advance width="1020"/>
  <unicode hex="002E"/>
  <outline>
    <contour>
      <point x="673.2558139534883" y="163.25581395348837" type="curve" smooth="yes"/>
      <point x="673.2558139534883" y="253.35914977674418"/>
      <point x="600.1033358232557" y="326.51162790697674"/>
      <point x="510.0" y="326.51162790697674" type="curve" smooth="yes"/>
      <point x="419.8966641767442" y="326.51162790697674"/>
      <point x="346.74418604651163" y="253.35914977674418"/>
      <point x="346.74418604651163" y="163.25581395348837" type="curve" smooth="yes"/>
      <point x="346.74418604651163" y="73.15247813023258"/>
      <point x="419.89666417674414" y="0.0"/>
      <point x="510.0" y="0.0" type="curve" smooth="yes"/>
      <point x="600.1033358232557" y="-2.577782948338968e-14"/>
      <point x="673.2558139534883" y="73.15247813023252"/>
    </contour>
  </outline>
</glyph>
<glyph name="slash" format="2">
  <advance width="1020"/>
  <unicode hex="002F"/>
  <outline>
    <contour>
      <point x="159.47529428032107" y="0.0" type="line"/>
      <point x="389.3376931351181" y="0.0" type="line"/>
      <point x="890.5247057196789" y="1377.0" type="line"/>
      <point x="660.6623068648819" y="1377.0" type="line"/>
    </contour>
  </outline>
</glyph>
<glyph name="zero" format="2">
  <advance width="1020"/>
  <unicode hex="0030"/>
  <outline>
    <contour>
      <point x="510.0" y="972.32558" type="curve" smooth="yes"/>
      <point x="583.9551057882934" y="972.32558"/>
      <point x="648.2167736791193" y="930.4929477668659"/>
      <point x="680.3929824829102" y="869.1862640380859" type="curve"/>
      <point x="317.67442321777344" y="544.2012100219727" type="line"/>
      <point x="317.67442321777344" y="737.25" type="line"/>
      <point x="317.67442321777344" y="943.3428719030734"/>
      <point x="443.85813158329177" y="972.32558"/>
    </contour>
    <contour>
      <point x="702.3255767822266" y="432.75" type="line"/>
      <point x="702.3255767822266" y="226.65712809692664"/>
      <point x="576.1418684167082" y="197.67442"/>
      <point x="510.0" y="197.67442" type="curve" smooth="yes"/>
      <point x="436.04489421170666" y="197.67442"/>
      <point x="371.78322632088054" y="239.507052233134"/>
      <point x="339.60701751708984" y="300.81373596191406" type="curve"/>
      <point x="702.3255767822266" y="625.7987899780273" type="line"/>
    </contour>
    <contour>
      <point x="100.0" y="432.75" type="line"/>
      <point x="100.00000000000001" y="92.85155009169148"/>
      <point x="338.27780304348727" y="-19.99999999999998"/>
      <point x="510.0" y="-20.0" type="curve" smooth="yes"/>
      <point x="681.7221969565128" y="-20.0"/>
      <point x="920.0" y="92.85155009169148"/>
      <point x="920.0" y="432.75" type="curve"/>
      <point x="920.0" y="737.25" type="line"/>
      <point x="920.0" y="1077.1484499083085"/>
      <point x="681.7221969565128" y="1190.0"/>
      <point x="510.0" y="1190.0" type="curve" smooth="yes"/>
      <point x="338.27780304348727" y="1190.0"/>
      <point x="100.00000000000001" y="1077.1484499083085"/>
      <point x="100.0" y="737.25" type="curve"/>
    </contour>
  </outline>
</glyph>
<glyph name="one" format="2">
  <advance width="1020"/>
  <unicode hex="0031"/>
  <outline>
    <contour>
      <point x="118.66278839111328" y="0" type="line"/>
      <point x="921.3372116088867" y="0" type="line"/>
      <point x="921.3372116088867" y="217.6744155883789" type="line"/>
      <point x="651.5116271972656" y="217.6744155883789" type="line"/>
      <point x="651.5116271972656" y="1170" type="line"/>
      <point x="433.8372116088867" y="1170" type="line"/>
      <point x="118.66278839111328" y="988.0339660644531" type="line"/>
      <point x="118.66278839111328" y="736.6851959228516" type="line"/>
      <point x="433.8372116088867" y="918.6512298583984" type="line"/>
      <point x="433.8372116088867" y="217.6744155883789" type="line"/>
      <point x="118.66278839111328" y="217.6744155883789" type="line"/>
    </contour>
  </outline>
</glyph>
<glyph name="two" format="2">
  <advance width="1020"/>
  <unicode hex="0032"/>
  <outline>
    <contour>
      <point x="142.60465240478516" y="0" type="line"/>
      <point x="903.5348815917969" y="0" type="line"/>
      <point x="903.5348815917969" y="217.67442321777344" type="line"/>
      <point x="463.95606994628906" y="217.67442321777344" type="line"/>
      <point x="776.2468414306641" y="505.2291793823242" type="line"/>
      <point x="857.37588" y="579.93212"/>
      <point x="903.53488" y="685.18162"/>
      <point x="903.53488" y="795.46512" type="curve"/>
      <point x="903.53488" y="1013.21484"/>
      <point x="726.74973" y="1190.0"/>
      <point x="509.0" y="1190.0" type="curve" smooth="yes"/>
      <point x="291.25027" y="1190.0"/>
      <point x="114.46512" y="1013.21484"/>
      <point x="114.46512" y="795.46512" type="curve"/>
      <point x="332.1395263671875" y="795.4651184082031" type="line"/>
      <point x="332.13953" y="893.07706"/>
      <point x="411.38805" y="972.32558"/>
      <point x="509.0" y="972.32558" type="curve" smooth="yes"/>
      <point x="606.61195" y="972.32558"/>
      <point x="685.86047" y="893.07706"/>
      <point x="685.86047" y="795.46512" type="curve"/>
      <point x="685.86047" y="746.02769"/>
      <point x="665.1685" y="698.84688"/>
      <point x="628.80031" y="665.35935" type="curve"/>
      <point x="142.60465240478516" y="217.67442321777344" type="line"/>
    </contour>
  </outline>
</glyph>
<glyph name="three" format="2">
  <advance width="1020"/>
  <unicode hex="0033"/>
  <outline>
    <contour>
      <point x="105" y="342.4186019897461" type="line"/>
      <point x="105.0" y="145.1539083167442"/>
      <point x="286.47441689999994" y="-14.999999999999966"/>
      <point x="509.99999999999994" y="-15.000000000000018" type="curve" smooth="yes"/>
      <point x="733.5255831" y="-15.00000000000007"/>
      <point x="915.0" y="145.1539083167441"/>
      <point x="915.0" y="342.4186046511627" type="curve"/>
      <point x="915.0" y="440.78287009605356"/>
      <point x="869.8776843459145" y="529.9198035582325"/>
      <point x="796.9191436767578" y="594.5638275146484" type="curve"/>
      <point x="861.8037642616157" y="656.3272312009988"/>
      <point x="901.5" y="739.057282312698"/>
      <point x="901.5" y="829.9186046511629" type="curve"/>
      <point x="901.5" y="1020.9261248867442"/>
      <point x="726.07473033" y="1176.0"/>
      <point x="510.0" y="1176.0" type="curve" smooth="yes"/>
      <point x="293.92526967000003" y="1176.0"/>
      <point x="118.5" y="1020.9261248867442"/>
      <point x="118.5" y="829.9186046511628" type="curve"/>
      <point x="334.5" y="829.9186019897461" type="line"/>
      <point x="334.5" y="901.7124805667441"/>
      <point x="413.13891399" y="959.9999999999999"/>
      <point x="510.0" y="959.9999999999999" type="curve" smooth="yes"/>
      <point x="606.86108601" y="959.9999999999999"/>
      <point x="685.5" y="901.7124805667441"/>
      <point x="685.5" y="829.9186046511628" type="curve"/>
      <point x="685.5" y="758.1247287355814"/>
      <point x="606.86108601" y="699.8372093023256"/>
      <point x="510.0" y="699.8372093023256" type="curve"/>
      <point x="415.5" y="699.8372116088867" type="line"/>
      <point x="415.5" y="483.8372116088867" type="line"/>
      <point x="510" y="483.8372116088867" type="line"/>
      <point x="614.31193878" y="483.83720930232545"/>
      <point x="699.0" y="420.46965666558134"/>
      <point x="699.0" y="342.41860465116275" type="curve"/>
      <point x="699.0" y="264.3675526367441"/>
      <point x="614.31193878" y="201.0"/>
      <point x="510.0" y="201.0" type="curve" smooth="yes"/>
      <point x="405.68806121999995" y="201.0"/>
      <point x="321.0" y="264.3675526367442"/>
      <point x="321.0" y="342.41860465116275" type="curve"/>
    </contour>
  </outline>
</glyph>
<glyph name="four" format="2">
  <advance width="1020"/>
  <unicode hex="0034"/>
  <outline>
    <contour>
      <point x="337.15706634521484" y="486.1295700073242" type="line"/>
      <point x="585" y="821.8354873657227" type="line"/>
      <point x="585" y="486.1295700073242" type="line"/>
    </contour>
    <contour>
      <point x="80.11627960205078" y="268.4551467895508" type="line"/>
      <point x="585" y="268.4551467895508" type="line"/>
      <point x="585" y="0" type="line"/>
      <point x="802.6744232177734" y="0" type="line"/>
      <point x="802.6744232177734" y="268.4551467895508" type="line"/>
      <point x="959.8837203979492" y="268.4551467895508" type="line"/>
      <point x="959.8837203979492" y="486.1295700073242" type="line"/>
      <point x="802.6744232177734" y="486.1295700073242" type="line"/>
      <point x="802.6744232177734" y="1170" type="line"/>
      <point x="585" y="1170" type="line"/>
      <point x="80.11627960205078" y="486.1295700073242" type="line"/>
    </contour>
  </outline>
</glyph>
<glyph name="five" format="2">
  <advance width="980"/>
  <unicode hex="0035"/>
  <outline>
    <contour>
      <point x="903.3846969604492" y="369.99999999999994" type="curve" smooth="yes"/>
      <point x="903.3846969604492" y="599.0447333"/>
      <point x="717.4294302604494" y="785.0"/>
      <point x="488.38469696044933" y="785.0" type="curve" smooth="yes"/>
      <point x="431.16000545807486" y="785.0"/>
      <point x="376.6249741659463" y="773.3926044763652"/>
      <point x="327.00768280029297" y="752.3958435058594" type="curve"/>
      <point x="353.5574493408203" y="1005" type="line"/>
      <point x="851.4183120727539" y="1005" type="line"/>
      <point x="851.4183120727539" y="1215" type="line"/>
      <point x="164.47260284423828" y="1215" type="line"/>
      <point x="86.61530303955078" y="474.23728942871094" type="line"/>
      <point x="311.8821487426758" y="474.23728942871094" type="line"/>
      <point x="347.5937175708352" y="534.5483571229843"/>
      <point x="413.30248947163557" y="575.0000000000001"/>
      <point x="488.3846969604493" y="575.0" type="curve" smooth="yes"/>
      <point x="601.5272760604493" y="575.0"/>
      <point x="693.3846969604492" y="483.1425790999999"/>
      <point x="693.3846969604492" y="369.99999999999994" type="curve" smooth="yes"/>
      <point x="693.3846969604492" y="256.85742089999997"/>
      <point x="601.5272760604491" y="165.0"/>
      <point x="488.3846969604492" y="165.0" type="curve" smooth="yes"/>
      <point x="413.30045290521167" y="165.0"/>
      <point x="347.59015294416315" y="205.45383736696803"/>
      <point x="311.87915802001953" y="265.76271057128906" type="curve"/>
      <point x="86.61530303955078" y="265.76271057128906" type="line"/>
      <point x="132.9130818996827" y="87.08685454050661"/>
      <point x="295.3453376457426" y="-45.000000000000114"/>
      <point x="488.3846969604492" y="-45.000000000000114" type="curve" smooth="yes"/>
      <point x="717.4294302604492" y="-45.0"/>
      <point x="903.3846969604492" y="140.9552666999999"/>
    </contour>
  </outline>
</glyph>
<glyph name="six" format="2">
  <advance width="1020"/>
  <unicode hex="0036"/>
  <outline>
    <contour>
      <point x="917.25" y="392.25" type="curve" smooth="yes"/>
      <point x="917.25" y="617.0173918950001"/>
      <point x="734.7673918950002" y="799.5"/>
      <point x="510.00000000000006" y="799.5" type="curve" smooth="yes"/>
      <point x="509.93441009521484" y="799.4995574951172" type="line"/>
      <point x="702.1476058959961" y="1161" type="line"/>
      <point x="457.5124740600586" y="1161" type="line"/>
      <point x="152.0517349243164" y="586.5119094848633" type="line"/>
      <point x="120.6154176726261" y="528.7665209565514"/>
      <point x="102.75000000000007" y="462.57814355220233"/>
      <point x="102.75000000000007" y="392.2500000000001" type="curve" smooth="yes"/>
      <point x="102.75" y="167.48260810500003"/>
      <point x="285.232608105" y="-14.999999999999966"/>
      <point x="510.0" y="-15.000000000000018" type="curve" smooth="yes"/>
      <point x="734.767391895" y="-15.00000000000007"/>
      <point x="917.25" y="167.4826081049999"/>
    </contour>
    <contour>
      <point x="701.25" y="392.25" type="curve" smooth="yes"/>
      <point x="701.25" y="286.69625242499995"/>
      <point x="615.553747575" y="200.99999999999997"/>
      <point x="510.00000000000006" y="201.0" type="curve" smooth="yes"/>
      <point x="404.446252425" y="201.0"/>
      <point x="318.75" y="286.696252425"/>
      <point x="318.75000000000006" y="392.25" type="curve" smooth="yes"/>
      <point x="318.75000000000006" y="497.80374757500005"/>
      <point x="404.44625242500007" y="583.5"/>
      <point x="510.00000000000006" y="583.5" type="curve" smooth="yes"/>
      <point x="615.553747575" y="583.5"/>
      <point x="701.25" y="497.80374757500005"/>
    </contour>
  </outline>
</glyph>
<glyph name="seven" format="2">
  <advance width="1020"/>
  <unicode hex="0037"/>
  <outline>
    <contour>
      <point x="218.3637924194336" y="0" type="line"/>
      <point x="457.71717834472656" y="0" type="line"/>
      <point x="893.1976699829102" y="952.3255767822266" type="line"/>
      <point x="893.1976699829102" y="1170" type="line"/>
      <point x="126.80233001708984" y="1170" type="line"/>
      <point x="126.80233001708984" y="952.3255767822266" type="line"/>
      <point x="653.8442764282227" y="952.3255767822266" type="line"/>
    </contour>
  </outline>
</glyph>
<glyph name="eight" format="2">
  <advance width="980"/>
  <unicode hex="0038"/>
  <outline>
    <contour>
      <point x="905.0" y="332.5" type="curve" smooth="yes"/>
      <point x="905.0" y="441.32220212131557"/>
      <point x="854.2699646757013" y="539.4514758404125"/>
      <point x="773.1670989990234" y="608.3607177734375" type="curve"/>
      <point x="842.3632309202467" y="672.7587501211863"/>
      <point x="885.0" y="760.6584655795835"/>
      <point x="885.0" y="857.5" type="curve" smooth="yes"/>
      <point x="885.0" y="1054.80961965"/>
      <point x="708.0064329" y="1215.0"/>
      <point x="490.0" y="1215.0" type="curve" smooth="yes"/>
      <point x="271.9935671" y="1215.0"/>
      <point x="95.0" y="1054.80961965"/>
      <point x="95.0" y="857.5" type="curve" smooth="yes"/>
      <point x="95.0" y="760.6598467469211"/>
      <point x="137.63555290544866" y="672.7612573987665"/>
      <point x="206.83001708984375" y="608.3645858764648" type="curve"/>
      <point x="125.72867556527564" y="539.4488455809206"/>
      <point x="75.0" y="441.3207436858753"/>
      <point x="75.0" y="332.50000000000017" type="curve" smooth="yes"/>
      <point x="75.0" y="124.15207995000003"/>
      <point x="260.9552666999999" y="-45.0"/>
      <point x="489.99999999999994" y="-45.0" type="curve" smooth="yes"/>
      <point x="719.0447333" y="-45.00000000000006"/>
      <point x="905.0" y="124.15207994999992"/>
    </contour>
    <contour>
      <point x="675.0" y="857.5" type="curve" smooth="yes"/>
      <point x="675.0" y="776.09253455"/>
      <point x="592.1042787" y="710.0"/>
      <point x="490.0" y="710.0" type="curve" smooth="yes"/>
      <point x="387.8957213" y="710.0"/>
      <point x="305.0" y="776.09253455"/>
      <point x="305.0" y="857.5" type="curve" smooth="yes"/>
      <point x="305.0" y="938.90746545"/>
      <point x="387.8957213" y="1005.0"/>
      <point x="490.0" y="1005.0" type="curve" smooth="yes"/>
      <point x="592.1042787" y="1005.0"/>
      <point x="675.0" y="938.90746545"/>
    </contour>
    <contour>
      <point x="695.0" y="332.5" type="curve" smooth="yes"/>
      <point x="695.0" y="240.05423414999996"/>
      <point x="603.1425790999999" y="165.0"/>
      <point x="490.0" y="165.0" type="curve" smooth="yes"/>
      <point x="376.85742089999997" y="165.0"/>
      <point x="285.0" y="240.05423415"/>
      <point x="285.0" y="332.5" type="curve" smooth="yes"/>
      <point x="285.0" y="424.94576585000004"/>
      <point x="376.8574209" y="500.0"/>
      <point x="490.0" y="500.0" type="curve" smooth="yes"/>
      <point x="603.1425791" y="500.0"/>
      <point x="695.0" y="424.94576585"/>
    </contour>
  </outline>
</glyph>
<glyph name="nine" format="2">
  <advance width="980"/>
  <unicode hex="0039"/>
  <outline>
    <contour>
      <point x="910.0000000000001" y="800.0000000000001" type="curve" smooth="yes"/>
      <point x="910.0" y="1029.0447333"/>
      <point x="724.0447333" y="1215.0"/>
      <point x="495.0" y="1215.0" type="curve" smooth="yes"/>
      <point x="265.95526670000004" y="1215.0"/>
      <point x="80.0" y="1029.0447333"/>
      <point x="80.0" y="800.0" type="curve" smooth="yes"/>
      <point x="80.0" y="571.9151931772603"/>
      <point x="264.3998558622693" y="386.5594338895968"/>
      <point x="492.12284088134766" y="385.01661682128906" type="curve"/>
      <point x="243.85263061523438" y="-45" type="line"/>
      <point x="486.3397445678711" y="-45" type="line"/>
      <point x="853.525032043457" y="590.9835739135742" type="line"/>
      <point x="853.5349782705999" y="591.0005368318537"/>
      <point x="853.544904753852" y="591.0175177536322"/>
      <point x="853.5548858642578" y="591.035285949707" type="curve"/>
      <point x="854.4005432128906" y="592.5" type="line"/>
      <point x="854.3993148803711" y="592.5007095336914" type="line"/>
      <point x="889.7558529383001" y="653.5452608730234"/>
      <point x="910.0" y="724.4271483371316"/>
    </contour>
    <contour>
      <point x="672.5352096557617" y="697.5" type="line"/>
      <point x="672.4881820678711" y="697.4185485839844" type="line"/>
      <point x="637.008684120904" y="636.205260186436"/>
      <point x="570.778373778016" y="595.0"/>
      <point x="495.0" y="595.0" type="curve" smooth="yes"/>
      <point x="381.85742089999997" y="595.0"/>
      <point x="290.0" y="686.8574209000001"/>
      <point x="290.0" y="800.0" type="curve" smooth="yes"/>
      <point x="290.0" y="913.1425791"/>
      <point x="381.8574209" y="1005.0"/>
      <point x="495.0" y="1005.0" type="curve" smooth="yes"/>
      <point x="608.1425791" y="1005.0"/>
      <point x="700.0" y="913.1425791"/>
      <point x="700.0" y="800.0" type="curve" smooth="yes"/>
      <point x="700.0" y="762.6700768794833"/>
      <point x="690.0005459309689" y="727.6572225345494"/>
      <point x="672.5362930297852" y="697.4993743896484" type="curve"/>
    </contour>
  </outline>
</glyph>
<glyph name="colon" format="2">
  <advance width="1020"/>
  <unicode hex="003A"/>
  <outline>
    <contour>
      <point x="673.25581" y="680.23256" type="curve" smooth="yes"/>
      <point x="673.25581" y="770.33589"/>
      <point x="600.10334" y="843.48837"/>
      <point x="510.0" y="843.48837" type="curve" smooth="yes"/>
      <point x="419.89666" y="843.48837"/>
      <point x="346.74419" y="770.33589"/>
      <point x="346.74419" y="680.23256" type="curve" smooth="yes"/>
      <point x="346.74419" y="590.12922"/>
      <point x="419.89666" y="516.97674"/>
      <point x="510.0" y="516.97674" type="curve" smooth="yes"/>
      <point x="600.10334" y="516.97674"/>
      <point x="673.25581" y="590.12922"/>
    </contour>
    <contour>
      <point x="673.25581" y="163.25581" type="curve" smooth="yes"/>
      <point x="673.25581" y="253.35915"/>
      <point x="600.10334" y="326.51163"/>
      <point x="510.0" y="326.51163" type="curve" smooth="yes"/>
      <point x="419.89666" y="326.51163"/>
      <point x="346.74419" y="253.35915"/>
      <point x="346.74419" y="163.25581" type="curve" smooth="yes"/>
      <point x="346.74419" y="73.15248"/>
      <point x="419.89666" y="0.0"/>
      <point x="510.0" y="0.0" type="curve" smooth="yes"/>
      <point x="600.10334" y="-0.0"/>
      <point x="673.25581" y="73.15248"/>
    </contour>
  </outline>
</glyph>
<glyph name="semicolon" format="2">
  <advance width="1020"/>
  <unicode hex="003B"/>
  <outline>
    <contour>
      <point x="673.2558139534883" y="680.2325581395348" type="curve" smooth="yes"/>
      <point x="673.2558139534883" y="770.3358939627907"/>
      <point x="600.1033358232557" y="843.4883720930233"/>
      <point x="510.0" y="843.4883720930233" type="curve" smooth="yes"/>
      <point x="419.8966641767442" y="843.4883720930233"/>
      <point x="346.74418604651163" y="770.3358939627907"/>
      <point x="346.74418604651163" y="680.2325581395348" type="curve" smooth="yes"/>
      <point x="346.74418604651163" y="590.1292223162791"/>
      <point x="419.89666417674414" y="516.9767441860465"/>
      <point x="510.0" y="516.9767441860465" type="curve" smooth="yes"/>
      <point x="600.1033358232557" y="516.9767441860465"/>
      <point x="673.2558139534883" y="590.1292223162791"/>
    </contour>
    <contour>
      <point x="519.4358444213867" y="-367.3255844116211" type="line"/>
      <point x="593.4674136494145" y="-239.09914555789172"/>
      <point x="632.4418604651163" y="-93.64452984480144"/>
      <point x="632.4418604651163" y="54.41860465116279" type="curve"/>
      <point x="632.4418640136719" y="272.09302520751953" type="line"/>
      <point x="387.5581359863281" y="272.09302520751953" type="line"/>
      <point x="387.5581359863281" y="54.418601989746094" type="line"/>
      <point x="387.5581395348837" y="-50.658458539521504"/>
      <point x="359.89885469793404" y="-153.88431485203714"/>
      <point x="307.3603231025919" y="-244.8837209302325" type="curve"/>
    </contour>
  </outline>
</glyph>
<glyph name="less" format="2">
  <advance width="1020"/>
  <unicode hex="003C"/>
  <outline>
    <contour>
      <point x="85.75581359863281" y="614.613655090332" type="line"/>
      <point x="85.75581359863281" y="383.0607604980469" type="line"/>
      <point x="929.2441864013672" y="77.09302520751953" type="line"/>
      <point x="929.2441864013672" y="308.64591217041016" type="line"/>
      <point x="404.927001953125" y="498.8372116088867" type="line"/>
      <point x="929.2441864013672" y="689.0285034179688" type="line"/>
      <point x="929.2441864013672" y="920.5813980102539" type="line"/>
    </contour>
  </outline>
</glyph>
<glyph name="equal" format="2">
  <advance width="1020"/>
  <unicode hex="003D"/>
  <outline>
    <contour>
      <point x="88.25581395348837" y="580.4651162790698" type="line"/>
      <point x="931.7441860465117" y="580.4651162790698" type="line"/>
      <point x="931.7441860465117" y="798.1395348837209" type="line"/>
      <point x="88.25581395348837" y="798.1395348837209" type="line"/>
    </contour>
    <contour>
      <point x="88.25581395348837" y="199.53488372093022" type="line"/>
      <point x="931.7441860465117" y="199.53488372093022" type="line"/>
      <point x="931.7441860465117" y="417.20930232558135" type="line"/>
      <point x="88.25581395348837" y="417.20930232558135" type="line"/>
    </contour>
  </outline>
</glyph>
<glyph name="greater" format="2">
  <advance width="980"/>
  <unicode hex="003E"/>
  <outline>
    <contour>
      <point x="925" y="602.0028076171875" type="line"/>
      <point x="55" y="925" type="line"/>
      <point x="55" y="700.994384765625" type="line"/>
      <point x="623.317985534668" y="490" type="line"/>
      <point x="55" y="279.005615234375" type="line"/>
      <point x="55" y="55" type="line"/>
      <point x="925" y="377.9971923828125" type="line"/>
    </contour>
  </outline>
</glyph>
<glyph name="question" format="2">
  <advance width="1020"/>
  <unicode hex="003F"/>
  <outline>
    <contour>
      <point x="396.1627883911133" y="377.30233001708984" type="line"/>
      <point x="613.8372116088867" y="377.30233001708984" type="line"/>
      <point x="613.8372116088867" y="453.2194290161133" type="line"/>
      <point x="768.5800831529303" y="499.942466989565"/>
      <point x="881.39535" y="643.7028061637501"/>
      <point x="881.3953500000001" y="813.60465" type="curve"/>
      <point x="881.39535" y="1021.3429"/>
      <point x="712.73825" y="1190.0"/>
      <point x="505.0" y="1190.0" type="curve" smooth="yes"/>
      <point x="297.26175" y="1190.0"/>
      <point x="128.60465" y="1021.3429"/>
      <point x="128.60465" y="813.60465" type="curve"/>
      <point x="346.27906799316406" y="813.6046524047852" type="line"/>
      <point x="346.27907" y="901.20512"/>
      <point x="417.39953" y="972.32558"/>
      <point x="505.0" y="972.32558" type="curve" smooth="yes"/>
      <point x="592.60047" y="972.32558"/>
      <point x="663.72093" y="901.20512"/>
      <point x="663.72093" y="813.60465" type="curve"/>
      <point x="663.72093" y="726.00419"/>
      <point x="592.60047" y="654.88372"/>
      <point x="505.0" y="654.88372" type="curve"/>
      <point x="396.1627883911133" y="654.8837203979492" type="line"/>
    </contour>
    <contour>
      <point x="668.25581" y="163.25581" type="curve" smooth="yes"/>
      <point x="668.25581" y="253.35915"/>
      <point x="595.10334" y="326.51163"/>
      <point x="505.0" y="326.51163" type="curve" smooth="yes"/>
      <point x="414.89666" y="326.51163"/>
      <point x="341.74419" y="253.35915"/>
      <point x="341.74419" y="163.25581" type="curve" smooth="yes"/>
      <point x="341.74419" y="73.15248"/>
      <point x="414.89666" y="0.0"/>
      <point x="505.0" y="0.0" type="curve" smooth="yes"/>
      <point x="595.10334" y="-0.0"/>
      <point x="668.25581" y="73.15248"/>
    </contour>
  </outline>
</glyph>
<glyph name="at" format="2">
  <advance width="1020"/>
  <unicode hex="0040"/>
  <outline>
    <contour>
      <point x="88.25581359863281" y="406.7441864013672" type="line"/>
      <point x="88.25581395348837" y="173.97723516976745"/>
      <point x="277.2330491232558" y="-14.999999999999956"/>
      <point x="510.0" y="-15.000000000000007" type="curve" smooth="yes"/>
      <point x="700.6966521752814" y="-15.00000000000005"/>
      <point x="862.0022187289253" y="111.83905363948345"/>
      <point x="914.0815003860829" y="285.6976744186046" type="curve"/>
      <point x="674.2527542114258" y="285.6976776123047" type="line"/>
      <point x="637.0743894707937" y="235.34496732964843"/>
      <point x="577.3223967978922" y="202.67441860465112"/>
      <point x="510.00000000000006" y="202.67441860465115" type="curve" smooth="yes"/>
      <point x="397.3708302209302" y="202.67441860465118"/>
      <point x="305.93023255813955" y="294.1150162674419"/>
      <point x="305.93023255813955" y="406.7441860465116" type="curve"/>
      <point x="305.9302291870117" y="763.2558135986328" type="line"/>
      <point x="305.93023255813955" y="875.8849837325581"/>
      <point x="397.37083022093026" y="967.3255813953486"/>
      <point x="510.00000000000006" y="967.3255813953486" type="curve" smooth="yes"/>
      <point x="622.6291697790698" y="967.3255813953486"/>
      <point x="714.0697674418604" y="875.8849837325581"/>
      <point x="714.0697674418604" y="763.2558139534883" type="curve"/>
      <point x="714.0697708129883" y="565.4651184082031" type="line"/>
      <point x="609.7674407958984" y="565.4651184082031" type="line"/>
      <point x="609.7674407958984" y="722.4418640136719" type="line"/>
      <point x="609.7674418604652" y="777.5050101348837"/>
      <point x="565.0631496697674" y="822.2093023255813"/>
      <point x="510.00000000000006" y="822.2093023255813" type="curve" smooth="yes"/>
      <point x="454.9368503302326" y="822.2093023255813"/>
      <point x="410.23255813953494" y="777.5050101348837"/>
      <point x="410.23255813953494" y="722.4418604651163" type="curve" smooth="yes"/>
      <point x="410.23255920410156" y="447.5581359863281" type="line"/>
      <point x="410.23255813953494" y="392.4949898651163"/>
      <point x="454.9368503302326" y="347.7906976744186"/>
      <point x="510.00000000000006" y="347.7906976744186" type="curve" smooth="yes"/>
      <point x="714.0697708129883" y="347.7906951904297" type="line"/>
      <point x="834.207548539535" y="347.7906976744186"/>
      <point x="931.7441860465117" y="445.32733518139537"/>
      <point x="931.7441860465117" y="565.4651162790698" type="curve"/>
      <point x="931.7441864013672" y="763.2558135986328" type="line"/>
      <point x="931.7441860465117" y="996.0227648302324"/>
      <point x="742.7669508767442" y="1184.9999999999998"/>
      <point x="510.00000000000006" y="1184.9999999999998" type="curve" smooth="yes"/>
      <point x="277.2330491232559" y="1184.9999999999998"/>
      <point x="88.25581395348843" y="996.0227648302326"/>
      <point x="88.25581395348843" y="763.2558139534883" type="curve"/>
    </contour>
  </outline>
</glyph>
<glyph name="A" format="2">
  <advance width="1020"/>
  <unicode hex="0041"/>
  <outline>
    <contour>
      <point x="47.441864013671875" y="0" type="line"/>
      <point x="274.59305572509766" y="0" type="line"/>
      <point x="342.61180114746094" y="228.03986358642578" type="line"/>
      <point x="677.3881988525391" y="228.03986358642578" type="line"/>
      <point x="745.4069442749023" y="0" type="line"/>
      <point x="972.5581359863281" y="0" type="line"/>
      <point x="623.5755996704102" y="1170" type="line"/>
      <point x="396.42440032958984" y="1170" type="line"/>
    </contour>
    <contour>
      <point x="407.5387878417969" y="445.7142868041992" type="line"/>
      <point x="510" y="789.2260818481445" type="line"/>
      <point x="612.4612121582031" y="445.7142868041992" type="line"/>
    </contour>
  </outline>
</glyph>
<glyph name="B" format="2">
  <advance width="980"/>
  <unicode hex="0042"/>
  <outline>
    <contour>
      <point x="75" y="-45" type="line"/>
      <point x="577.5" y="-45" type="line"/>
      <point x="780.3287698500001" y="-45.0"/>
      <point x="945.0" y="119.67123015000001"/>
      <point x="945.0" y="322.5" type="curve" smooth="yes"/>
      <point x="945.0" y="437.07229288270923"/>
      <point x="892.4566419041217" y="539.4692636360551"/>
      <point x="810.1726684570312" y="606.8764495849609" type="curve"/>
      <point x="866.1224403727307" y="671.3547848670208"/>
      <point x="900.0" y="755.502346372826"/>
      <point x="900.0" y="847.5000000000001" type="curve" smooth="yes"/>
      <point x="900.0" y="1050.32876985"/>
      <point x="735.3287698500001" y="1215.0"/>
      <point x="532.5" y="1215.0" type="curve"/>
      <point x="75" y="1215" type="line"/>
    </contour>
    <contour>
      <point x="532.5" y="1005" type="line"/>
      <point x="619.42661565" y="1005.0"/>
      <point x="690.0" y="934.42661565"/>
      <point x="690.0" y="847.5" type="curve" smooth="yes"/>
      <point x="690.0" y="760.57338435"/>
      <point x="619.42661565" y="690.0"/>
      <point x="532.5" y="690.0" type="curve"/>
      <point x="285" y="690" type="line"/>
      <point x="285" y="1005" type="line"/>
    </contour>
    <contour>
      <point x="577.5" y="480" type="line"/>
      <point x="664.42661565" y="480.0"/>
      <point x="735.0" y="409.42661565000003"/>
      <point x="735.0" y="322.5" type="curve" smooth="yes"/>
      <point x="735.0" y="235.57338435000003"/>
      <point x="664.42661565" y="165.0"/>
      <point x="577.5" y="165.0" type="curve"/>
      <point x="285" y="165" type="line"/>
      <point x="285" y="480" type="line"/>
    </contour>
  </outline>
</glyph>
<glyph name="C" format="2">
  <advance width="1020"/>
  <unicode hex="0043"/>
  <outline>
    <contour>
      <point x="70.75581312746566" y="464.4941864013672" type="line"/>
      <point x="70.7558170856861" y="105.3564145662586"/>
      <point x="325.1291541760428" y="-19.99999999999998"/>
      <point x="512.5" y="-20.0" type="curve" smooth="yes"/>
      <point x="756.3052500000001" y="-20.0"/>
      <point x="954.24419" y="177.9389299999999"/>
      <point x="954.24419" y="421.74419" type="curve"/>
      <point x="736.5697708129883" y="421.7441864013672" type="line"/>
      <point x="736.56977" y="298.07671999999997"/>
      <point x="636.16747" y="197.67442"/>
      <point x="512.5" y="197.67442" type="curve" smooth="yes"/>
      <point x="456.783027669508" y="197.67442"/>
      <point x="288.43023050526574" y="218.81982748322315"/>
      <point x="288.43022989355586" y="464.49419" type="curve"/>
      <point x="288.43022929345585" y="705.5058135986328" type="line"/>
      <point x="288.43022868509354" y="949.8357403222094"/>
      <point x="454.9613442623546" y="972.32558"/>
      <point x="512.5" y="972.32558" type="curve" smooth="yes"/>
      <point x="636.1674667612305" y="972.32558"/>
      <point x="736.56977" y="871.92328"/>
      <point x="736.56977" y="748.25581" type="curve"/>
      <point x="954.2441864013672" y="748.2558135986328" type="line"/>
      <point x="954.2441899999999" y="992.0610642387696"/>
      <point x="756.3052590000001" y="1190.0"/>
      <point x="512.5" y="1190.0" type="curve" smooth="yes"/>
      <point x="325.1291541760428" y="1190.0"/>
      <point x="70.75580651294675" y="1064.64358201504"/>
      <point x="70.75581047116715" y="705.50581" type="curve"/>
    </contour>
  </outline>
</glyph>
<glyph name="D" format="2">
  <advance width="1020"/>
  <unicode hex="0044"/>
  <outline>
    <contour>
      <point x="110.8604736328125" y="0" type="line"/>
      <point x="462.64534759521484" y="0.0" type="line"/>
      <point x="559.9392879063921" y="0.0"/>
      <point x="927.1395344548876" y="21.3457259643572"/>
      <point x="927.1395295243577" y="464.49419" type="curve"/>
      <point x="927.1395268428298" y="705.5058135986328" type="line"/>
      <point x="927.1395257603243" y="802.7997538847924"/>
      <point x="905.7938140423317" y="1170.0"/>
      <point x="462.64535" y="1170.0" type="curve"/>
      <point x="110.8604736328125" y="1170" type="line"/>
    </contour>
    <contour>
      <point x="709.4651186166163" y="464.4941864013672" type="line"/>
      <point x="709.4651174645729" y="228.18543133885942"/>
      <point x="562.7110369155171" y="217.6744189572068"/>
      <point x="462.64535" y="217.67442077778722" type="curve"/>
      <point x="328.5348815917969" y="217.67442321777344" type="line"/>
      <point x="328.5348815917969" y="952.3255767822266" type="line"/>
      <point x="462.64534759521484" y="952.3255767822266" type="line"/>
      <point x="564.2498943422733" y="952.3255767822266"/>
      <point x="709.465120938745" y="940.812537219419"/>
      <point x="709.4651197915869" y="705.50581" type="curve"/>
    </contour>
  </outline>
</glyph>
<glyph name="E" format="2">
  <advance width="980"/>
  <unicode hex="0045"/>
  <outline>
    <contour>
      <point x="70" y="-45" type="line"/>
      <point x="940" y="-45" type="line"/>
      <point x="940" y="165" type="line"/>
      <point x="280" y="165" type="line"/>
      <point x="280" y="480" type="line"/>
      <point x="880" y="480" type="line"/>
      <point x="880" y="690" type="line"/>
      <point x="280" y="690" type="line"/>
      <point x="280" y="1005" type="line"/>
      <point x="940" y="1005" type="line"/>
      <point x="940" y="1215" type="line"/>
      <point x="70" y="1215" type="line"/>
    </contour>
  </outline>
</glyph>
<glyph name="F" format="2">
  <advance width="1020"/>
  <unicode hex="0046"/>
  <outline>
    <contour>
      <point x="123.5" y="0" type="line"/>
      <point x="339.5" y="0" type="line"/>
      <point x="339.5" y="472.5" type="line"/>
      <point x="852.5" y="472.5" type="line"/>
      <point x="852.5" y="688.5" type="line"/>
      <point x="339.5" y="688.5" type="line"/>
      <point x="339.5" y="945" type="line"/>
      <point x="906.5" y="945" type="line"/>
      <point x="906.5" y="1161" type="line"/>
      <point x="123.5" y="1161" type="line"/>
    </contour>
  </outline>
</glyph>
<glyph name="H" format="2">
  <advance width="1020"/>
  <unicode hex="0048"/>
  <outline>
    <contour>
      <point x="101.86046600341797" y="0" type="line"/>
      <point x="319.5348815917969" y="0" type="line"/>
      <point x="319.5348815917969" y="476.1627883911133" type="line"/>
      <point x="700.4651184082031" y="476.1627883911133" type="line"/>
      <point x="700.4651184082031" y="0" type="line"/>
      <point x="918.139533996582" y="0" type="line"/>
      <point x="918.139533996582" y="1170" type="line"/>
      <point x="700.4651184082031" y="1170" type="line"/>
      <point x="700.4651184082031" y="693.8372116088867" type="line"/>
      <point x="319.5348815917969" y="693.8372116088867" type="line"/>
      <point x="319.5348815917969" y="1170" type="line"/>
      <point x="101.86046600341797" y="1170" type="line"/>
    </contour>
  </outline>
</glyph>
<glyph name="I" format="2">
  <advance width="1020"/>
  <unicode hex="0049"/>
  <outline>
    <contour>
      <point x="129.06977081298828" y="0" type="line"/>
      <point x="890.9302291870117" y="0" type="line"/>
      <point x="890.9302291870117" y="217.6744155883789" type="line"/>
      <point x="618.8372116088867" y="217.6744155883789" type="line"/>
      <point x="618.8372116088867" y="952.3255844116211" type="line"/>
      <point x="890.9302291870117" y="952.3255844116211" type="line"/>
      <point x="890.9302291870117" y="1170" type="line"/>
      <point x="129.06977081298828" y="1170" type="line"/>
      <point x="129.06977081298828" y="952.3255844116211" type="line"/>
      <point x="401.1627883911133" y="952.3255844116211" type="line"/>
      <point x="401.1627883911133" y="217.6744155883789" type="line"/>
      <point x="129.06977081298828" y="217.6744155883789" type="line"/>
    </contour>
  </outline>
</glyph>
<glyph name="J" format="2">
  <advance width="1020"/>
  <unicode hex="004A"/>
  <outline>
    <contour>
      <point x="100" y="390" type="line"/>
      <point x="100.0" y="166.47441690000002"/>
      <point x="281.4744169" y="-14.999999999999966"/>
      <point x="505.0" y="-15.000000000000018" type="curve" smooth="yes"/>
      <point x="728.5255831" y="-15.00000000000007"/>
      <point x="910.0" y="166.4744168999999"/>
      <point x="910.0" y="389.99999999999994" type="curve"/>
      <point x="910" y="1161" type="line"/>
      <point x="694" y="1161" type="line"/>
      <point x="694" y="390" type="line"/>
      <point x="694.0" y="285.68806121999995"/>
      <point x="609.31193878" y="201.0"/>
      <point x="505.00000000000006" y="201.0" type="curve" smooth="yes"/>
      <point x="400.68806122" y="201.0"/>
      <point x="316.00000000000006" y="285.68806122"/>
      <point x="316.00000000000006" y="390.0" type="curve"/>
    </contour>
  </outline>
</glyph>
<glyph name="K" format="2">
  <advance width="1020"/>
  <unicode hex="004B"/>
  <outline>
    <contour>
      <point x="116" y="0" type="line"/>
      <point x="332" y="0" type="line"/>
      <point x="332" y="472.5" type="line"/>
      <point x="746.6275329589844" y="0" type="line"/>
      <point x="1034" y="0" type="line"/>
      <point x="524.600456237793" y="580.5" type="line"/>
      <point x="1034" y="1161" type="line"/>
      <point x="746.6275329589844" y="1161" type="line"/>
      <point x="332" y="688.5" type="line"/>
      <point x="332" y="1161" type="line"/>
      <point x="116" y="1161" type="line"/>
    </contour>
  </outline>
</glyph>
<glyph name="L" format="2">
  <advance width="980"/>
  <unicode hex="004C"/>
  <outline>
    <contour>
      <point x="95" y="-45" type="line"/>
      <point x="965" y="-45" type="line"/>
      <point x="965" y="165" type="line"/>
      <point x="305" y="165" type="line"/>
      <point x="305" y="1215" type="line"/>
      <point x="95" y="1215" type="line"/>
    </contour>
  </outline>
</glyph>
<glyph name="M" format="2">
  <advance width="1020"/>
  <unicode hex="004D"/>
  <outline>
    <contour>
      <point x="74.65116119384766" y="0" type="line"/>
      <point x="292.32557678222656" y="0" type="line"/>
      <point x="292.32557678222656" y="711.4943237304688" type="line"/>
      <point x="458.30233001708984" y="361.8837203979492" type="line"/>
      <point x="561.6976699829102" y="361.8837203979492" type="line"/>
      <point x="727.6744232177734" y="711.4943237304688" type="line"/>
      <point x="727.6744232177734" y="0" type="line"/>
      <point x="945.3488388061523" y="0" type="line"/>
      <point x="945.3488388061523" y="1170" type="line"/>
      <point x="720.4534912109375" y="1170" type="line"/>
      <point x="510" y="726.7043609619141" type="line"/>
      <point x="299.5465087890625" y="1170" type="line"/>
      <point x="74.65116119384766" y="1170" type="line"/>
    </contour>
  </outline>
</glyph>
<glyph name="N" format="2">
  <advance width="1020"/>
  <unicode hex="004E"/>
  <outline>
    <contour>
      <point x="101.8604736328125" y="0" type="line"/>
      <point x="319.5348815917969" y="0" type="line"/>
      <point x="319.5348815917969" y="712.7920989990234" type="line"/>
      <point x="700.4651184082031" y="0" type="line"/>
      <point x="918.1395263671875" y="0" type="line"/>
      <point x="918.1395263671875" y="1170" type="line"/>
      <point x="700.4651184082031" y="1170" type="line"/>
      <point x="700.4651184082031" y="457.20790100097656" type="line"/>
      <point x="319.5348815917969" y="1170" type="line"/>
      <point x="101.8604736328125" y="1170" type="line"/>
    </contour>
  </outline>
</glyph>
<glyph name="O" format="2">
  <advance width="1020"/>
  <unicode hex="004F"/>
  <outline>
    <contour>
      <point x="734.0697707065441" y="464.4941864013672" type="line"/>
      <point x="734.0697713149065" y="220.1642596777906"/>
      <point x="567.5386557376454" y="197.67442"/>
      <point x="510.0" y="197.67442" type="curve" smooth="yes"/>
      <point x="454.283027669508" y="197.67442"/>
      <point x="285.93023050526574" y="218.81982748322315"/>
      <point x="285.93022989355586" y="464.49419" type="curve"/>
      <point x="285.93022929345585" y="705.5058135986328" type="line"/>
      <point x="285.93022868509354" y="949.8357403222094"/>
      <point x="452.4613442623546" y="972.32558"/>
      <point x="510.0" y="972.32558" type="curve" smooth="yes"/>
      <point x="565.716972330492" y="972.32558"/>
      <point x="734.0697694947343" y="951.1801725167768"/>
      <point x="734.0697701064441" y="705.50581" type="curve"/>
    </contour>
    <contour>
      <point x="68.25581312746566" y="464.4941864013672" type="line"/>
      <point x="68.2558170856861" y="105.3564145662586"/>
      <point x="322.6291541760428" y="-19.99999999999998"/>
      <point x="510.0" y="-20.0" type="curve" smooth="yes"/>
      <point x="697.3708458239572" y="-20.0"/>
      <point x="951.7441934870533" y="105.35641798495988"/>
      <point x="951.7441895288329" y="464.49419" type="curve"/>
      <point x="951.7441868725343" y="705.5058135986328" type="line"/>
      <point x="951.7441829143139" y="1064.6435854337415"/>
      <point x="697.3708458239572" y="1190.0"/>
      <point x="510.0" y="1190.0" type="curve" smooth="yes"/>
      <point x="322.6291541760428" y="1190.0"/>
      <point x="68.25580651294675" y="1064.64358201504"/>
      <point x="68.25581047116715" y="705.50581" type="curve"/>
    </contour>
  </outline>
</glyph>
<glyph name="P" format="2">
  <advance width="1020"/>
  <unicode hex="0050"/>
  <outline>
    <contour>
      <point x="129.3604736328125" y="0" type="line"/>
      <point x="347.0348815917969" y="0" type="line"/>
      <point x="347.0348815917969" y="380.9302291870117" type="line"/>
      <point x="508.35465240478516" y="380.9302291870117" type="line"/>
      <point x="838.8919960177834" y="380.9302291870117"/>
      <point x="945.63953" y="611.385281383606"/>
      <point x="945.63953" y="775.46512" type="curve" smooth="yes"/>
      <point x="945.63953" y="939.5449581163939"/>
      <point x="838.8919937332375" y="1170.0"/>
      <point x="508.35465" y="1170.0" type="curve"/>
      <point x="129.3604736328125" y="1170" type="line"/>
    </contour>
    <contour>
      <point x="508.35465240478516" y="952.3255767822266" type="line"/>
      <point x="696.73432415718" y="952.3255767822266"/>
      <point x="727.96512" y="843.7417850706845"/>
      <point x="727.96512" y="775.46512" type="curve" smooth="yes"/>
      <point x="727.96512" y="707.1884544293155"/>
      <point x="696.7343218726343" y="598.6046482838807"/>
      <point x="508.35465" y="598.6046505037716" type="curve"/>
      <point x="347.0348815917969" y="598.6046524047852" type="line"/>
      <point x="347.0348815917969" y="952.3255767822266" type="line"/>
    </contour>
  </outline>
</glyph>
<glyph name="Q" format="2">
  <advance width="1020"/>
  <unicode hex="0051"/>
  <outline>
    <contour>
      <point x="656.9077682495117" y="486" type="line"/>
      <point x="407.4924545288086" y="486" type="line"/>
      <point x="565.8887634277344" y="211.64954376220703" type="line"/>
      <point x="545.5148398202243" y="204.7401475063268"/>
      <point x="523.6907525172304" y="201.0"/>
      <point x="501.00000000000017" y="201.0" type="curve" smooth="yes"/>
      <point x="389.23720845" y="201.0"/>
      <point x="298.5" y="291.73720844999997"/>
      <point x="298.50000000000006" y="403.5" type="curve"/>
      <point x="298.5" y="757.5" type="line"/>
      <point x="298.50000000000006" y="869.2627915500001"/>
      <point x="389.2372084500001" y="959.9999999999999"/>
      <point x="501.00000000000006" y="959.9999999999999" type="curve" smooth="yes"/>
      <point x="612.76279155" y="959.9999999999999"/>
      <point x="703.5" y="869.2627915500001"/>
      <point x="703.5" y="757.5" type="curve"/>
      <point x="703.5" y="405.29988861083984" type="line"/>
    </contour>
    <contour>
      <point x="82.5" y="403.5" type="line"/>
      <point x="82.5" y="172.52356413"/>
      <point x="270.02356412999995" y="-14.999999999999966"/>
      <point x="501.0" y="-15.000000000000018" type="curve" smooth="yes"/>
      <point x="563.0388848160668" y="-15.000000000000032"/>
      <point x="621.9429605414263" y="-1.47153686242069"/>
      <point x="674.9204864501953" y="22.801063537597656" type="curve"/>
      <point x="688.0846862792969" y="0" type="line"/>
      <point x="937.5" y="0" type="line"/>
      <point x="843.4149780273438" y="162.9600372314453" type="line"/>
      <point x="891.3443447428449" y="231.0244066361783"/>
      <point x="919.5" y="314.00009574691296"/>
      <point x="919.5" y="403.49999999999994" type="curve"/>
      <point x="919.5" y="757.5" type="line"/>
      <point x="919.5" y="988.4764358699999"/>
      <point x="731.9764358700002" y="1176.0"/>
      <point x="501.00000000000006" y="1176.0" type="curve" smooth="yes"/>
      <point x="270.02356413000007" y="1176.0"/>
      <point x="82.50000000000006" y="988.4764358700002"/>
      <point x="82.50000000000006" y="757.5" type="curve"/>
    </contour>
  </outline>
</glyph>
<glyph name="R" format="2">
  <advance width="1020"/>
  <unicode hex="0052"/>
  <outline>
    <contour>
      <point x="113.25" y="0" type="line"/>
      <point x="329.25" y="0" type="line"/>
      <point x="329.25" y="351" type="line"/>
      <point x="531.75" y="351" type="line"/>
      <point x="540.8217857901135" y="351.0"/>
      <point x="549.8243073287684" y="351.29891417483327"/>
      <point x="558.7482452392578" y="351.89173126220703" type="curve"/>
      <point x="703.2478637695312" y="0" type="line"/>
      <point x="936.75" y="0" type="line"/>
      <point x="762.8614654541016" y="423.4608917236328" type="line"/>
      <point x="867.9349397176617" y="496.65526154061274"/>
      <point x="936.7500000000001" y="618.3547341316848"/>
      <point x="936.7500000000002" y="756.0" type="curve" smooth="yes"/>
      <point x="936.75" y="979.5255831"/>
      <point x="755.2755831000001" y="1161.0"/>
      <point x="531.75" y="1161.0" type="curve"/>
      <point x="113.25" y="1161" type="line"/>
    </contour>
    <contour>
      <point x="531.75" y="945" type="line"/>
      <point x="636.0619387800001" y="945.0"/>
      <point x="720.75" y="860.3119387800001"/>
      <point x="720.75" y="756.0" type="curve" smooth="yes"/>
      <point x="720.75" y="651.68806122"/>
      <point x="636.0619387800001" y="567.0"/>
      <point x="531.75" y="567.0" type="curve"/>
      <point x="329.25" y="567" type="line"/>
      <point x="329.25" y="945" type="line"/>
    </contour>
  </outline>
</glyph>
<glyph name="S" format="2">
  <advance width="1020"/>
  <unicode hex="0053"/>
  <outline>
    <contour>
      <point x="91.5" y="340.125" type="line"/>
      <point x="91.5" y="144.1261785225"/>
      <point x="279.02356412999995" y="-14.999999999999966"/>
      <point x="509.99999999999994" y="-15.000000000000018" type="curve" smooth="yes"/>
      <point x="740.9764358699999" y="-15.00000000000007"/>
      <point x="928.5" y="144.12617852249986"/>
      <point x="928.5" y="340.12499999999994" type="curve"/>
      <point x="928.5" y="512.2288211558921"/>
      <point x="783.0797548524214" y="651.3204732876766"/>
      <point x="592.2790969848634" y="688.3743370056153" type="curve"/>
      <point x="472.277099609375" y="711.6789627075195" type="line"/>
      <point x="394.01895876725143" y="726.8768465059463"/>
      <point x="334.50000000000006" y="774.3090107593234"/>
      <point x="334.50000000000006" y="834.375" type="curve"/>
      <point x="334.5" y="903.7093243875"/>
      <point x="413.13891399" y="960.0000000000001"/>
      <point x="510.0" y="960.0000000000001" type="curve" smooth="yes"/>
      <point x="606.86108601" y="960.0000000000001"/>
      <point x="685.5" y="903.7093243875"/>
      <point x="685.5" y="834.375" type="curve"/>
      <point x="901.5" y="834.375" type="line"/>
      <point x="901.5" y="1022.9229687075"/>
      <point x="726.07473033" y="1176.0"/>
      <point x="510.0" y="1176.0" type="curve" smooth="yes"/>
      <point x="293.92526967000003" y="1176.0"/>
      <point x="118.5" y="1022.9229687075"/>
      <point x="118.5" y="834.375" type="curve"/>
      <point x="118.5" y="668.1854265177728"/>
      <point x="255.55560646908762" y="533.7854027122039"/>
      <point x="435.0716766357422" y="499.01891555786136" type="curve"/>
      <point x="555.0845260620117" y="475.7762908935547" type="line"/>
      <point x="644.6090710284027" y="458.43826378811224"/>
      <point x="712.4999999999999" y="406.2650641222699"/>
      <point x="712.5" y="340.125" type="curve"/>
      <point x="712.5" y="263.3398228424999"/>
      <point x="621.76279155" y="200.99999999999997"/>
      <point x="510.0" y="201.0" type="curve" smooth="yes"/>
      <point x="398.23720845" y="201.0"/>
      <point x="307.5" y="263.3398228425"/>
      <point x="307.5" y="340.125" type="curve"/>
    </contour>
  </outline>
</glyph>
<glyph name="T" format="2">
  <advance width="1020"/>
  <unicode hex="0054"/>
  <outline>
    <contour>
      <point x="402" y="0" type="line"/>
      <point x="618" y="0" type="line"/>
      <point x="618" y="945" type="line"/>
      <point x="935.25" y="945" type="line"/>
      <point x="935.25" y="1161" type="line"/>
      <point x="84.75" y="1161" type="line"/>
      <point x="84.75" y="945" type="line"/>
      <point x="402" y="945" type="line"/>
    </contour>
  </outline>
</glyph>
<glyph name="V" format="2">
  <advance width="1020"/>
  <unicode hex="0056"/>
  <outline>
    <contour>
      <point x="396.57518768310547" y="0" type="line"/>
      <point x="623.4248123168945" y="0" type="line"/>
      <point x="996" y="1161" type="line"/>
      <point x="769.1503753662109" y="1161" type="line"/>
      <point x="510" y="353.4486770629883" type="line"/>
      <point x="250.84962463378906" y="1161" type="line"/>
      <point x="24" y="1161" type="line"/>
    </contour>
  </outline>
</glyph>
<glyph name="W" format="2">
  <advance width="1020"/>
  <unicode hex="0057"/>
  <outline>
    <contour>
      <point x="203.1331558227539" y="0" type="line"/>
      <point x="423.85633850097656" y="0" type="line"/>
      <point x="510" y="512.9027557373047" type="line"/>
      <point x="596.1436614990234" y="0" type="line"/>
      <point x="816.8668441772461" y="0" type="line"/>
      <point x="1013.3720932006836" y="1170" type="line"/>
      <point x="792.6489181518555" y="1170" type="line"/>
      <point x="706.505256652832" y="657.0972366333008" type="line"/>
      <point x="620.3615875244141" y="1170" type="line"/>
      <point x="399.63841247558594" y="1170" type="line"/>
      <point x="313.4947509765625" y="657.0972366333008" type="line"/>
      <point x="227.35108184814453" y="1170" type="line"/>
      <point x="6.627906799316406" y="1170" type="line"/>
    </contour>
  </outline>
</glyph>
<glyph name="X" format="2">
  <advance width="1020"/>
  <unicode hex="0058"/>
  <outline>
    <contour>
      <point x="40.6395263671875" y="0" type="line"/>
      <point x="293.00425720214844" y="0" type="line"/>
      <point x="510" y="369.90270233154297" type="line"/>
      <point x="726.9957427978516" y="0" type="line"/>
      <point x="979.3604736328125" y="0" type="line"/>
      <point x="636.1823654174805" y="585" type="line"/>
      <point x="979.3604736328125" y="1170" type="line"/>
      <point x="726.9957427978516" y="1170" type="line"/>
      <point x="510" y="800.097297668457" type="line"/>
      <point x="293.00425720214844" y="1170" type="line"/>
      <point x="40.6395263671875" y="1170" type="line"/>
      <point x="383.81763458251953" y="585" type="line"/>
    </contour>
  </outline>
</glyph>
<glyph name="Y" format="2">
  <advance width="1020"/>
  <unicode hex="0059"/>
  <outline>
    <contour>
      <point x="401.1627883911133" y="0" type="line"/>
      <point x="618.8372116088867" y="0" type="line"/>
      <point x="618.8372116088867" y="435.34883880615234" type="line"/>
      <point x="986.1627883911133" y="1170" type="line"/>
      <point x="742.7953948974609" y="1170" type="line"/>
      <point x="510" y="704.4092102050781" type="line"/>
      <point x="277.20460510253906" y="1170" type="line"/>
      <point x="33.83721160888672" y="1170" type="line"/>
      <point x="401.1627883911133" y="435.34883880615234" type="line"/>
    </contour>
  </outline>
</glyph>
<glyph name="Z" format="2">
  <advance width="1020"/>
  <unicode hex="005A"/>
  <outline>
    <contour>
      <point x="115.46511840820312" y="0" type="line"/>
      <point x="904.5348815917969" y="0" type="line"/>
      <point x="904.5348815917969" y="217.6744155883789" type="line"/>
      <point x="382.4991989135742" y="217.6744155883789" type="line"/>
      <point x="904.5348815917969" y="952.3255844116211" type="line"/>
      <point x="904.5348815917969" y="1170" type="line"/>
      <point x="115.46511840820312" y="1170" type="line"/>
      <point x="115.46511840820312" y="952.3255844116211" type="line"/>
      <point x="637.5008010864258" y="952.3255844116211" type="line"/>
      <point x="115.46511840820312" y="217.6744155883789" type="line"/>
    </contour>
  </outline>
</glyph>
<glyph name="bracketleft" format="2">
  <advance width="1020"/>
  <unicode hex="005B"/>
  <outline>
    <contour>
      <point x="272.90697479248047" y="-217.6744155883789" type="line"/>
      <point x="817.0930252075195" y="-217.6744155883789" type="line"/>
      <point x="817.0930252075195" y="0" type="line"/>
      <point x="490.5813980102539" y="0" type="line"/>
      <point x="490.5813980102539" y="1170" type="line"/>
      <point x="817.0930252075195" y="1170" type="line"/>
      <point x="817.0930252075195" y="1387.674415588379" type="line"/>
      <point x="272.90697479248047" y="1387.674415588379" type="line"/>
    </contour>
  </outline>
</glyph>
<glyph name="backslash" format="2">
  <advance width="980"/>
  <unicode hex="005C"/>
  <outline>
    <contour>
      <point x="854.2567882956296" y="-45.0" type="line"/>
      <point x="319.2205439243119" y="1425.0" type="line"/>
      <point x="95.74321170437037" y="1425.0" type="line"/>
      <point x="630.7794560756881" y="-45.0" type="line"/>
    </contour>
  </outline>
</glyph>
<glyph name="bracketright" format="2">
  <advance width="1020"/>
  <unicode hex="005D"/>
  <outline>
    <contour>
      <point x="747.0930252075195" y="-217.6744155883789" type="line"/>
      <point x="747.0930252075195" y="1387.674415588379" type="line"/>
      <point x="202.90697479248047" y="1387.674415588379" type="line"/>
      <point x="202.90697479248047" y="1170" type="line"/>
      <point x="529.4186019897461" y="1170" type="line"/>
      <point x="529.4186019897461" y="0" type="line"/>
      <point x="202.90697479248047" y="0" type="line"/>
      <point x="202.90697479248047" y="-217.6744155883789" type="line"/>
    </contour>
  </outline>
</glyph>
<glyph name="asciicircum" format="2">
  <advance width="1020"/>
  <unicode hex="005E"/>
  <outline>
    <contour>
      <point x="197.09302520751953" y="625.8139572143555" type="line"/>
      <point x="428.61170959472656" y="625.8139572143555" type="line"/>
      <point x="510" y="850.4698181152344" type="line"/>
      <point x="591.3882904052734" y="625.8139572143555" type="line"/>
      <point x="822.9069747924805" y="625.8139572143555" type="line"/>
      <point x="625.7593460083008" y="1170" type="line"/>
      <point x="394.2406539916992" y="1170" type="line"/>
    </contour>
  </outline>
</glyph>
<glyph name="underscore" format="2">
  <advance width="980"/>
  <unicode hex="005F"/>
  <outline>
    <contour>
      <point x="55.0" y="-270.0" type="line"/>
      <point x="925.0" y="-270.0" type="line"/>
      <point x="925.0" y="-60.0" type="line"/>
      <point x="55.0" y="-60.0" type="line"/>
    </contour>
  </outline>
</glyph>
<glyph name="grave" format="2">
  <advance width="980"/>
  <unicode hex="0060"/>
  <outline>
    <contour>
      <point x="647.9986934708893" y="1075.0" type="line"/>
      <point x="500.897771142069" y="1335.0" type="line"/>
      <point x="332.00130652911065" y="1335.0" type="line"/>
      <point x="479.10222885793087" y="1075.0" type="line"/>
    </contour>
  </outline>
</glyph>
<glyph name="c" format="2">
  <advance width="980"/>
  <unicode hex="0063"/>
  <outline>
    <contour>
      <point x="501.6591873168947" y="164.99999999999997" type="curve" smooth="yes"/>
      <point x="377.4783078168945" y="165.00000000000003"/>
      <point x="276.65918731689453" y="265.81912050000005"/>
      <point x="276.6591873168946" y="390.0" type="curve" smooth="yes"/>
      <point x="276.6591873168946" y="514.1808795000001"/>
      <point x="377.4783078168946" y="615.0"/>
      <point x="501.6591873168946" y="615.0" type="curve" smooth="yes"/>
      <point x="587.0535350947441" y="615.0"/>
      <point x="661.400629155291" y="567.3248911300387"/>
      <point x="699.5129776000977" y="497.14286041259766" type="curve"/>
      <point x="923.3372116088867" y="497.14286041259766" type="line"/>
      <point x="875.551180769922" y="685.496787337654"/>
      <point x="704.7679933288923" y="825.0"/>
      <point x="501.6591873168946" y="825.0" type="curve" smooth="yes"/>
      <point x="261.5761536168946" y="825.0"/>
      <point x="66.65918731689459" y="630.0830337"/>
      <point x="66.65918731689459" y="390.0" type="curve" smooth="yes"/>
      <point x="66.65918731689453" y="149.91696630000004"/>
      <point x="261.57615361689454" y="-44.99999999999994"/>
      <point x="501.65918731689453" y="-45.0" type="curve" smooth="yes"/>
      <point x="704.7732751556337" y="-45.00000000000005"/>
      <point x="875.5600631517752" y="94.51046829438113"/>
      <point x="923.3408126831055" y="282.85713958740234" type="curve"/>
      <point x="699.5125350952148" y="282.85713958740234" type="line"/>
      <point x="661.4001966915619" y="212.67483155285555"/>
      <point x="587.053286732985" y="164.99999999999994"/>
    </contour>
  </outline>
</glyph>
<glyph name="d" format="2">
  <advance width="1020"/>
  <unicode hex="0064"/>
  <outline>
    <contour>
      <point x="724.0697708129883" y="0" type="line"/>
      <point x="941.7441864013672" y="0" type="line"/>
      <point x="941.7441864013672" y="1170" type="line"/>
      <point x="724.0697708129883" y="1170" type="line"/>
      <point x="724.0697708129883" y="802.4414367675781" type="line"/>
      <point x="658.3611595708168" y="841.228498168635"/>
      <point x="581.759602977" y="863.48837"/>
      <point x="500.0" y="863.48837" type="curve" smooth="yes"/>
      <point x="256.19475" y="863.48837"/>
      <point x="58.25581" y="665.54944"/>
      <point x="58.25581" y="421.74419" type="curve" smooth="yes"/>
      <point x="58.25581" y="177.93893"/>
      <point x="256.19475" y="-20.0"/>
      <point x="500.0" y="-20.0" type="curve" smooth="yes"/>
      <point x="581.759602977" y="-20.0"/>
      <point x="658.3611595708168" y="2.2598718313649755"/>
      <point x="724.0697708129883" y="41.048919677734375" type="curve"/>
    </contour>
    <contour>
      <point x="724.06977" y="421.74419" type="curve" smooth="yes"/>
      <point x="724.06977" y="298.07672"/>
      <point x="623.66747" y="197.67442"/>
      <point x="500.0" y="197.67442" type="curve" smooth="yes"/>
      <point x="376.33253" y="197.67442"/>
      <point x="275.93023" y="298.07672"/>
      <point x="275.93023" y="421.74419" type="curve" smooth="yes"/>
      <point x="275.93023" y="545.41166"/>
      <point x="376.33253" y="645.81395"/>
      <point x="500.0" y="645.81395" type="curve" smooth="yes"/>
      <point x="623.66747" y="645.81395"/>
      <point x="724.06977" y="545.41166"/>
    </contour>
  </outline>
</glyph>
<glyph name="f" format="2">
  <advance width="1020"/>
  <unicode hex="0066"/>
  <outline>
    <contour>
      <point x="290.9302291870117" y="0" type="line"/>
      <point x="508.60465240478516" y="0" type="line"/>
      <point x="508.60465240478516" y="625.8139495849609" type="line"/>
      <point x="903.1395263671875" y="625.8139495849609" type="line"/>
      <point x="903.1395263671875" y="843.4883728027344" type="line"/>
      <point x="508.60465240478516" y="843.4883728027344" type="line"/>
      <point x="508.60465240478516" y="890.1328887939453" type="line"/>
      <point x="508.60465" y="924.45797"/>
      <point x="536.47226" y="952.32558"/>
      <point x="570.79734" y="952.32558" type="curve"/>
      <point x="903.1395263671875" y="952.3255767822266" type="line"/>
      <point x="903.1395263671875" y="1170" type="line"/>
      <point x="570.7973403930664" y="1170" type="line"/>
      <point x="416.33448" y="1170.0"/>
      <point x="290.93023" y="1044.59575"/>
      <point x="290.93023" y="890.13289" type="curve"/>
      <point x="290.9302291870117" y="843.4883728027344" type="line"/>
      <point x="86.8604736328125" y="843.4883728027344" type="line"/>
      <point x="86.8604736328125" y="625.8139495849609" type="line"/>
      <point x="290.9302291870117" y="625.8139495849609" type="line"/>
    </contour>
  </outline>
</glyph>
<glyph name="g" format="2">
  <advance width="1020"/>
  <unicode hex="0067"/>
  <outline>
    <contour>
      <point x="75.5" y="-51" type="line"/>
      <point x="75.5" y="-287.77154357999996"/>
      <point x="267.72845642000004" y="-479.99999999999994"/>
      <point x="504.5" y="-480.00000000000006" type="curve" smooth="yes"/>
      <point x="741.2715435799998" y="-480.00000000000017"/>
      <point x="933.5" y="-287.7715435800001"/>
      <point x="933.5" y="-51.00000000000009" type="curve"/>
      <point x="933.5" y="837" type="line"/>
      <point x="717.5" y="837" type="line"/>
      <point x="717.5" y="793.4889755249023" type="line"/>
      <point x="653.5529094762586" y="830.6904280180739"/>
      <point x="579.245376717244" y="852.0000000000001"/>
      <point x="500.00000000000006" y="852.0" type="curve" smooth="yes"/>
      <point x="260.74483883000016" y="852.0000000000001"/>
      <point x="66.50000000000006" y="657.7551611700002"/>
      <point x="66.50000000000006" y="418.50000000000006" type="curve" smooth="yes"/>
      <point x="66.5" y="179.24483883000005"/>
      <point x="260.74483883000005" y="-14.999999999999966"/>
      <point x="500.00000000000006" y="-15.000000000000018" type="curve" smooth="yes"/>
      <point x="579.245376717244" y="-15.000000000000036"/>
      <point x="653.5529094762586" y="6.3095719819260765"/>
      <point x="717.5" y="43.51521301269531" type="curve"/>
      <point x="717.5" y="-51" type="line"/>
      <point x="717.5" y="-168.55789926000008"/>
      <point x="622.0578992600001" y="-264.00000000000006"/>
      <point x="504.5" y="-264.00000000000006" type="curve" smooth="yes"/>
      <point x="386.94210074000006" y="-264.00000000000006"/>
      <point x="291.5" y="-168.55789926"/>
      <point x="291.50000000000006" y="-50.99999999999999" type="curve"/>
    </contour>
    <contour>
      <point x="717.5" y="418.5" type="curve" smooth="yes"/>
      <point x="717.5" y="298.45848314999995"/>
      <point x="620.0415168500001" y="200.99999999999997"/>
      <point x="500.00000000000006" y="201.0" type="curve" smooth="yes"/>
      <point x="379.95848315000006" y="201.0"/>
      <point x="282.5" y="298.45848315"/>
      <point x="282.50000000000006" y="418.5" type="curve" smooth="yes"/>
      <point x="282.50000000000006" y="538.5415168500001"/>
      <point x="379.9584831500001" y="636.0000000000001"/>
      <point x="500.00000000000006" y="636.0000000000001" type="curve" smooth="yes"/>
      <point x="620.0415168500001" y="636.0000000000001"/>
      <point x="717.5" y="538.5415168500001"/>
    </contour>
  </outline>
</glyph>
<glyph name="h" format="2">
  <advance width="980"/>
  <unicode hex="0068"/>
  <outline>
    <contour>
      <point x="65" y="-45" type="line"/>
      <point x="275" y="-45" type="line"/>
      <point x="275" y="390" type="line"/>
      <point x="275.0" y="514.1808795000001"/>
      <point x="375.8191205" y="615.0"/>
      <point x="500.0" y="615.0" type="curve" smooth="yes"/>
      <point x="624.1808795" y="615.0"/>
      <point x="725.0" y="514.1808795"/>
      <point x="725.0" y="390.0" type="curve"/>
      <point x="725" y="-45" type="line"/>
      <point x="935" y="-45" type="line"/>
      <point x="935" y="390" type="line"/>
      <point x="935.0" y="630.0830337"/>
      <point x="740.0830337" y="825.0"/>
      <point x="500.0" y="825.0" type="curve" smooth="yes"/>
      <point x="417.6772083255059" y="825.0"/>
      <point x="340.6648445519814" y="802.0825188953273"/>
      <point x="275" y="762.2797317504883" type="curve"/>
      <point x="275" y="1215" type="line"/>
      <point x="65" y="1215" type="line"/>
    </contour>
  </outline>
</glyph>
<glyph name="i" format="2">
  <advance width="1020"/>
  <unicode hex="0069"/>
  <outline>
    <contour>
      <point x="680.4" y="1085.4" type="curve" smooth="yes"/>
      <point x="680.4" y="1162.888868808"/>
      <point x="617.488868808" y="1225.8"/>
      <point x="540.0" y="1225.8" type="curve" smooth="yes"/>
      <point x="462.511131192" y="1225.8"/>
      <point x="399.6" y="1162.888868808"/>
      <point x="399.6" y="1085.4" type="curve" smooth="yes"/>
      <point x="399.6" y="1007.911131192"/>
      <point x="462.511131192" y="945.0"/>
      <point x="540.0" y="945.0" type="curve" smooth="yes"/>
      <point x="617.488868808" y="945.0"/>
      <point x="680.4" y="1007.911131192"/>
    </contour>
    <contour>
      <point x="162" y="0" type="line"/>
      <point x="918" y="0" type="line"/>
      <point x="918" y="216" type="line"/>
      <point x="675" y="216" type="line"/>
      <point x="675" y="837" type="line"/>
      <point x="189" y="837" type="line"/>
      <point x="189" y="621" type="line"/>
      <point x="459" y="621" type="line"/>
      <point x="459" y="216" type="line"/>
      <point x="162" y="216" type="line"/>
    </contour>
  </outline>
</glyph>
<glyph name="j" format="2">
  <advance width="1020"/>
  <unicode hex="006A"/>
  <outline>
    <contour>
      <point x="771.22093" y="1072.32558" type="curve" smooth="yes"/>
      <point x="771.22093" y="1150.41514"/>
      <point x="707.82212" y="1213.81395"/>
      <point x="629.73256" y="1213.81395" type="curve" smooth="yes"/>
      <point x="551.643" y="1213.81395"/>
      <point x="488.24419" y="1150.41514"/>
      <point x="488.24419" y="1072.32558" type="curve" smooth="yes"/>
      <point x="488.24419" y="994.23602"/>
      <point x="551.643" y="930.83721"/>
      <point x="629.73256" y="930.83721" type="curve" smooth="yes"/>
      <point x="707.82212" y="930.83721"/>
      <point x="771.22093" y="994.23602"/>
    </contour>
    <contour>
      <point x="135.43022918701172" y="-335.5813980102539" type="line"/>
      <point x="360.2383728027344" y="-335.5813980102539" type="line"/>
      <point x="475.0632194555863" y="-335.5813980102539"/>
      <point x="738.569769702647" y="-308.5084790985208"/>
      <point x="738.5697700412042" y="42.75" type="curve"/>
      <point x="738.5697708129883" y="843.4883728027344" type="line"/>
      <point x="244.26744079589844" y="843.4883728027344" type="line"/>
      <point x="244.26744079589844" y="625.8139495849609" type="line"/>
      <point x="520.8953475952148" y="625.8139495849609" type="line"/>
      <point x="520.8953475952148" y="34.26569992708525" type="line"/>
      <point x="520.8953475952148" y="-111.41410789765433"/>
      <point x="430.1664702247644" y="-117.90697975399006"/>
      <point x="360.23837" y="-117.90698038696321" type="curve"/>
      <point x="135.43022918701172" y="-117.906982421875" type="line"/>
    </contour>
  </outline>
</glyph>
<glyph name="k" format="2">
  <advance width="1020"/>
  <unicode hex="006B"/>
  <outline>
    <contour>
      <point x="129.65116119384766" y="0" type="line"/>
      <point x="347.3255844116211" y="0" type="line"/>
      <point x="347.3255844116211" y="312.90697479248047" type="line"/>
      <point x="681.7502746582031" y="0" type="line"/>
      <point x="1000.3488388061523" y="0" type="line"/>
      <point x="549.6025085449219" y="421.7441864013672" type="line"/>
      <point x="1000.3488388061523" y="843.4883728027344" type="line"/>
      <point x="681.7502746582031" y="843.4883728027344" type="line"/>
      <point x="347.3255844116211" y="530.5813980102539" type="line"/>
      <point x="347.3255844116211" y="1170" type="line"/>
      <point x="129.65116119384766" y="1170" type="line"/>
    </contour>
  </outline>
</glyph>
<glyph name="l" format="2">
  <advance width="980"/>
  <unicode hex="006C"/>
  <outline>
    <contour>
      <point x="105" y="-45" type="line"/>
      <point x="895" y="-45" type="line"/>
      <point x="895" y="165" type="line"/>
      <point x="635" y="165" type="line"/>
      <point x="635" y="1215" type="line"/>
      <point x="125" y="1215" type="line"/>
      <point x="125" y="1005" type="line"/>
      <point x="425" y="1005" type="line"/>
      <point x="425" y="165" type="line"/>
      <point x="105" y="165" type="line"/>
    </contour>
  </outline>
</glyph>
<glyph name="m" format="2">
  <advance width="1020"/>
  <unicode hex="006D"/>
  <outline>
    <contour>
      <point x="69.5" y="0" type="line"/>
      <point x="285.5" y="0" type="line"/>
      <point x="285.5" y="575.25" type="line"/>
      <point x="285.5" y="608.778837465"/>
      <point x="312.721162535" y="636.0"/>
      <point x="346.25" y="636.0" type="curve" smooth="yes"/>
      <point x="379.77883746500004" y="636.0"/>
      <point x="407.0" y="608.778837465"/>
      <point x="407.0" y="575.25" type="curve"/>
      <point x="407" y="0" type="line"/>
      <point x="623" y="0" type="line"/>
      <point x="623" y="575.25" type="line"/>
      <point x="623.0" y="608.778837465"/>
      <point x="650.221162535" y="636.0"/>
      <point x="683.75" y="636.0" type="curve" smooth="yes"/>
      <point x="717.278837465" y="636.0"/>
      <point x="744.5" y="608.778837465"/>
      <point x="744.5" y="575.25" type="curve"/>
      <point x="744.5" y="0" type="line"/>
      <point x="960.5" y="0" type="line"/>
      <point x="960.5" y="575.25" type="line"/>
      <point x="960.5" y="727.992481785"/>
      <point x="836.492481785" y="852.0"/>
      <point x="683.75" y="852.0" type="curve" smooth="yes"/>
      <point x="620.2515899873763" y="852.0"/>
      <point x="561.7192937689415" y="830.568427786921"/>
      <point x="514.9981155395508" y="794.5465698242188" type="curve"/>
      <point x="468.27760869962594" y="830.5695619302928"/>
      <point x="409.7467298453241" y="852.0"/>
      <point x="346.25" y="852.0" type="curve" smooth="yes"/>
      <point x="314.7407534325724" y="852.0"/>
      <point x="284.454339449259" y="846.7227901097197"/>
      <point x="256.22698974609375" y="837" type="curve"/>
      <point x="69.5" y="837" type="line"/>
    </contour>
  </outline>
</glyph>
<glyph name="n" format="2">
  <advance width="1020"/>
  <unicode hex="006E"/>
  <outline>
    <contour>
      <point x="108.26744079589844" y="0" type="line"/>
      <point x="325.94185638427734" y="0" type="line"/>
      <point x="325.94185638427734" y="413.0058135986328" type="line"/>
      <point x="325.94185638427734" y="617.8369080645087"/>
      <point x="451.130474544968" y="645.81395"/>
      <point x="516.0" y="645.81395" type="curve" smooth="yes"/>
      <point x="580.869525455032" y="645.81395"/>
      <point x="706.0581387141353" y="617.8369046458075"/>
      <point x="706.0581403391556" y="413.00581" type="curve"/>
      <point x="706.0581436157227" y="0" type="line"/>
      <point x="923.7325592041016" y="0" type="line"/>
      <point x="923.7325592041016" y="413.0058135986328" type="line"/>
      <point x="923.7325592041016" y="751.531115375898"/>
      <point x="686.6026713570819" y="863.48837"/>
      <point x="516.0" y="863.48837" type="curve" smooth="yes"/>
      <point x="447.38519346852" y="863.48837"/>
      <point x="382.70623949042636" y="846.5029514383743"/>
      <point x="325.94185638427734" y="816.5050735473633" type="curve"/>
      <point x="325.94185638427734" y="843.4883728027344" type="line"/>
      <point x="108.26744079589844" y="843.4883728027344" type="line"/>
    </contour>
  </outline>
</glyph>
<glyph name="o" format="2">
  <advance width="1020"/>
  <unicode hex="006F"/>
  <outline>
    <contour>
      <point x="943.5" y="418.5" type="curve" smooth="yes"/>
      <point x="943.5" y="657.7551611700001"/>
      <point x="749.2551611700001" y="852.0000000000001"/>
      <point x="510.00000000000006" y="852.0000000000001" type="curve" smooth="yes"/>
      <point x="270.74483883000016" y="852.0000000000001"/>
      <point x="76.50000000000006" y="657.7551611700002"/>
      <point x="76.50000000000006" y="418.50000000000006" type="curve" smooth="yes"/>
      <point x="76.5" y="179.24483883000005"/>
      <point x="270.74483883000005" y="-14.999999999999966"/>
      <point x="510.00000000000006" y="-15.000000000000018" type="curve" smooth="yes"/>
      <point x="749.2551611700001" y="-15.00000000000007"/>
      <point x="943.5" y="179.2448388299999"/>
    </contour>
    <contour>
      <point x="727.5" y="418.5" type="curve" smooth="yes"/>
      <point x="727.5" y="298.45848314999995"/>
      <point x="630.0415168500001" y="200.99999999999997"/>
      <point x="510.00000000000006" y="201.0" type="curve" smooth="yes"/>
      <point x="389.95848315000006" y="201.0"/>
      <point x="292.5" y="298.45848315"/>
      <point x="292.50000000000006" y="418.5" type="curve" smooth="yes"/>
      <point x="292.50000000000006" y="538.5415168500001"/>
      <point x="389.9584831500001" y="636.0000000000001"/>
      <point x="510.00000000000006" y="636.0000000000001" type="curve" smooth="yes"/>
      <point x="630.0415168500001" y="636.0000000000001"/>
      <point x="727.5" y="538.5415168500001"/>
    </contour>
  </outline>
</glyph>
<glyph name="p" format="2">
  <advance width="1020"/>
  <unicode hex="0070"/>
  <outline>
    <contour>
      <point x="86.5" y="-480" type="line"/>
      <point x="302.5" y="-480" type="line"/>
      <point x="302.5" y="43.511024475097656" type="line"/>
      <point x="366.4470905237415" y="6.309571981926183"/>
      <point x="440.75462328275614" y="-14.999999999999961"/>
      <point x="520.0" y="-14.999999999999979" type="curve" smooth="yes"/>
      <point x="759.2551611700001" y="-15.00000000000007"/>
      <point x="953.5" y="179.2448388299999"/>
      <point x="953.5" y="418.5" type="curve" smooth="yes"/>
      <point x="953.5" y="657.7551611700001"/>
      <point x="759.2551611700001" y="852.0000000000001"/>
      <point x="520.0" y="852.0000000000001" type="curve" smooth="yes"/>
      <point x="440.75462328275614" y="852.0000000000001"/>
      <point x="366.4470905237415" y="830.690428018074"/>
      <point x="302.5" y="793.4847869873047" type="curve"/>
      <point x="302.5" y="837" type="line"/>
      <point x="86.5" y="837" type="line"/>
    </contour>
    <contour>
      <point x="737.5" y="418.5" type="curve" smooth="yes"/>
      <point x="737.5" y="298.45848314999995"/>
      <point x="640.0415168500001" y="200.99999999999997"/>
      <point x="520.0" y="201.0" type="curve" smooth="yes"/>
      <point x="399.95848315000006" y="201.0"/>
      <point x="302.5" y="298.45848315"/>
      <point x="302.50000000000006" y="418.5" type="curve" smooth="yes"/>
      <point x="302.50000000000006" y="538.5415168500001"/>
      <point x="399.9584831500001" y="636.0000000000001"/>
      <point x="520.0" y="636.0000000000001" type="curve" smooth="yes"/>
      <point x="640.0415168500001" y="636.0000000000001"/>
      <point x="737.5" y="538.5415168500001"/>
    </contour>
  </outline>
</glyph>
<glyph name="q" format="2">
  <advance width="980"/>
  <unicode hex="0071"/>
  <outline>
    <contour>
      <point x="705" y="-525" type="line"/>
      <point x="915" y="-525" type="line"/>
      <point x="915" y="825" type="line"/>
      <point x="705" y="825" type="line"/>
      <point x="705" y="762.2762451171875" type="line"/>
      <point x="639.3351554480186" y="802.0825188953273"/>
      <point x="562.322791674494" y="825.0"/>
      <point x="480.0000000000001" y="824.9999999999999" type="curve" smooth="yes"/>
      <point x="239.91696630000007" y="825.0"/>
      <point x="45.00000000000006" y="630.0830337"/>
      <point x="45.00000000000006" y="390.0" type="curve" smooth="yes"/>
      <point x="45.0" y="149.91696630000004"/>
      <point x="239.91696629999998" y="-44.99999999999994"/>
      <point x="480.0" y="-45.0" type="curve" smooth="yes"/>
      <point x="562.322791674494" y="-45.00000000000002"/>
      <point x="639.3351554480186" y="-22.082518895327343"/>
      <point x="705" y="17.72026824951172" type="curve"/>
    </contour>
    <contour>
      <point x="705.0" y="390.0" type="curve" smooth="yes"/>
      <point x="705.0" y="265.81912049999994"/>
      <point x="604.1808795" y="164.99999999999997"/>
      <point x="480.00000000000006" y="165.0" type="curve" smooth="yes"/>
      <point x="355.8191205" y="165.00000000000003"/>
      <point x="255.0" y="265.81912050000005"/>
      <point x="255.00000000000006" y="390.0" type="curve" smooth="yes"/>
      <point x="255.00000000000006" y="514.1808795000001"/>
      <point x="355.81912050000005" y="615.0"/>
      <point x="480.00000000000006" y="615.0" type="curve" smooth="yes"/>
      <point x="604.1808795" y="615.0"/>
      <point x="705.0" y="514.1808795"/>
    </contour>
  </outline>
</glyph>
<glyph name="r" format="2">
  <advance width="1020"/>
  <unicode hex="0072"/>
  <outline>
    <contour>
      <point x="154.06977081298828" y="0" type="line"/>
      <point x="589.4186019897461" y="0" type="line"/>
      <point x="589.4186019897461" y="217.6744155883789" type="line"/>
      <point x="439.76744079589844" y="217.6744155883789" type="line"/>
      <point x="439.76744079589844" y="279.8671112060547" type="line"/>
      <point x="439.7674418604651" y="470.80036887906977"/>
      <point x="594.7810264697675" y="625.813953488372"/>
      <point x="785.7142857142858" y="625.813953488372" type="curve"/>
      <point x="915.9302291870117" y="625.8139572143555" type="line"/>
      <point x="915.9302291870117" y="843.4883728027344" type="line"/>
      <point x="785.7142868041992" y="843.4883728027344" type="line"/>
      <point x="655.3640101824144" y="843.4883720930233"/>
      <point x="535.2895225957075" y="799.1425716301391"/>
      <point x="439.76744079589844" y="724.7255783081055" type="curve"/>
      <point x="439.76744079589844" y="843.4883728027344" type="line"/>
      <point x="154.06977081298828" y="843.4883728027344" type="line"/>
      <point x="154.06977081298828" y="625.8139572143555" type="line"/>
      <point x="222.09302520751953" y="625.8139572143555" type="line"/>
      <point x="222.09302520751953" y="217.6744155883789" type="line"/>
      <point x="154.06977081298828" y="217.6744155883789" type="line"/>
    </contour>
  </outline>
</glyph>
<glyph name="s" format="2">
  <advance width="1020"/>
  <unicode hex="0073"/>
  <outline>
    <contour>
      <point x="91.75" y="256.03125" type="line"/>
      <point x="91.74999885559083" y="106.44503223562504"/>
      <point x="276.9211168405908" y="-14.999999999999966"/>
      <point x="504.99999885559083" y="-15.000000000000018" type="curve" smooth="yes"/>
      <point x="733.0788808705909" y="-15.00000000000007"/>
      <point x="918.2499988555908" y="106.44503223562492"/>
      <point x="918.2499988555908" y="256.03125" type="curve"/>
      <point x="918.2499988555908" y="388.82776109628384"/>
      <point x="772.0964842153942" y="497.7081784989614"/>
      <point x="579.9767833709717" y="522.6043167114258" type="curve"/>
      <point x="457.3731384277344" y="538.4921035766602" type="line"/>
      <point x="392.41113747196243" y="546.9103104418311"/>
      <point x="344.87499885559083" y="565.7995353747355"/>
      <point x="344.87499885559083" y="589.96875" type="curve"/>
      <point x="344.87499885559083" y="619.7204190468751"/>
      <point x="416.6246062780909" y="643.8750000000001"/>
      <point x="504.99999885559083" y="643.8750000000001" type="curve" smooth="yes"/>
      <point x="593.3753914330908" y="643.8750000000001"/>
      <point x="665.1249988555908" y="619.7204190468751"/>
      <point x="665.1249988555908" y="589.96875" type="curve"/>
      <point x="904.75" y="589.96875" type="line"/>
      <point x="904.7499988555908" y="734.5877325843751"/>
      <point x="725.6280281005909" y="852.0000000000001"/>
      <point x="504.99999885559083" y="852.0000000000001" type="curve" smooth="yes"/>
      <point x="284.3719696105909" y="852.0000000000001"/>
      <point x="105.24999885559083" y="734.5877325843751"/>
      <point x="105.24999885559083" y="589.96875" type="curve"/>
      <point x="105.24999885559083" y="461.5907683978155"/>
      <point x="246.6299323142642" y="356.48962199869067"/>
      <point x="432.43418006896974" y="332.2582237243652" type="curve"/>
      <point x="555.0257568359375" y="316.27061462402344" type="line"/>
      <point x="626.3164411210087" y="306.9733427668485"/>
      <point x="678.624998855591" y="284.45033961710016"/>
      <point x="678.624998855591" y="256.03125" type="curve"/>
      <point x="678.6249988555908" y="221.312345773125"/>
      <point x="600.8262442030909" y="193.125"/>
      <point x="504.99999885559083" y="193.125" type="curve" smooth="yes"/>
      <point x="409.17375350809084" y="193.125"/>
      <point x="331.37499885559083" y="221.312345773125"/>
      <point x="331.37499885559083" y="256.03125" type="curve"/>
    </contour>
  </outline>
</glyph>
<glyph name="t" format="2">
  <advance width="1020"/>
  <unicode hex="0074"/>
  <outline>
    <contour>
      <point x="304.0697708129883" y="335.5813980102539" type="line"/>
      <point x="304.06977" y="150.36898"/>
      <point x="454.43875" y="0.0"/>
      <point x="639.65116" y="0.0" type="curve"/>
      <point x="880" y="0" type="line"/>
      <point x="880" y="217.67442321777344" type="line"/>
      <point x="639.6511611938477" y="217.67442321777344" type="line"/>
      <point x="574.57653" y="217.67442"/>
      <point x="521.74419" y="270.50676"/>
      <point x="521.74419" y="335.5814" type="curve"/>
      <point x="521.7441864013672" y="625.8139495849609" type="line"/>
      <point x="880" y="625.8139495849609" type="line"/>
      <point x="880" y="843.4883728027344" type="line"/>
      <point x="521.7441864013672" y="843.4883728027344" type="line"/>
      <point x="521.7441864013672" y="1045.614616394043" type="line"/>
      <point x="304.0697708129883" y="1045.614616394043" type="line"/>
      <point x="304.0697708129883" y="843.4883728027344" type="line"/>
      <point x="100" y="843.4883728027344" type="line"/>
      <point x="100" y="625.8139495849609" type="line"/>
      <point x="304.0697708129883" y="625.8139495849609" type="line"/>
    </contour>
  </outline>
</glyph>
<glyph name="u" format="2">
  <advance width="1020"/>
  <unicode hex="0075"/>
  <outline>
    <contour>
      <point x="97.26744079589844" y="387.73255920410156" type="line"/>
      <point x="97.26744" y="162.69884"/>
      <point x="279.96628" y="-20.0"/>
      <point x="505.0" y="-20.0" type="curve" smooth="yes"/>
      <point x="573.61480653148" y="-20.0"/>
      <point x="638.2937605095736" y="-3.0145805086793125"/>
      <point x="695.0581436157227" y="26.983299255371094" type="curve"/>
      <point x="695.0581436157227" y="0" type="line"/>
      <point x="912.7325592041016" y="0" type="line"/>
      <point x="912.7325592041016" y="843.4883728027344" type="line"/>
      <point x="695.0581436157227" y="843.4883728027344" type="line"/>
      <point x="695.0581436157227" y="387.73255920410156" type="line"/>
      <point x="695.05814" y="282.83662"/>
      <point x="609.89594" y="197.67442"/>
      <point x="505.0" y="197.67442" type="curve" smooth="yes"/>
      <point x="400.10406" y="197.67442"/>
      <point x="314.94186" y="282.83662"/>
      <point x="314.94186" y="387.73256" type="curve"/>
      <point x="314.94185638427734" y="843.4883728027344" type="line"/>
      <point x="97.26744079589844" y="843.4883728027344" type="line"/>
    </contour>
  </outline>
</glyph>
<glyph name="v" format="2">
  <advance width="980"/>
  <unicode hex="0076"/>
  <outline>
    <contour>
      <point x="376.7429885864258" y="-45" type="line"/>
      <point x="603.2570114135742" y="-45" type="line"/>
      <point x="955" y="825" type="line"/>
      <point x="728.4859771728516" y="825" type="line"/>
      <point x="490" y="235.12953186035156" type="line"/>
      <point x="251.51402282714844" y="825" type="line"/>
      <point x="25" y="825" type="line"/>
    </contour>
  </outline>
</glyph>
<glyph name="w" format="2">
  <advance width="1020"/>
  <unicode hex="0077"/>
  <outline>
    <contour>
      <point x="202.4481201171875" y="0" type="line"/>
      <point x="425.9114532470703" y="0" type="line"/>
      <point x="510" y="362.2083282470703" type="line"/>
      <point x="594.0885467529297" y="0" type="line"/>
      <point x="817.5518798828125" y="0" type="line"/>
      <point x="1013.3720932006836" y="843.4883728027344" type="line"/>
      <point x="789.9087600708008" y="843.4883728027344" type="line"/>
      <point x="705.8202133178711" y="481.28004455566406" type="line"/>
      <point x="621.7316665649414" y="843.4883728027344" type="line"/>
      <point x="398.2683334350586" y="843.4883728027344" type="line"/>
      <point x="314.1797866821289" y="481.28004455566406" type="line"/>
      <point x="230.09123992919922" y="843.4883728027344" type="line"/>
      <point x="6.627906799316406" y="843.4883728027344" type="line"/>
    </contour>
  </outline>
</glyph>
<glyph name="x" format="2">
  <advance width="980"/>
  <unicode hex="0078"/>
  <outline>
    <contour>
      <point x="55" y="-45" type="line"/>
      <point x="311.9056854248047" y="-45" type="line"/>
      <point x="490" y="207.72139739990234" type="line"/>
      <point x="668.0943145751953" y="-45" type="line"/>
      <point x="925" y="-45" type="line"/>
      <point x="618.4528427124023" y="390" type="line"/>
      <point x="925" y="825" type="line"/>
      <point x="668.0943145751953" y="825" type="line"/>
      <point x="490" y="572.2786026000977" type="line"/>
      <point x="311.9056854248047" y="825" type="line"/>
      <point x="55" y="825" type="line"/>
      <point x="361.54715728759766" y="390" type="line"/>
    </contour>
  </outline>
</glyph>
<glyph name="y" format="2">
  <advance width="1020"/>
  <unicode hex="0079"/>
  <outline>
    <contour>
      <point x="199.58175659179688" y="-450" type="line"/>
      <point x="435.28697204589844" y="-450" type="line"/>
      <point x="972.5581436157227" y="843.4883728027344" type="line"/>
      <point x="736.8529281616211" y="843.4883728027344" type="line"/>
      <point x="510" y="297.33656311035156" type="line"/>
      <point x="283.1470718383789" y="843.4883728027344" type="line"/>
      <point x="47.441856384277344" y="843.4883728027344" type="line"/>
      <point x="392.1473922729492" y="13.604652404785156" type="line"/>
    </contour>
  </outline>
</glyph>
<glyph name="z" format="2">
  <advance width="980"/>
  <unicode hex="007A"/>
  <outline>
    <contour>
      <point x="75" y="-45" type="line"/>
      <point x="885" y="-45" type="line"/>
      <point x="885" y="165" type="line"/>
      <point x="387.9098663330078" y="165" type="line"/>
      <point x="885" y="615" type="line"/>
      <point x="885" y="825" type="line"/>
      <point x="75" y="825" type="line"/>
      <point x="75" y="615" type="line"/>
      <point x="572.0901336669922" y="615" type="line"/>
      <point x="75" y="165" type="line"/>
    </contour>
  </outline>
</glyph>
<glyph name="braceleft" format="2">
  <advance width="1020"/>
  <unicode hex="007B"/>
  <outline>
    <contour>
      <point x="401.1627883911133" y="72.55813598632812" type="line"/>
      <point x="401.1627906976744" y="-87.62556859534881"/>
      <point x="531.2116407069766" y="-217.67441860465115"/>
      <point x="691.3953488372092" y="-217.67441860465115" type="curve"/>
      <point x="836.5116271972656" y="-217.6744155883789" type="line"/>
      <point x="836.5116271972656" y="0" type="line"/>
      <point x="691.3953475952148" y="0" type="line"/>
      <point x="651.3494218046512" y="0.0"/>
      <point x="618.8372093023256" y="32.51221250232558"/>
      <point x="618.8372093023256" y="72.55813953488374" type="curve"/>
      <point x="618.8372116088867" y="403.60465240478516" type="line"/>
      <point x="618.8372093023256" y="472.2199832752083"/>
      <point x="594.9749165422946" y="535.3059561759743"/>
      <point x="555.1031875610352" y="584.998291015625" type="curve"/>
      <point x="594.9749165422946" y="634.6940438240256"/>
      <point x="618.8372093023256" y="697.7800167247916"/>
      <point x="618.8372093023256" y="766.3953488372092" type="curve"/>
      <point x="618.8372116088867" y="1097.4418640136719" type="line"/>
      <point x="618.8372093023256" y="1137.4877874976744"/>
      <point x="651.3494218046512" y="1170.0"/>
      <point x="691.3953488372092" y="1170.0" type="curve"/>
      <point x="836.5116271972656" y="1170" type="line"/>
      <point x="836.5116271972656" y="1387.674415588379" type="line"/>
      <point x="691.3953475952148" y="1387.674415588379" type="line"/>
      <point x="531.2116407069768" y="1387.674418604651"/>
      <point x="401.1627906976744" y="1257.6255685953488"/>
      <point x="401.1627906976744" y="1097.4418604651162" type="curve"/>
      <point x="401.1627883911133" y="766.3953475952148" type="line"/>
      <point x="401.1627906976744" y="726.3494218046511"/>
      <point x="368.6505781953489" y="693.8372093023255"/>
      <point x="328.6046511627907" y="693.8372093023255" type="curve"/>
      <point x="183.48837280273438" y="693.8372116088867" type="line"/>
      <point x="183.48837280273438" y="476.1627883911133" type="line"/>
      <point x="328.60465240478516" y="476.1627883911133" type="line"/>
      <point x="368.6505781953488" y="476.1627906976744"/>
      <point x="401.1627906976744" y="443.6505781953488"/>
      <point x="401.1627906976744" y="403.6046511627907" type="curve"/>
    </contour>
  </outline>
</glyph>
<glyph name="bar" format="2">
  <advance width="1020"/>
  <unicode hex="007C"/>
  <outline>
    <contour>
      <point x="402.0" y="-216.0" type="line"/>
      <point x="618.0" y="-216.0" type="line"/>
      <point x="618.0" y="1377.0" type="line"/>
      <point x="402.0" y="1377.0" type="line"/>
    </contour>
  </outline>
</glyph>
<glyph name="braceright" format="2">
  <advance width="980"/>
  <unicode hex="007D"/>
  <outline>
    <contour>
      <point x="295" y="-255" type="line"/>
      <point x="460.57450600000004" y="-255.0"/>
      <point x="595.0" y="-120.57450599999993"/>
      <point x="595.0" y="45.0" type="curve"/>
      <point x="595" y="390" type="line"/>
      <point x="595.0" y="439.6723518"/>
      <point x="635.3276482" y="480.0"/>
      <point x="685.0" y="480.0" type="curve"/>
      <point x="835" y="480" type="line"/>
      <point x="835" y="690" type="line"/>
      <point x="685" y="690" type="line"/>
      <point x="635.3276482" y="690.0"/>
      <point x="595.0" y="730.3276482"/>
      <point x="595.0" y="780.0" type="curve"/>
      <point x="595" y="1125" type="line"/>
      <point x="595.0" y="1290.574506"/>
      <point x="460.574506" y="1425.0"/>
      <point x="295.0" y="1425.0" type="curve"/>
      <point x="145" y="1425" type="line"/>
      <point x="145" y="1215" type="line"/>
      <point x="295" y="1215" type="line"/>
      <point x="344.6723518" y="1215.0"/>
      <point x="385.0" y="1174.6723518000001"/>
      <point x="385.0" y="1125.0" type="curve"/>
      <point x="385" y="780" type="line"/>
      <point x="385.0" y="705.579392362686"/>
      <point x="412.1569584941641" y="637.4515823253438"/>
      <point x="457.09293365478516" y="585.0006103515625" type="curve"/>
      <point x="412.15695849416403" y="532.5484176746562"/>
      <point x="384.99999999999994" y="464.420607637314"/>
      <point x="384.99999999999994" y="389.99999999999994" type="curve"/>
      <point x="385" y="45" type="line"/>
      <point x="385.0" y="-4.672351800000001"/>
      <point x="344.6723518" y="-45.0"/>
      <point x="295.0" y="-45.0" type="curve"/>
      <point x="145" y="-45" type="line"/>
      <point x="145" y="-255" type="line"/>
    </contour>
  </outline>
</glyph>
<glyph name="tilde" format="2">
  <advance width="980"/>
  <unicode hex="007E"/>
  <outline>
    <contour>
      <point x="576.6206571925522" y="561.2330967823191" type="curve"/>
      <point x="508.3793411254883" y="600.6322402954102" type="line"/>
      <point x="462.4310965055879" y="627.1604703835831"/>
      <point x="410.30935994730544" y="641.1264476024826"/>
      <point x="357.2528952049653" y="641.1264476024826" type="curve"/>
      <point x="190.43498250285896" y="641.1264476024826"/>
      <point x="55.0" y="505.69146509962377"/>
      <point x="55.0" y="338.8735523975174" type="curve"/>
      <point x="265" y="338.87355041503906" type="line"/>
      <point x="265.0" y="389.78931089962373"/>
      <point x="306.33713670285897" y="431.12644760248264"/>
      <point x="357.2528952049652" y="431.12644760248264" type="curve"/>
      <point x="373.44666062283454" y="431.12644760248264"/>
      <point x="389.3551305726471" y="426.86378592661555"/>
      <point x="403.37934280744787" y="418.7669032176809" type="curve"/>
      <point x="471.6206588745117" y="379.36775970458984" type="line"/>
      <point x="517.5689034944122" y="352.8395296164168"/>
      <point x="569.6906400526948" y="338.87355239751736"/>
      <point x="622.7471047950348" y="338.87355239751736" type="curve"/>
      <point x="789.5650174971412" y="338.87355239751736"/>
      <point x="925.0" y="474.30853490037634"/>
      <point x="925.0" y="641.1264476024826" type="curve"/>
      <point x="715" y="641.1264495849609" type="line"/>
      <point x="715.0" y="590.2106891003763"/>
      <point x="673.6628632971411" y="548.8735523975174"/>
      <point x="622.7471047950348" y="548.8735523975174" type="curve"/>
      <point x="606.5533393771656" y="548.8735523975174"/>
      <point x="590.644869427353" y="553.1362140733844"/>
    </contour>
  </outline>
</glyph>
<glyph name="invertedexclam" format="2">
  <advance width="1020"/>
  <unicode hex="00A1"/>
  <outline>
    <contour>
      <point x="346.74418604651163" y="680.2325581395348" type="curve" smooth="yes"/>
      <point x="346.74418604651163" y="590.1292223162791"/>
      <point x="419.89666417674414" y="516.9767441860465"/>
      <point x="510.0" y="516.9767441860465" type="curve" smooth="yes"/>
      <point x="600.1033358232557" y="516.9767441860465"/>
      <point x="673.2558139534883" y="590.1292223162791"/>
      <point x="673.2558139534883" y="680.2325581395348" type="curve" smooth="yes"/>
      <point x="673.2558139534883" y="770.3358939627907"/>
      <point x="600.1033358232559" y="843.4883720930233"/>
      <point x="510.0" y="843.4883720930233" type="curve" smooth="yes"/>
      <point x="419.8966641767442" y="843.4883720930233"/>
      <point x="346.74418604651163" y="770.3358939627907"/>
    </contour>
    <contour>
      <point x="618.8372093023255" y="466.18604651162786" type="line"/>
      <point x="401.1627906976744" y="466.18604651162786" type="line"/>
      <point x="401.16279069767427" y="-326.51162790697674" type="line"/>
      <point x="618.8372093023254" y="-326.51162790697674" type="line"/>
    </contour>
  </outline>
</glyph>
<glyph name="cent" format="2">
  <advance width="1020"/>
  <unicode hex="00A2"/>
  <outline>
    <contour>
      <point x="428.30987548828125" y="-108" type="line"/>
      <point x="601.1098709106445" y="-108" type="line"/>
      <point x="601.1098709106445" y="-6.3679046630859375" type="line"/>
      <point x="769.8279107507661" y="27.80644593182248"/>
      <point x="903.1282756814539" y="160.09802938926845"/>
      <point x="938.7901279449462" y="328.29262619018556" type="curve"/>
      <point x="712.642707824707" y="328.2926254272461" type="line"/>
      <point x="690.3212704414456" y="279.4401091854575"/>
      <point x="650.4477050236806" y="240.26967074636772"/>
      <point x="601.1098709106445" y="218.88176727294922" type="curve"/>
      <point x="601.1098709106445" y="618.1187515258789" type="line"/>
      <point x="650.4439558203607" y="596.7306172516423"/>
      <point x="690.3152436956237" y="557.5619560844005"/>
      <point x="712.6376689910888" y="508.7073738098145" type="curve"/>
      <point x="938.7873458862305" y="508.7073745727539" type="line"/>
      <point x="903.1211808509797" y="676.9069908832752"/>
      <point x="769.8236249131693" y="809.1939691057837"/>
      <point x="601.1098709106445" y="843.3648529052734" type="curve"/>
      <point x="601.1098709106445" y="945" type="line"/>
      <point x="428.30987548828125" y="945" type="line"/>
      <point x="428.30987548828125" y="843.3696517944336" type="line"/>
      <point x="230.39021740724831" y="803.277871366163"/>
      <point x="81.20987205505375" y="628.1729352774579"/>
      <point x="81.20987205505381" y="418.5" type="curve" smooth="yes"/>
      <point x="81.20987205505372" y="208.82706472254236"/>
      <point x="230.39021740724826" y="33.722128633837116"/>
      <point x="428.30987548828125" y="-6.364959716796875" type="curve"/>
    </contour>
    <contour>
      <point x="297.2098720550538" y="418.5" type="curve" smooth="yes"/>
      <point x="297.2098720550538" y="507.8478613235899"/>
      <point x="351.20132584193533" y="584.6848484680228"/>
      <point x="428.30987548828125" y="618.1321868896484" type="curve"/>
      <point x="428.30987548828125" y="218.8807373046875" type="line"/>
      <point x="351.2013258419353" y="252.31515153197734"/>
      <point x="297.2098720550537" y="329.1521386764102"/>
    </contour>
  </outline>
</glyph>
<glyph name="pound" format="2">
  <advance width="1020"/>
  <unicode hex="00A3"/>
  <outline>
    <contour>
      <point x="88.25581359863281" y="0" type="line"/>
      <point x="931.7441864013672" y="0" type="line"/>
      <point x="931.7441864013672" y="217.67442321777344" type="line"/>
      <point x="414.76744079589844" y="217.67442321777344" type="line"/>
      <point x="414.76744079589844" y="455.77906799316406" type="line"/>
      <point x="741.2790679931641" y="455.77906799316406" type="line"/>
      <point x="741.2790679931641" y="629.9186019897461" type="line"/>
      <point x="414.76744079589844" y="629.9186019897461" type="line"/>
      <point x="414.76744079589844" y="779.9244232177734" type="line"/>
      <point x="414.76744079589844" y="833.3738531774168"/>
      <point x="423.6738663868405" y="972.32558"/>
      <point x="564.4186" y="972.32558" type="curve" smooth="yes"/>
      <point x="647.01333" y="972.32558"/>
      <point x="714.06977" y="905.26914"/>
      <point x="714.06977" y="822.67442" type="curve"/>
      <point x="931.7441864013672" y="822.6744232177734" type="line"/>
      <point x="931.74419" y="1025.40692"/>
      <point x="767.15111" y="1190.0"/>
      <point x="564.4186" y="1190.0" type="curve" smooth="yes"/>
      <point x="413.83566501507954" y="1190.0"/>
      <point x="197.09302340941136" y="1094.027764717056"/>
      <point x="197.09301946286882" y="779.92442" type="curve"/>
      <point x="197.093017578125" y="629.9186019897461" type="line"/>
      <point x="88.25581359863281" y="629.9186019897461" type="line"/>
      <point x="88.25581359863281" y="455.77906799316406" type="line"/>
      <point x="197.093017578125" y="455.77906799316406" type="line"/>
      <point x="197.093017578125" y="217.67442321777344" type="line"/>
      <point x="88.25581359863281" y="217.67442321777344" type="line"/>
    </contour>
  </outline>
</glyph>
<glyph name="currency" format="2">
  <advance width="1020"/>
  <unicode hex="00A4"/>
  <outline>
    <contour>
      <point x="872.7907000000001" y="585.0" type="curve" smooth="yes"/>
      <point x="872.7907" y="645.52000937892"/>
      <point x="857.9396293976883" y="702.5987349653449"/>
      <point x="831.6861877441406" y="752.7671279907227" type="curve"/>
      <point x="1042.3034133911133" y="963.3843536376953" type="line"/>
      <point x="888.3843536376953" y="1117.3034133911133" type="line"/>
      <point x="677.772819519043" y="906.6918792724609" type="line"/>
      <point x="627.5874042795218" y="932.9425773254675"/>
      <point x="570.51400248972" y="947.7906999999999"/>
      <point x="510.0" y="947.7907000000001" type="curve" smooth="yes"/>
      <point x="449.48820003632" y="947.7907"/>
      <point x="392.4167503222685" y="932.9436581590048"/>
      <point x="342.23287200927734" y="906.6861877441406" type="curve"/>
      <point x="131.6156463623047" y="1117.3034133911133" type="line"/>
      <point x="-22.30341339111328" y="963.3843536376953" type="line"/>
      <point x="188.30812072753906" y="752.772819519043" type="line"/>
      <point x="162.0582087599962" y="702.590425802371"/>
      <point x="147.20930000000004" y="645.51560432684"/>
      <point x="147.2093" y="585.0" type="curve" smooth="yes"/>
      <point x="147.2093" y="524.47999062108"/>
      <point x="162.06037060231162" y="467.40126503465507"/>
      <point x="188.31381225585938" y="417.23287200927734" type="curve"/>
      <point x="-22.30341339111328" y="206.6156463623047" type="line"/>
      <point x="131.6156463623047" y="52.69658660888672" type="line"/>
      <point x="342.22718048095703" y="263.30812072753906" type="line"/>
      <point x="392.4125957204782" y="237.05742267453246"/>
      <point x="449.48599751028" y="222.20929999999998"/>
      <point x="510.0" y="222.20929999999996" type="curve" smooth="yes"/>
      <point x="570.51179996368" y="222.2093"/>
      <point x="627.5832496777315" y="237.05634184099517"/>
      <point x="677.7671279907227" y="263.3138122558594" type="curve"/>
      <point x="888.3843536376953" y="52.69658660888672" type="line"/>
      <point x="1042.3034133911133" y="206.6156463623047" type="line"/>
      <point x="831.6918792724609" y="417.22718048095703" type="line"/>
      <point x="857.9417912400039" y="467.40957419762907"/>
      <point x="872.7907000000001" y="524.4843956731601"/>
    </contour>
    <contour>
      <point x="655.11628" y="585.0" type="curve" smooth="yes"/>
      <point x="655.11628" y="504.90815"/>
      <point x="590.09185" y="439.88372"/>
      <point x="510.0" y="439.88372" type="curve" smooth="yes"/>
      <point x="429.90815" y="439.88372"/>
      <point x="364.88372" y="504.90815"/>
      <point x="364.88372" y="585.0" type="curve" smooth="yes"/>
      <point x="364.88372" y="665.09185"/>
      <point x="429.90815" y="730.11628"/>
      <point x="510.0" y="730.11628" type="curve" smooth="yes"/>
      <point x="590.09185" y="730.11628"/>
      <point x="655.11628" y="665.09185"/>
    </contour>
  </outline>
</glyph>
<glyph name="yen" format="2">
  <advance width="1020"/>
  <unicode hex="00A5"/>
  <outline>
    <contour>
      <point x="88.25581359863281" y="195.90697479248047" type="line"/>
      <point x="401.1627883911133" y="195.90697479248047" type="line"/>
      <point x="401.1627883911133" y="0" type="line"/>
      <point x="618.8372116088867" y="0" type="line"/>
      <point x="618.8372116088867" y="195.90697479248047" type="line"/>
      <point x="931.7441864013672" y="195.90697479248047" type="line"/>
      <point x="931.7441864013672" y="370.0465087890625" type="line"/>
      <point x="618.8372116088867" y="370.0465087890625" type="line"/>
      <point x="618.8372116088867" y="435.34883880615234" type="line"/>
      <point x="931.7441864013672" y="435.34883880615234" type="line"/>
      <point x="931.7441864013672" y="609.4883728027344" type="line"/>
      <point x="705.9069747924805" y="609.4883728027344" type="line"/>
      <point x="986.1627883911133" y="1170" type="line"/>
      <point x="742.7953948974609" y="1170" type="line"/>
      <point x="510" y="704.4092102050781" type="line"/>
      <point x="277.20460510253906" y="1170" type="line"/>
      <point x="33.83721160888672" y="1170" type="line"/>
      <point x="314.09302520751953" y="609.4883728027344" type="line"/>
      <point x="88.25581359863281" y="609.4883728027344" type="line"/>
      <point x="88.25581359863281" y="435.34883880615234" type="line"/>
      <point x="401.1627883911133" y="435.34883880615234" type="line"/>
      <point x="401.1627883911133" y="370.0465087890625" type="line"/>
      <point x="88.25581359863281" y="370.0465087890625" type="line"/>
    </contour>
  </outline>
</glyph>
<glyph name="brokenbar" format="2">
  <advance width="1020"/>
  <unicode hex="00A6"/>
  <outline>
    <contour>
      <point x="402.0" y="648.0" type="line"/>
      <point x="618.0" y="648.0" type="line"/>
      <point x="618.0" y="1377.0" type="line"/>
      <point x="402.0" y="1377.0" type="line"/>
    </contour>
    <contour>
      <point x="402.0" y="-216.0" type="line"/>
      <point x="618.0" y="-216.0" type="line"/>
      <point x="618.0" y="513.0" type="line"/>
      <point x="402.0" y="513.0" type="line"/>
    </contour>
  </outline>
</glyph>
<glyph name="section" format="2">
  <advance width="1020"/>
  <unicode hex="00A7"/>
  <outline>
    <contour>
      <point x="510.0" y="366.35659" type="curve" smooth="yes"/>
      <point x="490.25568595138" y="366.35659"/>
      <point x="471.33800808344256" y="368.61838470534803"/>
      <point x="453.82313537597656" y="372.77386474609375" type="curve"/>
      <point x="453.81111907958984" y="372.7777862548828" type="line"/>
      <point x="395.6438641922" y="391.764812259"/>
      <point x="351.0826122047818" y="423.1954218497682"/>
      <point x="346.48767852783203" y="465.3423309326172" type="curve"/>
      <point x="346.4506607055664" y="465.6506576538086" type="line"/>
      <point x="346.2076873779297" y="469.1311950683594" type="line"/>
      <point x="346.1329116821289" y="470.4204788208008" type="line"/>
      <point x="346.0963363647461" y="472.5" type="line"/>
      <point x="346.09634" y="530.94839"/>
      <point x="419.33243" y="578.64341"/>
      <point x="510.0" y="578.64341" type="curve" smooth="yes"/>
      <point x="533.56014939964" y="578.64341"/>
      <point x="555.943271220931" y="575.4228962120275"/>
      <point x="576.1701507568359" y="569.6084060668945" type="curve"/>
      <point x="627.40776954945" y="552.76503472724"/>
      <point x="665.6436426044035" y="522.5852298993868"/>
      <point x="672.7226409912109" y="485.10882568359375" type="curve"/>
      <point x="672.7661056518555" y="484.8705062866211" type="line"/>
      <point x="673.3335952758789" y="481.1460418701172" type="line"/>
      <point x="673.486457824707" y="479.8728942871094" type="line"/>
      <point x="673.7277069091797" y="476.9825210571289" type="line"/>
      <point x="673.8418350219727" y="475.01475524902344" type="line"/>
      <point x="673.9036483764648" y="472.5" type="line"/>
      <point x="673.90365" y="414.05161"/>
      <point x="600.66757" y="366.35659"/>
    </contour>
    <contour>
      <point x="137.49169158935547" y="42.53875732421875" type="line"/>
      <point x="137.49169" y="-115.93964"/>
      <point x="303.97294" y="-245.0"/>
      <point x="510.0" y="-245.0" type="curve" smooth="yes"/>
      <point x="716.02706" y="-245.0"/>
      <point x="882.5083" y="-115.93964"/>
      <point x="882.5083" y="42.53876" type="curve"/>
      <point x="882.5083084106445" y="42.53875732421875" type="line"/>
      <point x="882.50830370723" y="120.43237869344"/>
      <point x="841.6132812478943" y="188.99973483433058"/>
      <point x="776.1719512939453" y="240.58984375" type="curve"/>
      <point x="847.3618019272863" y="299.43871830609544"/>
      <point x="891.57807" y="381.65884579518"/>
      <point x="891.57807" y="472.5" type="curve"/>
      <point x="891.57807" y="474.26278597984"/>
      <point x="891.561419933484" y="476.0223256280805"/>
      <point x="891.5282440185547" y="477.72498321533203" type="curve"/>
      <point x="891.57807" y="474.48088344594"/>
      <point x="891.5567577634349" y="476.4567244252437"/>
      <point x="891.5143203735352" y="478.23246002197266" type="curve"/>
      <point x="888.5284539030478" y="618.1811884269831"/>
      <point x="780.9654150632422" y="736.5540042464136"/>
      <point x="632.3566436767578" y="779.2744445800781" type="curve"/>
      <point x="632.1485290527344" y="779.3416290283203" type="line"/>
      <point x="441.9194793701172" y="840.6792984008789" type="line"/>
      <point x="396.48229" y="855.33012"/>
      <point x="364.23588" y="875.76024"/>
      <point x="364.23588" y="902.46124" type="curve"/>
      <point x="364.23588" y="940.87514"/>
      <point x="429.24707" y="972.32558"/>
      <point x="510.0" y="972.32558" type="curve" smooth="yes"/>
      <point x="590.75293" y="972.32558"/>
      <point x="655.76412" y="940.87514"/>
      <point x="655.76412" y="902.46124" type="curve"/>
      <point x="873.4385375976562" y="902.4612426757812" type="line"/>
      <point x="873.43854" y="1060.96089"/>
      <point x="710.83688" y="1190.0"/>
      <point x="510.0" y="1190.0" type="curve" smooth="yes"/>
      <point x="309.16311" y="1190.0"/>
      <point x="146.56146" y="1060.96089"/>
      <point x="146.56146" y="902.46124" type="curve"/>
      <point x="146.56146" y="825.92902492728"/>
      <point x="185.0916756832585" y="758.2799698678411"/>
      <point x="247.0052261352539" y="707.0071105957031" type="curve"/>
      <point x="173.95611693695002" y="647.9920702995609"/>
      <point x="128.42192999999995" y="564.68502852454"/>
      <point x="128.42192999999992" y="472.50000000000006" type="curve"/>
      <point x="128.42193" y="470.73721402016"/>
      <point x="128.43858006651604" y="468.9776743719195"/>
      <point x="128.4717559814453" y="467.27494049072266" type="curve"/>
      <point x="128.42193" y="470.52698006865"/>
      <point x="128.44307883864573" y="468.5589904648803"/>
      <point x="128.48519134521484" y="466.78538513183594" type="curve"/>
      <point x="131.46969514080456" y="326.36572995971915"/>
      <point x="239.7451925943745" y="207.65883638397213"/>
      <point x="389.1316146850586" y="165.30066680908203" type="curve"/>
      <point x="389.22023010253906" y="165.27213287353516" type="line"/>
      <point x="574.0502319335938" y="106.15363311767578" type="line"/>
      <point x="626.21555" y="89.46838"/>
      <point x="664.83389" y="70.70489"/>
      <point x="664.83389" y="42.53876" type="curve"/>
      <point x="664.83389" y="4.13583"/>
      <point x="595.80198" y="-27.32558"/>
      <point x="510.0" y="-27.32558" type="curve" smooth="yes"/>
      <point x="424.19802" y="-27.32558"/>
      <point x="355.16611" y="4.13583"/>
      <point x="355.16611" y="42.53876" type="curve"/>
    </contour>
  </outline>
</glyph>
<glyph name="diaeresis" format="2">
  <advance width="1020"/>
  <unicode hex="00A8"/>
  <outline>
    <contour>
      <point x="490.02" y="1175.4" type="curve" smooth="yes"/>
      <point x="490.02" y="1252.888868808"/>
      <point x="427.10886880799995" y="1315.8"/>
      <point x="349.61999999999995" y="1315.8" type="curve" smooth="yes"/>
      <point x="272.131131192" y="1315.8"/>
      <point x="209.21999999999997" y="1252.888868808"/>
      <point x="209.21999999999997" y="1175.4" type="curve" smooth="yes"/>
      <point x="209.21999999999997" y="1097.9111311919999"/>
      <point x="272.13113119199994" y="1035.0"/>
      <point x="349.6199999999999" y="1035.0" type="curve" smooth="yes"/>
      <point x="427.10886880799995" y="1035.0"/>
      <point x="490.02" y="1097.9111311919999"/>
    </contour>
    <contour>
      <point x="810.78" y="1175.4" type="curve" smooth="yes"/>
      <point x="810.78" y="1252.888868808"/>
      <point x="747.8688688079999" y="1315.8"/>
      <point x="670.3800000000001" y="1315.8" type="curve" smooth="yes"/>
      <point x="592.8911311919999" y="1315.8"/>
      <point x="529.98" y="1252.888868808"/>
      <point x="529.98" y="1175.4" type="curve" smooth="yes"/>
      <point x="529.98" y="1097.9111311919999"/>
      <point x="592.8911311919999" y="1035.0"/>
      <point x="670.3800000000001" y="1035.0" type="curve" smooth="yes"/>
      <point x="747.8688688079999" y="1035.0"/>
      <point x="810.78" y="1097.9111311919999"/>
    </contour>
  </outline>
</glyph>
<glyph name="copyright" format="2">
  <advance width="1020"/>
  <unicode hex="00A9"/>
  <outline>
    <contour>
      <point x="928.5" y="580.5" type="curve" smooth="yes"/>
      <point x="928.5" y="811.47643587"/>
      <point x="740.9764358700002" y="999.0"/>
      <point x="510.00000000000006" y="999.0" type="curve" smooth="yes"/>
      <point x="279.02356413000007" y="999.0"/>
      <point x="91.50000000000006" y="811.47643587"/>
      <point x="91.50000000000006" y="580.5000000000001" type="curve" smooth="yes"/>
      <point x="91.5" y="349.52356413000007"/>
      <point x="279.02356412999995" y="162.0000000000001"/>
      <point x="510.0" y="162.00000000000006" type="curve" smooth="yes"/>
      <point x="740.9764358699999" y="162.0"/>
      <point x="928.5" y="349.52356412999995"/>
    </contour>
    <contour>
      <point x="836.7" y="580.5" type="curve" smooth="yes"/>
      <point x="836.7" y="400.189362966"/>
      <point x="690.3106370340001" y="253.8"/>
      <point x="510.0" y="253.80000000000007" type="curve" smooth="yes"/>
      <point x="329.689362966" y="253.80000000000007"/>
      <point x="183.30000000000007" y="400.1893629660001"/>
      <point x="183.30000000000007" y="580.5" type="curve" smooth="yes"/>
      <point x="183.30000000000007" y="760.8106370340001"/>
      <point x="329.6893629660001" y="907.2"/>
      <point x="510.00000000000006" y="907.2" type="curve" smooth="yes"/>
      <point x="690.3106370340001" y="907.2"/>
      <point x="836.7" y="760.8106370340001"/>
    </contour>
    <contour>
      <point x="510.00000000000006" y="477.0" type="curve" smooth="yes"/>
      <point x="452.87679543" y="477.0"/>
      <point x="406.50000000000006" y="523.37679543"/>
      <point x="406.50000000000006" y="580.5" type="curve" smooth="yes"/>
      <point x="406.50000000000006" y="637.6232045700001"/>
      <point x="452.87679543" y="684.0"/>
      <point x="510.00000000000006" y="684.0" type="curve" smooth="yes"/>
      <point x="552.3574845439053" y="684.0"/>
      <point x="588.8061789275625" y="658.5002494386122"/>
      <point x="604.8191905975343" y="622.0106941223145" type="curve"/>
      <point x="728.4228012084961" y="622.0106941223145" type="line"/>
      <point x="708.9555453843491" y="724.8947239825953"/>
      <point x="618.5038595798651" y="802.8000000000001"/>
      <point x="510.00000000000006" y="802.8000000000001" type="curve" smooth="yes"/>
      <point x="387.309291054" y="802.8000000000001"/>
      <point x="287.70000000000005" y="703.1907089460001"/>
      <point x="287.70000000000005" y="580.5" type="curve" smooth="yes"/>
      <point x="287.70000000000005" y="457.809291054"/>
      <point x="387.30929105399997" y="358.20000000000005"/>
      <point x="510.0" y="358.2" type="curve" smooth="yes"/>
      <point x="618.5000561678878" y="358.2"/>
      <point x="708.9492041126216" y="436.09981444824365"/>
      <point x="728.4208030700684" y="538.9893058776855" type="curve"/>
      <point x="604.8194618225098" y="538.9893058776855" type="line"/>
      <point x="588.8065721643825" y="502.5000256733615"/>
      <point x="552.3577130367236" y="477.0"/>
    </contour>
  </outline>
</glyph>
<glyph name="ordinalfeminine" format="2">
  <advance width="1020"/>
  <unicode hex="00AA"/>
  <outline>
    <contour>
      <point x="539.14535" y="885.0029690746867" type="curve"/>
      <point x="596.4439468383789" y="885.0029678344727" type="line"/>
      <point x="596.4439468383789" y="878.9827880859375" type="line"/>
      <point x="596.443948616297" y="865.7837415841055"/>
      <point x="591.4869375265968" y="836.25953"/>
      <point x="489.59302" y="836.25953" type="curve"/>
      <point x="435.75780777984653" y="836.25953"/>
      <point x="423.55605" y="842.882083153925"/>
      <point x="423.55605" y="857.62116" type="curve"/>
      <point x="423.55605" y="901.5136055899161"/>
      <point x="485.1711835127343" y="885.0029702429443"/>
    </contour>
    <contour>
      <point x="290.3393" y="481.22219" type="line"/>
      <point x="729.6607" y="481.22219" type="line"/>
      <point x="729.6607" y="615.97302" type="line"/>
      <point x="290.3393" y="615.97302" type="line"/>
    </contour>
    <contour>
      <point x="596.4439468383789" y="713.4595336914062" type="line"/>
      <point x="729.6606979370117" y="713.4595336914062" type="line"/>
      <point x="729.6606979370117" y="956.0920867919922" type="line"/>
      <point x="729.6606979370117" y="1008.695090790318"/>
      <point x="724.7603582396627" y="1170.0"/>
      <point x="516.11535" y="1170.0" type="curve"/>
      <point x="397.04375999999996" y="1170.0"/>
      <point x="300.75605" y="1099.25904"/>
      <point x="300.75605" y="1012.44674" type="curve"/>
      <point x="433.97279357910156" y="1012.4467391967773" type="line"/>
      <point x="433.97279002539716" y="1025.7054840501132"/>
      <point x="469.99862736361945" y="1036.78326"/>
      <point x="516.11535" y="1036.78326" type="curve"/>
      <point x="592.6980309613022" y="1036.78326"/>
      <point x="596.44395" y="1011.3824626512181"/>
      <point x="596.44395" y="998.84209" type="curve"/>
      <point x="596.4439468383789" y="992.5" type="line"/>
      <point x="539.1453475952148" y="992.5" type="line"/>
      <point x="361.35987224893347" y="992.5"/>
      <point x="290.3393" y="941.5724942074647"/>
      <point x="290.3393" y="857.62116" type="curve"/>
      <point x="290.3393" y="766.97708"/>
      <point x="379.5063099999999" y="703.04279"/>
      <point x="489.59302" y="703.04279" type="curve"/>
      <point x="519.9218833814763" y="703.04279"/>
      <point x="557.8444218749257" y="707.3075833824058"/>
      <point x="596.4439468383789" y="721.4109878540039" type="curve"/>
    </contour>
  </outline>
</glyph>
<glyph name="angledblleft" format="2">
  <advance width="1020"/>
  <unicode hex="00AB"/>
  <outline>
    <contour>
      <point x="907.6744155883789" y="217.6744155883789" type="line"/>
      <point x="710.8336639404297" y="498.8372116088867" type="line"/>
      <point x="907.6744155883789" y="780" type="line"/>
      <point x="641.95703125" y="780" type="line"/>
      <point x="445.1162796020508" y="498.8372116088867" type="line"/>
      <point x="641.95703125" y="217.6744155883789" type="line"/>
    </contour>
    <contour>
      <point x="544.8837203979492" y="217.6744155883789" type="line"/>
      <point x="348.04296875" y="498.8372116088867" type="line"/>
      <point x="544.8837203979492" y="780" type="line"/>
      <point x="279.1663360595703" y="780" type="line"/>
      <point x="82.3255844116211" y="498.8372116088867" type="line"/>
      <point x="279.1663360595703" y="217.6744155883789" type="line"/>
    </contour>
  </outline>
</glyph>
<glyph name="logicalnot" format="2">
  <advance width="980"/>
  <unicode hex="00AC"/>
  <outline>
    <contour>
      <point x="55" y="385" type="line"/>
      <point x="715" y="385" type="line"/>
      <point x="715" y="-45" type="line"/>
      <point x="925" y="-45" type="line"/>
      <point x="925" y="595" type="line"/>
      <point x="55" y="595" type="line"/>
    </contour>
  </outline>
</glyph>
<glyph name="registered" format="2">
  <advance width="1020"/>
  <unicode hex="00AE"/>
  <outline>
    <contour>
      <point x="928.5" y="742.5" type="curve" smooth="yes"/>
      <point x="928.5" y="973.47643587"/>
      <point x="740.9764358700002" y="1161.0"/>
      <point x="510.00000000000006" y="1161.0" type="curve" smooth="yes"/>
      <point x="279.02356413000007" y="1161.0"/>
      <point x="91.50000000000006" y="973.47643587"/>
      <point x="91.50000000000006" y="742.5" type="curve" smooth="yes"/>
      <point x="91.5" y="511.52356413"/>
      <point x="279.02356412999995" y="324.00000000000006"/>
      <point x="510.0" y="324.0" type="curve" smooth="yes"/>
      <point x="740.9764358699999" y="323.99999999999994"/>
      <point x="928.5" y="511.5235641299999"/>
    </contour>
    <contour>
      <point x="836.7" y="742.5" type="curve" smooth="yes"/>
      <point x="836.7" y="562.189362966"/>
      <point x="690.3106370340001" y="415.79999999999995"/>
      <point x="510.0" y="415.8" type="curve" smooth="yes"/>
      <point x="329.689362966" y="415.8"/>
      <point x="183.30000000000007" y="562.1893629660001"/>
      <point x="183.30000000000007" y="742.5" type="curve" smooth="yes"/>
      <point x="183.30000000000007" y="922.8106370340001"/>
      <point x="329.6893629660001" y="1069.2"/>
      <point x="510.00000000000006" y="1069.2" type="curve" smooth="yes"/>
      <point x="690.3106370340001" y="1069.2"/>
      <point x="836.7" y="922.8106370340001"/>
    </contour>
    <contour>
      <point x="350.80799865722656" y="523.1587524414062" type="line"/>
      <point x="469.6080017089844" y="523.1587524414062" type="line"/>
      <point x="469.6080017089844" y="650.9685363769531" type="line"/>
      <point x="534.4079971313477" y="650.9685363769531" type="line"/>
      <point x="538.1415120504123" y="650.9685326086878"/>
      <point x="541.848361285188" y="651.0732793120144"/>
      <point x="545.5251388549805" y="651.2863616943359" type="curve"/>
      <point x="588.4147415161133" y="523.1587524414062" type="line"/>
      <point x="712.6080017089844" y="523.1587524414062" type="line"/>
      <point x="655.9012603759766" y="692.5634307861328" type="line"/>
      <point x="653.4790267944336" y="692.5634307861328" type="line"/>
      <point x="689.7705486592753" y="722.2432171106441"/>
      <point x="712.6079999999862" y="765.3072594343738"/>
      <point x="712.6079999999863" y="813.1886413043542" type="curve" smooth="yes"/>
      <point x="712.6079999999863" y="902.7203558395248"/>
      <point x="632.7592565639864" y="975.4087500000204"/>
      <point x="534.4079999999863" y="975.4087500000204" type="curve"/>
      <point x="350.80799865722656" y="975.4087524414062" type="line"/>
    </contour>
    <contour>
      <point x="534.4079971313477" y="867.2620086669922" type="line"/>
      <point x="567.1917521879863" y="867.2620108695761"/>
      <point x="593.8079999999862" y="843.0325461494109"/>
      <point x="593.8079999999862" y="813.1886413043541" type="curve" smooth="yes"/>
      <point x="593.8079999999862" y="783.344736459297"/>
      <point x="567.1917521879863" y="759.1152717391319"/>
      <point x="534.4079999999863" y="759.1152717391319" type="curve"/>
      <point x="469.6080017089844" y="759.1152725219727" type="line"/>
      <point x="469.6080017089844" y="867.2620086669922" type="line"/>
    </contour>
  </outline>
</glyph>
<glyph name="macron" format="2">
  <advance width="1020"/>
  <unicode hex="00AF"/>
  <outline>
    <contour>
      <point x="231.0" y="1035.0" type="line"/>
      <point x="789.0" y="1035.0" type="line"/>
      <point x="789.0" y="1186.2" type="line"/>
      <point x="231.0" y="1186.2" type="line"/>
    </contour>
  </outline>
</glyph>
<glyph name="degree" format="2">
  <advance width="1020"/>
  <unicode hex="00B0"/>
  <outline>
    <contour>
      <point x="780.0" y="891.0" type="curve" smooth="yes"/>
      <point x="780.0" y="1040.0170554"/>
      <point x="659.0170554000001" y="1161.0"/>
      <point x="510.0" y="1161.0" type="curve" smooth="yes"/>
      <point x="360.9829446" y="1161.0"/>
      <point x="240.0" y="1040.0170554"/>
      <point x="240.0" y="891.0" type="curve" smooth="yes"/>
      <point x="240.0" y="741.9829446000001"/>
      <point x="360.9829446" y="621.0"/>
      <point x="509.99999999999994" y="621.0" type="curve" smooth="yes"/>
      <point x="659.0170553999999" y="621.0"/>
      <point x="780.0" y="741.9829446"/>
    </contour>
    <contour>
      <point x="564.0" y="891.0" type="curve" smooth="yes"/>
      <point x="564.0" y="861.19658892"/>
      <point x="539.8034110799999" y="837.0"/>
      <point x="510.0" y="837.0" type="curve" smooth="yes"/>
      <point x="480.19658891999995" y="837.0"/>
      <point x="456.0" y="861.1965889200001"/>
      <point x="456.0" y="891.0" type="curve" smooth="yes"/>
      <point x="456.0" y="920.8034110799999"/>
      <point x="480.19658891999995" y="945.0"/>
      <point x="510.0" y="945.0" type="curve" smooth="yes"/>
      <point x="539.80341108" y="945.0"/>
      <point x="564.0" y="920.8034110799999"/>
    </contour>
  </outline>
</glyph>
<glyph name="plusminus" format="2">
  <advance width="980"/>
  <unicode hex="00B1"/>
  <outline>
    <contour>
      <point x="385" y="250" type="line"/>
      <point x="595" y="250" type="line"/>
      <point x="595" y="505" type="line"/>
      <point x="850" y="505" type="line"/>
      <point x="850" y="715" type="line"/>
      <point x="595" y="715" type="line"/>
      <point x="595" y="970" type="line"/>
      <point x="385" y="970" type="line"/>
      <point x="385" y="715" type="line"/>
      <point x="130" y="715" type="line"/>
      <point x="130" y="505" type="line"/>
      <point x="385" y="505" type="line"/>
    </contour>
    <contour>
      <point x="130.0" y="10.0" type="line"/>
      <point x="850.0" y="10.0" type="line"/>
      <point x="850.0" y="220.0" type="line"/>
      <point x="130.0" y="220.0" type="line"/>
    </contour>
  </outline>
</glyph>
<glyph name="sup_two" format="2">
  <advance width="1020"/>
  <unicode hex="00B2"/>
  <outline>
    <contour>
      <point x="242.50988006591797" y="405.1500015258789" type="line"/>
      <point x="777.490119934082" y="405.1500015258789" type="line"/>
      <point x="777.490119934082" y="571.6709289550781" type="line"/>
      <point x="512.7496109008789" y="571.6709289550781" type="line"/>
      <point x="674.8266296386719" y="698.476921081543" type="line"/>
      <point x="739.6266249117665" y="749.1752156905511"/>
      <point x="777.4901162790698" y="826.8739027649372"/>
      <point x="777.4901162790698" y="909.1499999999999" type="curve"/>
      <point x="777.4901162790698" y="1056.781812875965"/>
      <point x="657.6318128759651" y="1176.6401162790696"/>
      <point x="510.0" y="1176.6401162790696" type="curve" smooth="yes"/>
      <point x="362.36818712403493" y="1176.6401162790696"/>
      <point x="242.50988372093025" y="1056.781812875965"/>
      <point x="242.50988372093025" y="909.1499999999999" type="curve"/>
      <point x="409.0308151245117" y="909.1500015258789" type="line"/>
      <point x="409.0308139534884" y="964.8764103362441"/>
      <point x="454.27358966375584" y="1010.1191860465116"/>
      <point x="510.0" y="1010.1191860465116" type="curve" smooth="yes"/>
      <point x="565.7264103362443" y="1010.1191860465116"/>
      <point x="610.9691860465116" y="964.8764103362441"/>
      <point x="610.9691860465116" y="909.1499999999999" type="curve"/>
      <point x="610.9691860465116" y="878.0933363577404"/>
      <point x="596.6768975783755" y="848.764502455711"/>
      <point x="572.2169177863717" y="829.6274769511243" type="curve"/>
      <point x="242.50988006591797" y="571.6709289550781" type="line"/>
    </contour>
  </outline>
</glyph>
<glyph name="sup_three" format="2">
  <advance width="980"/>
  <unicode hex="00B3"/>
  <outline>
    <contour>
      <point x="230.625" y="671.9031219482422" type="line"/>
      <point x="230.625" y="537.0133693775625"/>
      <point x="346.84704168749994" y="427.5"/>
      <point x="489.99999999999994" y="427.5" type="curve" smooth="yes"/>
      <point x="633.1529583125" y="427.5"/>
      <point x="749.375" y="537.0133693775624"/>
      <point x="749.375" y="671.903125" type="curve"/>
      <point x="749.375" y="735.3972167587932"/>
      <point x="723.623816399207" y="793.2686919138145"/>
      <point x="681.4340591430664" y="836.7348937988281" type="curve"/>
      <point x="716.0868566469013" y="876.6537238204228"/>
      <point x="736.875" y="927.6128554522984"/>
      <point x="736.875" y="983.096875" type="curve"/>
      <point x="736.875" y="1111.0876928724374"/>
      <point x="626.2540205625" y="1215.0"/>
      <point x="490.0" y="1215.0" type="curve" smooth="yes"/>
      <point x="353.7459794375" y="1215.0"/>
      <point x="243.125" y="1111.0876928724374"/>
      <point x="243.125" y="983.096875" type="curve"/>
      <point x="408.2375030517578" y="983.0968780517578" type="line"/>
      <point x="408.2375" y="1019.9596241326876"/>
      <point x="444.87404817725" y="1049.8874999999998"/>
      <point x="490.0" y="1049.8874999999998" type="curve" smooth="yes"/>
      <point x="535.12595182275" y="1049.8874999999998"/>
      <point x="571.7624999999999" y="1019.9596241326874"/>
      <point x="571.7624999999999" y="983.096875" type="curve"/>
      <point x="571.7624999999999" y="946.2341258673125"/>
      <point x="535.12595182275" y="916.30625"/>
      <point x="490.0" y="916.30625" type="curve"/>
      <point x="433.75" y="916.3062515258789" type="line"/>
      <point x="433.75" y="751.1937484741211" type="line"/>
      <point x="490" y="751.1937484741211" type="line"/>
      <point x="542.02488957275" y="751.19375"/>
      <point x="584.2624999999999" y="715.6648118826876"/>
      <point x="584.2624999999999" y="671.903125" type="curve"/>
      <point x="584.2624999999999" y="628.1414381173124"/>
      <point x="542.02488957275" y="592.6125"/>
      <point x="490.0" y="592.6125" type="curve" smooth="yes"/>
      <point x="437.97511042725" y="592.6125"/>
      <point x="395.7375" y="628.1414381173124"/>
      <point x="395.7375" y="671.903125" type="curve"/>
    </contour>
  </outline>
</glyph>
<glyph name="acute" format="2">
  <advance width="1020"/>
  <unicode hex="00B4"/>
  <outline>
    <contour>
      <point x="356.9435460082237" y="1035.0" type="line"/>
      <point x="530.6656238958379" y="1035.0" type="line"/>
      <point x="663.0564539917763" y="1269.0" type="line"/>
      <point x="489.3343761041619" y="1269.0" type="line"/>
    </contour>
  </outline>
</glyph>
<glyph name="mu" format="2">
  <advance width="980"/>
  <unicode hex="00B5"/>
  <outline>
    <contour>
      <point x="95.5999984741211" y="-285" type="line"/>
      <point x="305.5999984741211" y="-285" type="line"/>
      <point x="305.5999984741211" y="4.833930969238281" type="line"/>
      <point x="363.33987639016675" y="-26.927913075844902"/>
      <point x="429.6511104704646" y="-45.000000000000014"/>
      <point x="500.15" y="-45.00000000000001" type="curve" smooth="yes"/>
      <point x="598.8635388815121" y="-45.0"/>
      <point x="689.3667625201333" y="-9.567875140907944"/>
      <point x="759.6248168945312" y="49.263275146484375" type="curve"/>
      <point x="809.1043745419112" y="-8.428432916957291"/>
      <point x="882.5150141424399" y="-44.999999999999986"/>
      <point x="964.4000000000001" y="-45.0" type="curve"/>
      <point x="964.4000015258789" y="165" type="line"/>
      <point x="931.450673306" y="165.0"/>
      <point x="904.6999999999999" y="191.750673306"/>
      <point x="904.6999999999999" y="224.7" type="curve"/>
      <point x="904.6999969482422" y="825" type="line"/>
      <point x="694.6999969482422" y="825" type="line"/>
      <point x="694.6999969482422" y="359.5500030517578" type="line"/>
      <point x="694.6999999999999" y="252.1749328589999"/>
      <point x="607.5250671409999" y="165.0"/>
      <point x="500.15" y="165.0" type="curve" smooth="yes"/>
      <point x="392.77493285899993" y="165.0"/>
      <point x="305.6" y="252.17493285900002"/>
      <point x="305.6" y="359.54999999999995" type="curve"/>
      <point x="305.5999984741211" y="825" type="line"/>
      <point x="95.5999984741211" y="825" type="line"/>
    </contour>
  </outline>
</glyph>
<glyph name="pilcrow" format="2">
  <advance width="1020"/>
  <unicode hex="00B6"/>
  <outline>
    <contour>
      <point x="323.4883728027344" y="-108.83721160888672" type="line"/>
      <point x="541.1627883911133" y="-108.83721160888672" type="line"/>
      <point x="541.1627883911133" y="952.3255767822266" type="line"/>
      <point x="650" y="952.3255767822266" type="line"/>
      <point x="650" y="-108.83721160888672" type="line"/>
      <point x="867.6744232177734" y="-108.83721160888672" type="line"/>
      <point x="867.6744232177734" y="952.3255767822266" type="line"/>
      <point x="1030.9302291870117" y="952.3255767822266" type="line"/>
      <point x="1030.9302291870117" y="1170" type="line"/>
      <point x="366.2383728027344" y="1170.0" type="line"/>
      <point x="77.74271522394179" y="1170.0"/>
      <point x="-0.9302299999999921" y="974.486891783639"/>
      <point x="-0.93023" y="845.5814" type="curve" smooth="yes"/>
      <point x="-0.930229999999989" y="666.52989"/>
      <point x="144.4368699999999" y="521.16279"/>
      <point x="323.48837" y="521.16279" type="curve"/>
    </contour>
  </outline>
</glyph>
<glyph name="periodcentered" format="2">
  <advance width="1020"/>
  <unicode hex="00B7"/>
  <outline>
    <contour>
      <point x="673.2558139534883" y="335.5813953488372" type="curve" smooth="yes"/>
      <point x="673.2558139534883" y="425.684731172093"/>
      <point x="600.1033358232557" y="498.83720930232556"/>
      <point x="510.0" y="498.83720930232556" type="curve" smooth="yes"/>
      <point x="419.8966641767442" y="498.83720930232556"/>
      <point x="346.74418604651163" y="425.684731172093"/>
      <point x="346.74418604651163" y="335.5813953488372" type="curve" smooth="yes"/>
      <point x="346.74418604651163" y="245.4780595255814"/>
      <point x="419.89666417674414" y="172.32558139534882"/>
      <point x="510.0" y="172.32558139534882" type="curve" smooth="yes"/>
      <point x="600.1033358232557" y="172.3255813953488"/>
      <point x="673.2558139534883" y="245.4780595255814"/>
    </contour>
  </outline>
</glyph>
<glyph name="cedilla" format="2">
  <advance width="1020"/>
  <unicode hex="00B8"/>
  <outline>
    <contour>
      <point x="394.39534759521484" y="-125.16278839111328" type="line"/>
      <point x="462.95778537006436" y="-125.16278839111328" type="line"/>
      <point x="494.6250770065786" y="-125.16278839111328"/>
      <point x="496.81395" y="-145.48074343226872"/>
      <point x="496.81395" y="-151.39535" type="curve" smooth="yes"/>
      <point x="496.81395" y="-157.3099565677313"/>
      <point x="494.62507812583516" y="-177.62791077135586"/>
      <point x="462.9577872508293" y="-177.62790975542353" type="curve"/>
      <point x="370.81394958496094" y="-177.6279067993164" type="line"/>
      <point x="370.81394958496094" y="-330" type="line"/>
      <point x="427.8313980102539" y="-330.0" type="line"/>
      <point x="619.147167129004" y="-330.0"/>
      <point x="649.18605" y="-218.38278628708034"/>
      <point x="649.18605" y="-151.39535" type="curve" smooth="yes"/>
      <point x="649.18605" y="-80.06539663173997"/>
      <point x="607.2809271504847" y="-18.445678526756968"/>
      <point x="546.7674407958984" y="10.150421142578125" type="curve"/>
      <point x="546.7674407958984" y="54.418601989746094" type="line"/>
      <point x="394.39534759521484" y="54.418601989746094" type="line"/>
    </contour>
  </outline>
</glyph>
<glyph name="sup_one" format="2">
  <advance width="1020"/>
  <unicode hex="00B9"/>
  <outline>
    <contour>
      <point x="256.681396484375" y="405.1500015258789" type="line"/>
      <point x="763.318603515625" y="405.1500015258789" type="line"/>
      <point x="763.318603515625" y="571.6709289550781" type="line"/>
      <point x="604.5976715087891" y="571.6709289550781" type="line"/>
      <point x="604.5976715087891" y="1166.8744201660156" type="line"/>
      <point x="438.0767364501953" y="1166.8744201660156" type="line"/>
      <point x="256.681396484375" y="1062.145767211914" type="line"/>
      <point x="256.681396484375" y="883.78515625" type="line"/>
      <point x="438.0767364501953" y="988.5138092041016" type="line"/>
      <point x="438.0767364501953" y="571.6709289550781" type="line"/>
      <point x="256.681396484375" y="571.6709289550781" type="line"/>
    </contour>
  </outline>
</glyph>
<glyph name="ordinalmasculine" format="2">
  <advance width="1020"/>
  <unicode hex="00BA"/>
  <outline>
    <contour>
      <point x="740.8744186046513" y="939.1255813953487" type="curve" smooth="yes"/>
      <point x="740.8744186046513" y="1066.5486407570231"/>
      <point x="637.4230593616744" y="1170.0"/>
      <point x="510.00000000000006" y="1170.0" type="curve" smooth="yes"/>
      <point x="382.5769406383256" y="1170.0"/>
      <point x="279.12558139534883" y="1066.5486407570231"/>
      <point x="279.12558139534883" y="939.1255813953487" type="curve" smooth="yes"/>
      <point x="279.12558139534883" y="811.7025220336743"/>
      <point x="382.5769406383256" y="708.2511627906977"/>
      <point x="510.0" y="708.2511627906977" type="curve" smooth="yes"/>
      <point x="637.4230593616744" y="708.2511627906977"/>
      <point x="740.8744186046513" y="811.7025220336743"/>
    </contour>
    <contour>
      <point x="607.6576744186048" y="939.1255813953487" type="curve" smooth="yes"/>
      <point x="607.6576744186048" y="885.226844065451"/>
      <point x="563.8987373298977" y="841.4679069767441"/>
      <point x="510.00000000000006" y="841.4679069767441" type="curve" smooth="yes"/>
      <point x="456.1012626701023" y="841.4679069767441"/>
      <point x="412.34232558139536" y="885.226844065451"/>
      <point x="412.34232558139536" y="939.1255813953487" type="curve" smooth="yes"/>
      <point x="412.34232558139536" y="993.0243187252465"/>
      <point x="456.1012626701023" y="1036.7832558139532"/>
      <point x="510.00000000000006" y="1036.7832558139532" type="curve" smooth="yes"/>
      <point x="563.8987373298977" y="1036.7832558139532"/>
      <point x="607.6576744186048" y="993.0243187252465"/>
    </contour>
    <contour>
      <point x="279.12558139534883" y="486.430564784053" type="line"/>
      <point x="740.8744186046513" y="486.430564784053" type="line"/>
      <point x="740.8744186046513" y="621.1813953488371" type="line"/>
      <point x="279.12558139534883" y="621.1813953488371" type="line"/>
    </contour>
  </outline>
</glyph>
<glyph name="angledblright" format="2">
  <advance width="1020"/>
  <unicode hex="00BB"/>
  <outline>
    <contour>
      <point x="475.1162796020508" y="217.67442321777344" type="line"/>
      <point x="740.8336715698242" y="217.67442321777344" type="line"/>
      <point x="937.6744232177734" y="498.8372116088867" type="line"/>
      <point x="740.8336715698242" y="780" type="line"/>
      <point x="475.1162796020508" y="780" type="line"/>
      <point x="671.95703125" y="498.8372116088867" type="line"/>
    </contour>
    <contour>
      <point x="112.32557678222656" y="217.67442321777344" type="line"/>
      <point x="378.04296875" y="217.67442321777344" type="line"/>
      <point x="574.8837203979492" y="498.8372116088867" type="line"/>
      <point x="378.04296875" y="780" type="line"/>
      <point x="112.32557678222656" y="780" type="line"/>
      <point x="309.1663284301758" y="498.8372116088867" type="line"/>
    </contour>
  </outline>
</glyph>
<glyph name="one_over_four" format="2">
  <advance width="1020"/>
  <unicode hex="00BC"/>
  <outline>
    <contour>
      <point x="78.25700378417969" y="638.5500030517578" type="line"/>
      <point x="479.0179977416992" y="638.5500030517578" type="line"/>
      <point x="479.0179977416992" y="778.0859985351562" type="line"/>
      <point x="358.53050231933594" y="778.0859985351562" type="line"/>
      <point x="358.53050231933594" y="1203.3359985351562" type="line"/>
      <point x="218.99449920654297" y="1203.3359985351562" type="line"/>
      <point x="78.25700378417969" y="1122.081169128418" type="line"/>
      <point x="78.25700378417969" y="960.958869934082" type="line"/>
      <point x="218.99449920654297" y="1042.2137069702148" type="line"/>
      <point x="218.99449920654297" y="778.0859985351562" type="line"/>
      <point x="78.25700378417969" y="778.0859985351562" type="line"/>
    </contour>
    <contour>
      <point x="101.20700000000002" y="310.50000000001825" type="line"/>
      <point x="965.207" y="703.5967080159812" type="line"/>
      <point x="965.207" y="850.5000000000001" type="line"/>
      <point x="101.20700000000002" y="457.40329198403714" type="line"/>
    </contour>
    <contour>
      <point x="732.5962448120117" y="254.19847106933594" type="line"/>
      <point x="803.5130004882812" y="342.2821807861328" type="line"/>
      <point x="803.5130004882812" y="254.19847106933594" type="line"/>
    </contour>
    <contour>
      <point x="553.4570007324219" y="114.6624755859375" type="line"/>
      <point x="803.5130004882812" y="114.6624755859375" type="line"/>
      <point x="803.5130004882812" y="0" type="line"/>
      <point x="943.0490036010742" y="0" type="line"/>
      <point x="943.0490036010742" y="114.6624755859375" type="line"/>
      <point x="996.7429962158203" y="114.6624755859375" type="line"/>
      <point x="996.7429962158203" y="254.19847106933594" type="line"/>
      <point x="943.0490036010742" y="254.19847106933594" type="line"/>
      <point x="943.0490036010742" y="564.786003112793" type="line"/>
      <point x="803.5130004882812" y="564.786003112793" type="line"/>
      <point x="553.4570007324219" y="254.19847106933594" type="line"/>
    </contour>
  </outline>
</glyph>
<glyph name="one_over_two" format="2">
  <advance width="980"/>
  <unicode hex="00BD"/>
  <outline>
    <contour>
      <point x="87.0625" y="300" type="line"/>
      <point x="912.0625" y="723.8471908569336" type="line"/>
      <point x="912.0625" y="870" type="line"/>
      <point x="462.1875" y="638.8748397827148" type="line"/>
      <point x="462.1875" y="762.870002746582" type="line"/>
      <point x="338.24749755859375" y="762.870002746582" type="line"/>
      <point x="338.24749755859375" y="1215" type="line"/>
      <point x="191.87750244140625" y="1215" type="line"/>
      <point x="67.9375" y="1144.3058700561523" type="line"/>
      <point x="67.9375" y="975.7994384765625" type="line"/>
      <point x="191.87750244140625" y="1046.4935684204102" type="line"/>
      <point x="191.87750244140625" y="762.870002746582" type="line"/>
      <point x="67.9375" y="762.870002746582" type="line"/>
      <point x="67.9375" y="616.5" type="line"/>
      <point x="418.63584899902344" y="616.5" type="line"/>
      <point x="87.0625" y="446.1528091430664" type="line"/>
    </contour>
    <contour>
      <point x="501.0625" y="-45" type="line"/>
      <point x="895.3125" y="-45" type="line"/>
      <point x="895.3125" y="101.37000274658203" type="line"/>
      <point x="714.7438278198242" y="101.37000274658203" type="line"/>
      <point x="833.2165451049805" y="212.75946044921875" type="line"/>
      <point x="872.8411997964637" y="250.01503682903433"/>
      <point x="895.3125" y="301.98666491496124"/>
      <point x="895.3125" y="356.375" type="curve"/>
      <point x="895.3125" y="465.17124831749993"/>
      <point x="806.9837483174999" y="553.5"/>
      <point x="698.1875" y="553.5" type="curve" smooth="yes"/>
      <point x="589.3912516825001" y="553.5"/>
      <point x="501.0625" y="465.17124831749993"/>
      <point x="501.0625" y="356.375" type="curve"/>
      <point x="647.432502746582" y="356.375" type="line"/>
      <point x="647.4325" y="384.3874468401"/>
      <point x="670.1750531599" y="407.13"/>
      <point x="698.1875" y="407.13" type="curve" smooth="yes"/>
      <point x="726.1999468401" y="407.13"/>
      <point x="748.9425" y="384.3874468401"/>
      <point x="748.9425" y="356.375" type="curve"/>
      <point x="748.9425" y="342.37129703365304"/>
      <point x="743.1566745500039" y="328.9898386519094"/>
      <point x="732.9542683568891" y="319.3974143159885" type="curve"/>
      <point x="501.0625" y="101.37000274658203" type="line"/>
    </contour>
  </outline>
</glyph>
<glyph name="three_over_four" format="2">
  <advance width="980"/>
  <unicode hex="00BE"/>
  <outline>
    <contour>
      <point x="66.8125" y="807.4674987792969" type="line"/>
      <point x="66.8125" y="702.0696684181501"/>
      <point x="155.14125168249996" y="616.5"/>
      <point x="263.9375" y="616.5" type="curve" smooth="yes"/>
      <point x="372.7337483175" y="616.5"/>
      <point x="461.0625" y="702.0696684181501"/>
      <point x="461.0625" y="807.4675" type="curve"/>
      <point x="461.0625" y="853.234084214292"/>
      <point x="444.4078411526823" y="895.2620070440396"/>
      <point x="416.65467834472656" y="928.1634368896484" type="curve"/>
      <point x="438.62718538435064" y="957.8601828967548"/>
      <point x="451.5625" y="994.2468428946718"/>
      <point x="451.5625" y="1033.5325" type="curve"/>
      <point x="451.5625" y="1133.68713889185"/>
      <point x="367.4905556275" y="1215.0"/>
      <point x="263.9375" y="1215.0" type="curve" smooth="yes"/>
      <point x="160.3844443725" y="1215.0"/>
      <point x="76.3125" y="1133.68713889185"/>
      <point x="76.3125" y="1033.5325" type="curve"/>
      <point x="222.68250274658203" y="1033.5325012207031" type="line"/>
      <point x="222.6825" y="1052.90333741445"/>
      <point x="241.16824584990002" y="1068.63"/>
      <point x="263.9375" y="1068.63" type="curve" smooth="yes"/>
      <point x="286.7067541501" y="1068.63"/>
      <point x="305.1925" y="1052.90333741445"/>
      <point x="305.1925" y="1033.5325" type="curve"/>
      <point x="305.1925" y="1014.16166258555"/>
      <point x="286.7067541501" y="998.435"/>
      <point x="263.9375" y="998.435" type="curve"/>
      <point x="221.1875" y="998.4349975585938" type="line"/>
      <point x="221.1875" y="852.0650024414062" type="line"/>
      <point x="263.9375" y="852.0650024414062" type="line"/>
      <point x="291.9499468401" y="852.065"/>
      <point x="314.6925" y="832.08153010445"/>
      <point x="314.6925" y="807.4675" type="curve"/>
      <point x="314.6925" y="782.85346989555"/>
      <point x="291.9499468401" y="762.87"/>
      <point x="263.9375" y="762.87" type="curve" smooth="yes"/>
      <point x="235.9250531599" y="762.87"/>
      <point x="213.1825" y="782.85346989555"/>
      <point x="213.1825" y="807.4675" type="curve"/>
    </contour>
    <contour>
      <point x="85.93750000000003" y="299.9999999999852" type="line"/>
      <point x="910.9375" y="723.8471941761287" type="line"/>
      <point x="910.9375" y="870.0" type="line"/>
      <point x="85.93750000000003" y="446.1528058238565" type="line"/>
    </contour>
    <contour>
      <point x="676.2401657104492" y="225.9392318725586" type="line"/>
      <point x="719.8721160888672" y="290.9227066040039" type="line"/>
      <point x="719.8721160888672" y="225.9392318725586" type="line"/>
    </contour>
    <contour>
      <point x="499.9375" y="79.56922912597656" type="line"/>
      <point x="719.8721160888672" y="79.56922912597656" type="line"/>
      <point x="719.8721160888672" y="-45" type="line"/>
      <point x="866.2421188354492" y="-45" type="line"/>
      <point x="866.2421188354492" y="79.56922912597656" type="line"/>
      <point x="913.1875" y="79.56922912597656" type="line"/>
      <point x="913.1875" y="225.9392318725586" type="line"/>
      <point x="866.2421188354492" y="225.9392318725586" type="line"/>
      <point x="866.2421188354492" y="553.5" type="line"/>
      <point x="719.8721160888672" y="553.5" type="line"/>
      <point x="499.9375" y="225.9392318725586" type="line"/>
    </contour>
  </outline>
</glyph>
<glyph name="invertedquestion" format="2">
  <advance width="1020"/>
  <unicode hex="00BF"/>
  <outline>
    <contour>
      <point x="361.74418604651174" y="695.2325581395347" type="curve" smooth="yes"/>
      <point x="361.74418604651174" y="605.129222316279"/>
      <point x="434.8966641767443" y="531.9767441860464"/>
      <point x="525.0000000000001" y="531.9767441860464" type="curve" smooth="yes"/>
      <point x="615.1033358232559" y="531.9767441860464"/>
      <point x="688.2558139534884" y="605.129222316279"/>
      <point x="688.2558139534884" y="695.2325581395347" type="curve" smooth="yes"/>
      <point x="688.2558139534884" y="785.3358939627906"/>
      <point x="615.103335823256" y="858.4883720930231"/>
      <point x="525.0000000000001" y="858.4883720930231" type="curve" smooth="yes"/>
      <point x="434.89666417674437" y="858.4883720930231"/>
      <point x="361.74418604651174" y="785.3358939627906"/>
    </contour>
    <contour>
      <point x="633.8372116088867" y="481.18604278564453" type="line"/>
      <point x="416.1627883911133" y="481.18604278564453" type="line"/>
      <point x="416.1627883911133" y="410.2689437866211" type="line"/>
      <point x="261.4199195856718" y="363.54590211459754"/>
      <point x="148.60465116279073" y="219.7855618887389"/>
      <point x="148.6046511627907" y="49.88372093023253" type="curve"/>
      <point x="148.60465116279073" y="-157.8545255511627"/>
      <point x="317.2617535186047" y="-326.51162790697674"/>
      <point x="525.0" y="-326.51162790697674" type="curve" smooth="yes"/>
      <point x="732.7382464813953" y="-326.51162790697674"/>
      <point x="901.3953488372093" y="-157.8545255511628"/>
      <point x="901.3953488372093" y="49.883720930232506" type="curve"/>
      <point x="683.7209320068359" y="49.88372039794922" type="line"/>
      <point x="683.7209302325582" y="-37.71674445348837"/>
      <point x="612.6004653837209" y="-108.83720930232558"/>
      <point x="525.0" y="-108.83720930232558" type="curve" smooth="yes"/>
      <point x="437.3995346162791" y="-108.83720930232558"/>
      <point x="366.2790697674419" y="-37.71674445348837"/>
      <point x="366.2790697674419" y="49.883720930232556" type="curve"/>
      <point x="366.2790697674419" y="137.48418631395347"/>
      <point x="437.39953461627914" y="208.60465116279067"/>
      <point x="525.0" y="208.60465116279067" type="curve"/>
      <point x="633.8372116088867" y="208.60465240478516" type="line"/>
    </contour>
  </outline>
</glyph>
<glyph name="A_with_grave" format="2">
  <advance width="1020"/>
  <unicode hex="00C0"/>
  <outline>
    <contour>
      <point x="597.5343803309685" y="1278.8372093023256" type="line"/>
      <point x="464.11726473041057" y="1514.6511627906975" type="line"/>
      <point x="289.0485040684736" y="1514.6511627906975" type="line"/>
      <point x="422.4656196690315" y="1278.8372093023256" type="line"/>
    </contour>
    <contour>
      <point x="47.441864013671875" y="0" type="line"/>
      <point x="274.59305572509766" y="0" type="line"/>
      <point x="342.61180114746094" y="228.03986358642578" type="line"/>
      <point x="677.3881988525391" y="228.03986358642578" type="line"/>
      <point x="745.4069442749023" y="0" type="line"/>
      <point x="972.5581359863281" y="0" type="line"/>
      <point x="623.5755996704102" y="1170" type="line"/>
      <point x="396.42440032958984" y="1170" type="line"/>
    </contour>
    <contour>
      <point x="407.5387878417969" y="445.7142868041992" type="line"/>
      <point x="510" y="789.2260818481445" type="line"/>
      <point x="612.4612121582031" y="445.7142868041992" type="line"/>
    </contour>
  </outline>
</glyph>
<glyph name="A_with_acute" format="2">
  <advance width="1020"/>
  <unicode hex="00C1"/>
  <outline>
    <contour>
      <point x="423.13896105619284" y="1269.0" type="line"/>
      <point x="596.8610389438072" y="1269.0" type="line"/>
      <point x="729.2518690397453" y="1503.0" type="line"/>
      <point x="555.5297911521311" y="1503.0" type="line"/>
    </contour>
    <contour>
      <point x="51" y="0" type="line"/>
      <point x="276.4038772583008" y="0" type="line"/>
      <point x="343.89939880371094" y="226.28571319580078" type="line"/>
      <point x="676.1006011962891" y="226.28571319580078" type="line"/>
      <point x="743.5961227416992" y="0" type="line"/>
      <point x="969" y="0" type="line"/>
      <point x="622.7019424438477" y="1161" type="line"/>
      <point x="397.29805755615234" y="1161" type="line"/>
    </contour>
    <contour>
      <point x="408.3269500732422" y="442.2857131958008" type="line"/>
      <point x="510" y="783.1551055908203" type="line"/>
      <point x="611.6730499267578" y="442.2857131958008" type="line"/>
    </contour>
  </outline>
</glyph>
<glyph name="A_with_circumflex" format="2">
  <advance width="1020"/>
  <unicode hex="00C2"/>
  <outline>
    <contour>
      <point x="228.83721160888672" y="1278.8372116088867" type="line"/>
      <point x="421.2138366699219" y="1278.8372116088867" type="line"/>
      <point x="510" y="1394.03515625" type="line"/>
      <point x="598.7861633300781" y="1278.8372116088867" type="line"/>
      <point x="791.1627883911133" y="1278.8372116088867" type="line"/>
      <point x="606.1883163452148" y="1518.8372116088867" type="line"/>
      <point x="413.81168365478516" y="1518.8372116088867" type="line"/>
    </contour>
    <contour>
      <point x="17.965118408203125" y="0" type="line"/>
      <point x="246.6989288330078" y="0" type="line"/>
      <point x="320.30863189697266" y="228.0398712158203" type="line"/>
      <point x="699.6913681030273" y="228.0398712158203" type="line"/>
      <point x="773.3010711669922" y="0" type="line"/>
      <point x="1002.0348815917969" y="0" type="line"/>
      <point x="624.3668975830078" y="1170" type="line"/>
      <point x="395.6331024169922" y="1170" type="line"/>
    </contour>
    <contour>
      <point x="390.5724411010742" y="445.7142868041992" type="line"/>
      <point x="510" y="815.6960067749023" type="line"/>
      <point x="629.4275588989258" y="445.7142868041992" type="line"/>
    </contour>
  </outline>
</glyph>
<glyph name="A_with_smalltilde" format="2">
  <advance width="1020"/>
  <unicode hex="00C3"/>
  <outline>
    <contour>
      <point x="557.5525196761015" y="1440.545841738151" type="curve"/>
      <point x="549.8445205688477" y="1445.9430389404297" type="line"/>
      <point x="515.5511261148192" y="1469.9555341250737"/>
      <point x="474.7002672464625" y="1482.8357604509329"/>
      <point x="432.8357604509329" y="1482.8357604509329" type="curve"/>
      <point x="320.2458960137783" y="1482.8357604509329"/>
      <point x="228.8372093023256" y="1391.4270737394802"/>
      <point x="228.8372093023256" y="1278.8372093023256" type="curve"/>
      <point x="381.2093048095703" y="1278.8372116088867" type="line"/>
      <point x="381.2093023255814" y="1307.3306269711081"/>
      <point x="404.3423427821504" y="1330.4636674276771"/>
      <point x="432.8357604509329" y="1330.4636674276771" type="curve"/>
      <point x="443.4305229864935" y="1330.4636674276771"/>
      <point x="453.7687589341377" y="1327.2040341542397"/>
      <point x="462.44748032389856" y="1321.1271280151072" type="curve"/>
      <point x="470.15547943115234" y="1315.7299270629883" type="line"/>
      <point x="504.4488738851808" y="1291.7174356281846"/>
      <point x="545.2997327535376" y="1278.8372093023256"/>
      <point x="587.1642395490671" y="1278.8372093023256" type="curve"/>
      <point x="699.7541039862217" y="1278.8372093023256"/>
      <point x="791.1627906976744" y="1370.2458960137783"/>
      <point x="791.1627906976744" y="1482.8357604509329" type="curve"/>
      <point x="638.7906951904297" y="1482.8357620239258" type="line"/>
      <point x="638.7906976744185" y="1454.3423427821504"/>
      <point x="615.6576572178496" y="1431.2093023255813"/>
      <point x="587.1642395490671" y="1431.2093023255813" type="curve"/>
      <point x="576.5694770135066" y="1431.2093023255813"/>
      <point x="566.2312410658624" y="1434.4689355990188"/>
    </contour>
    <contour>
      <point x="47.441864013671875" y="0" type="line"/>
      <point x="274.59305572509766" y="0" type="line"/>
      <point x="342.61180114746094" y="228.03986358642578" type="line"/>
      <point x="677.3881988525391" y="228.03986358642578" type="line"/>
      <point x="745.4069442749023" y="0" type="line"/>
      <point x="972.5581359863281" y="0" type="line"/>
      <point x="623.5755996704102" y="1170" type="line"/>
      <point x="396.42440032958984" y="1170" type="line"/>
    </contour>
    <contour>
      <point x="407.5387878417969" y="445.7142868041992" type="line"/>
      <point x="510" y="789.2260818481445" type="line"/>
      <point x="612.4612121582031" y="445.7142868041992" type="line"/>
    </contour>
  </outline>
</glyph>
<glyph name="A_with_diaeresis" format="2">
  <advance width="1020"/>
  <unicode hex="00C4"/>
  <outline>
    <contour>
      <point x="489.86511627906975" y="1420.3255813953488" type="curve" smooth="yes"/>
      <point x="489.86511627906975" y="1498.4151391088371"/>
      <point x="426.46630189953487" y="1561.813953488372"/>
      <point x="348.3767441860465" y="1561.813953488372" type="curve" smooth="yes"/>
      <point x="270.2871864725581" y="1561.813953488372"/>
      <point x="206.88837209302326" y="1498.4151391088371"/>
      <point x="206.88837209302326" y="1420.3255813953488" type="curve" smooth="yes"/>
      <point x="206.88837209302326" y="1342.2360236818604"/>
      <point x="270.2871864725581" y="1278.8372093023256"/>
      <point x="348.3767441860465" y="1278.8372093023256" type="curve" smooth="yes"/>
      <point x="426.46630189953487" y="1278.8372093023256"/>
      <point x="489.86511627906975" y="1342.2360236818604"/>
    </contour>
    <contour>
      <point x="813.1116279069767" y="1420.3255813953488" type="curve" smooth="yes"/>
      <point x="813.1116279069767" y="1498.4151391088371"/>
      <point x="749.7128135274419" y="1561.813953488372"/>
      <point x="671.6232558139534" y="1561.813953488372" type="curve" smooth="yes"/>
      <point x="593.5336981004651" y="1561.813953488372"/>
      <point x="530.1348837209301" y="1498.4151391088371"/>
      <point x="530.1348837209301" y="1420.3255813953488" type="curve" smooth="yes"/>
      <point x="530.1348837209301" y="1342.2360236818604"/>
      <point x="593.5336981004651" y="1278.8372093023256"/>
      <point x="671.6232558139534" y="1278.8372093023256" type="curve" smooth="yes"/>
      <point x="749.7128135274419" y="1278.8372093023256"/>
      <point x="813.1116279069767" y="1342.2360236818604"/>
    </contour>
    <contour>
      <point x="47.441864013671875" y="0" type="line"/>
      <point x="274.59305572509766" y="0" type="line"/>
      <point x="342.61180114746094" y="228.03986358642578" type="line"/>
      <point x="677.3881988525391" y="228.03986358642578" type="line"/>
      <point x="745.4069442749023" y="0" type="line"/>
      <point x="972.5581359863281" y="0" type="line"/>
      <point x="623.5755996704102" y="1170" type="line"/>
      <point x="396.42440032958984" y="1170" type="line"/>
    </contour>
    <contour>
      <point x="407.5387878417969" y="445.7142868041992" type="line"/>
      <point x="510" y="789.2260818481445" type="line"/>
      <point x="612.4612121582031" y="445.7142868041992" type="line"/>
    </contour>
  </outline>
</glyph>
<glyph name="A_with_ring" format="2">
  <advance width="980"/>
  <unicode hex="00C5"/>
  <outline>
    <contour>
      <point x="685.0" y="1530.0" type="curve" smooth="yes"/>
      <point x="685.0" y="1637.6234289"/>
      <point x="597.6234288999999" y="1725.0"/>
      <point x="490.0" y="1725.0" type="curve" smooth="yes"/>
      <point x="382.37657110000004" y="1725.0"/>
      <point x="295.0" y="1637.6234289"/>
      <point x="295.0" y="1530.0" type="curve" smooth="yes"/>
      <point x="295.0" y="1422.3765711"/>
      <point x="382.3765711" y="1335.0"/>
      <point x="489.99999999999994" y="1335.0" type="curve" smooth="yes"/>
      <point x="597.6234288999999" y="1335.0"/>
      <point x="685.0" y="1422.3765710999999"/>
    </contour>
    <contour>
      <point x="538.0" y="1530.0" type="curve" smooth="yes"/>
      <point x="538.0" y="1503.50807904"/>
      <point x="516.49192096" y="1482.0"/>
      <point x="490.0" y="1482.0" type="curve" smooth="yes"/>
      <point x="463.50807904" y="1482.0"/>
      <point x="442.0" y="1503.50807904"/>
      <point x="442.0" y="1530.0" type="curve" smooth="yes"/>
      <point x="442.0" y="1556.49192096"/>
      <point x="463.50807904000004" y="1578.0"/>
      <point x="490.0" y="1578.0" type="curve" smooth="yes"/>
      <point x="516.49192096" y="1578.0"/>
      <point x="538.0" y="1556.49192096"/>
    </contour>
    <contour>
      <point x="25" y="-45" type="line"/>
      <point x="243.21619415283203" y="-45" type="line"/>
      <point x="319.47874450683594" y="225" type="line"/>
      <point x="660.5212554931641" y="225" type="line"/>
      <point x="736.783805847168" y="-45" type="line"/>
      <point x="955" y="-45" type="line"/>
      <point x="599.1080932617188" y="1215" type="line"/>
      <point x="380.89190673828125" y="1215" type="line"/>
    </contour>
    <contour>
      <point x="378.79405975341797" y="435" type="line"/>
      <point x="490" y="828.7136077880859" type="line"/>
      <point x="601.205940246582" y="435" type="line"/>
    </contour>
  </outline>
</glyph>
<glyph name="AE" format="2">
  <advance width="1020"/>
  <unicode hex="00C6"/>
  <outline>
    <contour>
      <point x="-25.685714721679688" y="0" type="line"/>
      <point x="207.98499298095703" y="0" type="line"/>
      <point x="301.37010192871094" y="226.28571319580078" type="line"/>
      <point x="471.1142883300781" y="226.28571319580078" type="line"/>
      <point x="471.1142883300781" y="0" type="line"/>
      <point x="995.6857147216797" y="0" type="line"/>
      <point x="995.6857147216797" y="216" type="line"/>
      <point x="687.1142883300781" y="216" type="line"/>
      <point x="687.1142883300781" y="472.5" type="line"/>
      <point x="968.6857147216797" y="472.5" type="line"/>
      <point x="968.6857147216797" y="688.5" type="line"/>
      <point x="687.1142883300781" y="688.5" type="line"/>
      <point x="687.1142883300781" y="945" type="line"/>
      <point x="995.6857147216797" y="945" type="line"/>
      <point x="995.6857147216797" y="1161" type="line"/>
      <point x="453.4435806274414" y="1161" type="line"/>
    </contour>
    <contour>
      <point x="390.51043701171875" y="442.2857131958008" type="line"/>
      <point x="471.1142883300781" y="637.6005706787109" type="line"/>
      <point x="471.1142883300781" y="442.2857131958008" type="line"/>
    </contour>
  </outline>
</glyph>
<glyph name="C_with_cedilla" format="2">
  <advance width="1020"/>
  <unicode hex="00C7"/>
  <outline>
    <contour>
      <point x="70.75581359863281" y="421.7441864013672" type="line"/>
      <point x="70.75581" y="203.916380453"/>
      <point x="228.76114337277332" y="22.701501955522843"/>
      <point x="436.31394958496094" y="-13.438301086425781" type="curve"/>
      <point x="436.31394958496094" y="-125.16278839111328" type="line"/>
      <point x="512.5" y="-125.16278839111328" type="line"/>
      <point x="526.97814" y="-125.16279"/>
      <point x="538.73256" y="-136.91721"/>
      <point x="538.73256" y="-151.39535" type="curve" smooth="yes"/>
      <point x="538.73256" y="-165.87349"/>
      <point x="526.97814" y="-177.62791"/>
      <point x="512.5" y="-177.62791" type="curve"/>
      <point x="412.73255920410156" y="-177.6279067993164" type="line"/>
      <point x="412.73255920410156" y="-330" type="line"/>
      <point x="512.5" y="-330" type="line"/>
      <point x="611.07459" y="-330.0"/>
      <point x="691.10465" y="-249.96994"/>
      <point x="691.10465" y="-151.39535" type="curve" smooth="yes"/>
      <point x="691.10465" y="-92.25749622130002"/>
      <point x="662.3005505328927" y="-39.79411559294821"/>
      <point x="617.9685897827148" y="-7.300132751464844" type="curve"/>
      <point x="810.919182593596" y="40.031519321988725"/>
      <point x="954.24419" y="214.28224869241996"/>
      <point x="954.2441899999999" y="421.74418999999995" type="curve"/>
      <point x="736.5697708129883" y="421.7441864013672" type="line"/>
      <point x="736.56977" y="298.07672"/>
      <point x="636.16747" y="197.67442"/>
      <point x="512.5" y="197.67442" type="curve" smooth="yes"/>
      <point x="388.83253" y="197.67442"/>
      <point x="288.43023" y="298.07672"/>
      <point x="288.43023" y="421.74419" type="curve"/>
      <point x="288.4302291870117" y="748.2558135986328" type="line"/>
      <point x="288.43023" y="871.92328"/>
      <point x="388.83253" y="972.32558"/>
      <point x="512.5" y="972.32558" type="curve" smooth="yes"/>
      <point x="636.16747" y="972.32558"/>
      <point x="736.56977" y="871.92328"/>
      <point x="736.56977" y="748.25581" type="curve"/>
      <point x="954.2441864013672" y="748.2558135986328" type="line"/>
      <point x="954.24419" y="992.06107"/>
      <point x="756.30525" y="1190.0"/>
      <point x="512.5" y="1190.0" type="curve" smooth="yes"/>
      <point x="268.69475" y="1190.0"/>
      <point x="70.75581" y="992.06107"/>
      <point x="70.75581" y="748.25581" type="curve"/>
    </contour>
  </outline>
</glyph>
<glyph name="E_with_grave" format="2">
  <advance width="1020"/>
  <unicode hex="00C8"/>
  <outline>
    <contour>
      <point x="600.0343803309684" y="1278.8372093023256" type="line"/>
      <point x="466.61726473041057" y="1514.6511627906975" type="line"/>
      <point x="291.5485040684736" y="1514.6511627906975" type="line"/>
      <point x="424.9656196690315" y="1278.8372093023256" type="line"/>
    </contour>
    <contour>
      <point x="117.96511840820312" y="0" type="line"/>
      <point x="907.0348815917969" y="0" type="line"/>
      <point x="907.0348815917969" y="217.6744155883789" type="line"/>
      <point x="335.63953399658203" y="217.6744155883789" type="line"/>
      <point x="335.63953399658203" y="476.1627883911133" type="line"/>
      <point x="852.6162796020508" y="476.1627883911133" type="line"/>
      <point x="852.6162796020508" y="693.8372116088867" type="line"/>
      <point x="335.63953399658203" y="693.8372116088867" type="line"/>
      <point x="335.63953399658203" y="952.3255844116211" type="line"/>
      <point x="907.0348815917969" y="952.3255844116211" type="line"/>
      <point x="907.0348815917969" y="1170" type="line"/>
      <point x="117.96511840820312" y="1170" type="line"/>
    </contour>
  </outline>
</glyph>
<glyph name="E_with_acute" format="2">
  <advance width="1020"/>
  <unicode hex="00C9"/>
  <outline>
    <contour>
      <point x="424.9656196690315" y="1278.8372093023256" type="line"/>
      <point x="600.0343803309684" y="1278.8372093023256" type="line"/>
      <point x="733.4514959315264" y="1514.6511627906975" type="line"/>
      <point x="558.3827352695894" y="1514.6511627906975" type="line"/>
    </contour>
    <contour>
      <point x="117.96511840820312" y="0" type="line"/>
      <point x="907.0348815917969" y="0" type="line"/>
      <point x="907.0348815917969" y="217.6744155883789" type="line"/>
      <point x="335.63953399658203" y="217.6744155883789" type="line"/>
      <point x="335.63953399658203" y="476.1627883911133" type="line"/>
      <point x="852.6162796020508" y="476.1627883911133" type="line"/>
      <point x="852.6162796020508" y="693.8372116088867" type="line"/>
      <point x="335.63953399658203" y="693.8372116088867" type="line"/>
      <point x="335.63953399658203" y="952.3255844116211" type="line"/>
      <point x="907.0348815917969" y="952.3255844116211" type="line"/>
      <point x="907.0348815917969" y="1170" type="line"/>
      <point x="117.96511840820312" y="1170" type="line"/>
    </contour>
  </outline>
</glyph>
<glyph name="E_with_circumflex" format="2">
  <advance width="980"/>
  <unicode hex="00CA"/>
  <outline>
    <contour>
      <point x="215" y="1335" type="line"/>
      <point x="404.50147247314453" y="1335" type="line"/>
      <point x="505" y="1458.532585144043" type="line"/>
      <point x="605.4985275268555" y="1335" type="line"/>
      <point x="795" y="1335" type="line"/>
      <point x="599.7507400512695" y="1575" type="line"/>
      <point x="410.24925994873047" y="1575" type="line"/>
    </contour>
    <contour>
      <point x="70" y="-45" type="line"/>
      <point x="940" y="-45" type="line"/>
      <point x="940" y="165" type="line"/>
      <point x="280" y="165" type="line"/>
      <point x="280" y="480" type="line"/>
      <point x="880" y="480" type="line"/>
      <point x="880" y="690" type="line"/>
      <point x="280" y="690" type="line"/>
      <point x="280" y="1005" type="line"/>
      <point x="940" y="1005" type="line"/>
      <point x="940" y="1215" type="line"/>
      <point x="70" y="1215" type="line"/>
    </contour>
  </outline>
</glyph>
<glyph name="E_with_diaeresis" format="2">
  <advance width="1020"/>
  <unicode hex="00CB"/>
  <outline>
    <contour>
      <point x="494.86512" y="1398.83721" type="curve" smooth="yes"/>
      <point x="494.86512" y="1476.92677"/>
      <point x="431.4663" y="1540.32558"/>
      <point x="353.37674" y="1540.32558" type="curve" smooth="yes"/>
      <point x="275.28719" y="1540.32558"/>
      <point x="211.88837" y="1476.92677"/>
      <point x="211.88837" y="1398.83721" type="curve" smooth="yes"/>
      <point x="211.88837" y="1320.74765"/>
      <point x="275.28719" y="1257.34884"/>
      <point x="353.37674" y="1257.34884" type="curve" smooth="yes"/>
      <point x="431.4663" y="1257.34884"/>
      <point x="494.86512" y="1320.74765"/>
    </contour>
    <contour>
      <point x="818.11163" y="1398.83721" type="curve" smooth="yes"/>
      <point x="818.11163" y="1476.92677"/>
      <point x="754.71281" y="1540.32558"/>
      <point x="676.62326" y="1540.32558" type="curve" smooth="yes"/>
      <point x="598.5337" y="1540.32558"/>
      <point x="535.13488" y="1476.92677"/>
      <point x="535.13488" y="1398.83721" type="curve" smooth="yes"/>
      <point x="535.13488" y="1320.74765"/>
      <point x="598.5337" y="1257.34884"/>
      <point x="676.62326" y="1257.34884" type="curve" smooth="yes"/>
      <point x="754.71281" y="1257.34884"/>
      <point x="818.11163" y="1320.74765"/>
    </contour>
    <contour>
      <point x="149.48837280273438" y="0" type="line"/>
      <point x="880.5116271972656" y="0" type="line"/>
      <point x="880.5116271972656" y="217.67442321777344" type="line"/>
      <point x="367.1627883911133" y="217.67442321777344" type="line"/>
      <point x="367.1627883911133" y="476.1627883911133" type="line"/>
      <point x="826.093017578125" y="476.1627883911133" type="line"/>
      <point x="826.093017578125" y="693.8372116088867" type="line"/>
      <point x="367.1627883911133" y="693.8372116088867" type="line"/>
      <point x="367.1627883911133" y="952.3255767822266" type="line"/>
      <point x="875.9767379760742" y="952.3255767822266" type="line"/>
      <point x="875.9767379760742" y="1170" type="line"/>
      <point x="149.48837280273438" y="1170" type="line"/>
    </contour>
  </outline>
</glyph>
<glyph name="I_with_grave" format="2">
  <advance width="980"/>
  <unicode hex="00CC"/>
  <outline>
    <contour>
      <point x="574.4482323064792" y="1335.0" type="line"/>
      <point x="427.34730997765894" y="1595.0" type="line"/>
      <point x="258.45084536470057" y="1595.0" type="line"/>
      <point x="405.5517676935208" y="1335.0" type="line"/>
    </contour>
    <contour>
      <point x="85" y="-45" type="line"/>
      <point x="895" y="-45" type="line"/>
      <point x="895" y="165" type="line"/>
      <point x="595" y="165" type="line"/>
      <point x="595" y="1005" type="line"/>
      <point x="895" y="1005" type="line"/>
      <point x="895" y="1215" type="line"/>
      <point x="85" y="1215" type="line"/>
      <point x="85" y="1005" type="line"/>
      <point x="385" y="1005" type="line"/>
      <point x="385" y="165" type="line"/>
      <point x="85" y="165" type="line"/>
    </contour>
  </outline>
</glyph>
<glyph name="I_with_acute" format="2">
  <advance width="1020"/>
  <unicode hex="00CD"/>
  <outline>
    <contour>
      <point x="423.13896105619284" y="1269.0" type="line"/>
      <point x="596.8610389438071" y="1269.0" type="line"/>
      <point x="729.2518690397454" y="1503.0" type="line"/>
      <point x="555.5297911521311" y="1503.0" type="line"/>
    </contour>
    <contour>
      <point x="132" y="0" type="line"/>
      <point x="888" y="0" type="line"/>
      <point x="888" y="216" type="line"/>
      <point x="618" y="216" type="line"/>
      <point x="618" y="945" type="line"/>
      <point x="888" y="945" type="line"/>
      <point x="888" y="1161" type="line"/>
      <point x="132" y="1161" type="line"/>
      <point x="132" y="945" type="line"/>
      <point x="402" y="945" type="line"/>
      <point x="402" y="216" type="line"/>
      <point x="132" y="216" type="line"/>
    </contour>
  </outline>
</glyph>
<glyph name="I_with_circumflex" format="2">
  <advance width="1020"/>
  <unicode hex="00CE"/>
  <outline>
    <contour>
      <point x="228.83721160888672" y="1278.8372116088867" type="line"/>
      <point x="421.2138366699219" y="1278.8372116088867" type="line"/>
      <point x="510" y="1394.03515625" type="line"/>
      <point x="598.7861633300781" y="1278.8372116088867" type="line"/>
      <point x="791.1627883911133" y="1278.8372116088867" type="line"/>
      <point x="606.1883163452148" y="1518.8372116088867" type="line"/>
      <point x="413.81168365478516" y="1518.8372116088867" type="line"/>
    </contour>
    <contour>
      <point x="139.9534912109375" y="0" type="line"/>
      <point x="880.0465087890625" y="0" type="line"/>
      <point x="880.0465087890625" y="217.67442321777344" type="line"/>
      <point x="618.8372116088867" y="217.67442321777344" type="line"/>
      <point x="618.8372116088867" y="952.3255767822266" type="line"/>
      <point x="880.0465087890625" y="952.3255767822266" type="line"/>
      <point x="880.0465087890625" y="1170" type="line"/>
      <point x="139.9534912109375" y="1170" type="line"/>
      <point x="139.9534912109375" y="952.3255767822266" type="line"/>
      <point x="401.1627883911133" y="952.3255767822266" type="line"/>
      <point x="401.1627883911133" y="217.67442321777344" type="line"/>
      <point x="139.9534912109375" y="217.67442321777344" type="line"/>
    </contour>
  </outline>
</glyph>
<glyph name="I_with_diaeresis" format="2">
  <advance width="1020"/>
  <unicode hex="00CF"/>
  <outline>
    <contour>
      <point x="489.86512" y="1398.83721" type="curve" smooth="yes"/>
      <point x="489.86512" y="1476.92677"/>
      <point x="426.4663" y="1540.32558"/>
      <point x="348.37674" y="1540.32558" type="curve" smooth="yes"/>
      <point x="270.28719" y="1540.32558"/>
      <point x="206.88837" y="1476.92677"/>
      <point x="206.88837" y="1398.83721" type="curve" smooth="yes"/>
      <point x="206.88837" y="1320.74765"/>
      <point x="270.28719" y="1257.34884"/>
      <point x="348.37674" y="1257.34884" type="curve" smooth="yes"/>
      <point x="426.4663" y="1257.34884"/>
      <point x="489.86512" y="1320.74765"/>
    </contour>
    <contour>
      <point x="813.11163" y="1398.83721" type="curve" smooth="yes"/>
      <point x="813.11163" y="1476.92677"/>
      <point x="749.71281" y="1540.32558"/>
      <point x="671.62326" y="1540.32558" type="curve" smooth="yes"/>
      <point x="593.5337" y="1540.32558"/>
      <point x="530.13488" y="1476.92677"/>
      <point x="530.13488" y="1398.83721" type="curve" smooth="yes"/>
      <point x="530.13488" y="1320.74765"/>
      <point x="593.5337" y="1257.34884"/>
      <point x="671.62326" y="1257.34884" type="curve" smooth="yes"/>
      <point x="749.71281" y="1257.34884"/>
      <point x="813.11163" y="1320.74765"/>
    </contour>
    <contour>
      <point x="139.9534912109375" y="0" type="line"/>
      <point x="880.0465087890625" y="0" type="line"/>
      <point x="880.0465087890625" y="217.67442321777344" type="line"/>
      <point x="618.8372116088867" y="217.67442321777344" type="line"/>
      <point x="618.8372116088867" y="952.3255767822266" type="line"/>
      <point x="880.0465087890625" y="952.3255767822266" type="line"/>
      <point x="880.0465087890625" y="1170" type="line"/>
      <point x="139.9534912109375" y="1170" type="line"/>
      <point x="139.9534912109375" y="952.3255767822266" type="line"/>
      <point x="401.1627883911133" y="952.3255767822266" type="line"/>
      <point x="401.1627883911133" y="217.67442321777344" type="line"/>
      <point x="139.9534912109375" y="217.67442321777344" type="line"/>
    </contour>
  </outline>
</glyph>
<glyph name="ETH" format="2">
  <advance width="980"/>
  <unicode hex="00D0"/>
  <outline>
    <contour>
      <point x="75" y="-45" type="line"/>
      <point x="510" y="-45" type="line"/>
      <point x="750.0830337" y="-45.0"/>
      <point x="945.0" y="149.9169663"/>
      <point x="945.0" y="390.0" type="curve"/>
      <point x="945" y="780" type="line"/>
      <point x="945.0" y="1020.0830337"/>
      <point x="750.0830337" y="1215.0"/>
      <point x="510.0" y="1215.0" type="curve"/>
      <point x="75" y="1215" type="line"/>
      <point x="75" y="658.5" type="line"/>
      <point x="-15" y="658.5" type="line"/>
      <point x="-15" y="511.5" type="line"/>
      <point x="75" y="511.5" type="line"/>
    </contour>
    <contour>
      <point x="735" y="390" type="line"/>
      <point x="735.0" y="265.8191205"/>
      <point x="634.1808795000001" y="165.0"/>
      <point x="510.0" y="165.0" type="curve"/>
      <point x="285" y="165" type="line"/>
      <point x="285" y="511.5" type="line"/>
      <point x="532.5" y="511.5" type="line"/>
      <point x="532.5" y="658.5" type="line"/>
      <point x="285" y="658.5" type="line"/>
      <point x="285" y="1005" type="line"/>
      <point x="510" y="1005" type="line"/>
      <point x="634.1808795" y="1005.0"/>
      <point x="735.0" y="904.1808795"/>
      <point x="735.0" y="780.0" type="curve"/>
    </contour>
  </outline>
</glyph>
